<?xml version="1.0" encoding="UTF-8"?>
<svg width="40px" height="40px" viewBox="0 0 40 40" version="1.1" xmlns="http://www.w3.org/2000/svg" xmlns:xlink="http://www.w3.org/1999/xlink">
    <title>icon/三维视图</title>
    <defs>
        <path d="M5.91784578,4.28002522e-10 C7.07610231,4.28002522e-10 8.17987734,2.24426556 8.53047663,2.92157745 C8.88107592,3.59888935 9.93532663,5.21567249 9.17113405,5.57690334 C8.40694147,5.93813419 8.16591268,6.56449723 7.99858957,6.65911007 C7.83126646,6.75372291 7.54051786,6.61070013 7.24541479,6.8857646 C6.95031172,7.16082907 6.87223345,7.83674288 7.30244165,8.94981337 C7.73264986,10.0628839 8.50973421,10.9991941 9.35973173,11.6164017 C10.2097293,12.2336092 11.2436987,11.9842935 11.2701407,12.0509169 C11.2965828,12.1175404 11.2701407,13.083167 11.2701407,13.5077009 C11.2701407,13.6639088 10.9399062,14.3435373 10.2991763,14.7607126 C9.81913856,15.0732623 9.27912201,15.1691209 9.08630806,15.1670837 C8.85711654,15.1646623 8.29874044,15.1344271 7.87751966,14.9182706 C7.45629888,14.7021141 6.68853002,14.202764 6.6405707,13.8412628 C6.59261137,13.4797616 6.66528612,12.3595822 6.39211756,12.2452774 C6.26767616,12.1932061 6.03210536,12.1700746 5.81435591,12.0722988 C5.54752357,11.9524834 5.30267769,11.7546804 5.19067102,11.6720123 C5.07866436,11.5893443 4.60959202,11.220947 4.23901802,11.9434803 C3.86844402,12.6660135 3.73382002,13.3138323 3.86719614,13.6296959 C4.00057226,13.9455595 4.40659004,14.0354037 4.43406492,14.2435067 C4.4615398,14.4516096 4.47803408,15.0506139 4.26774221,15.2754669 C4.05745035,15.50032 3.58559423,15.6321874 3.38720518,17.2818847 C3.26069622,18.3338656 3.21713903,20.3156376 3.2565336,23.2272008 L3.26241976,23.6299953 L1.41740232,23.6299953 C1.24806855,18.7762089 1.1314097,15.9913661 1.06742578,15.2754669 C0.971449908,14.2016182 0.202202853,13.5456095 0.0546494091,13.1057777 C-0.0929040348,12.665946 0.0763521755,12.0177634 0.346955355,11.3372622 C0.492022214,10.9724543 0.612046775,10.7158422 0.735633429,10.5773461 C0.859220084,10.43885 1.0562627,10.43885 1.16093927,10.4542141 C1.38657766,10.4873326 1.59329277,10.9585571 2.09515243,10.6567609 C2.5970121,10.3549647 2.4558559,9.9151063 2.56064039,9.84587073 C2.66542488,9.77663517 2.89086347,10.0954547 3.07054621,10.0628839 C3.25022894,10.030313 3.25198084,9.85121632 3.38720518,9.77663517 C3.52242952,9.70205402 3.72014528,9.77663517 3.86719614,9.6239624 C4.014247,9.47128964 3.97243279,9.2407343 3.99094206,9.1627512 C4.02516879,9.01854743 3.91218654,8.38839473 3.62683812,7.85764456 C3.29198534,7.23481593 2.76201235,6.7015573 2.58236128,6.54728556 C2.24961859,6.26154947 1.88997084,6.23335838 1.68859106,6.06214523 C0.707980437,5.22842977 0.919526003,3.27088606 1.82481485,2.29009724 C2.84270006,1.18732166 4.75958925,4.28002522e-10 5.91784578,4.28002522e-10 Z M16.973569,4.22978985e-10 C18.1318255,4.22978985e-10 20.0487147,1.18732166 21.0665999,2.29009724 C21.9718888,3.27088606 22.1834343,5.22842977 21.2028237,6.06214523 C21.0014439,6.23335838 20.6417962,6.26154947 20.3090535,6.54728556 C20.1294024,6.7015573 19.5994294,7.23481593 19.2645766,7.85764456 C18.9792282,8.38839473 18.866246,9.01854743 18.9004727,9.1627512 C18.918982,9.24073429 18.8771678,9.47128963 19.0242186,9.6239624 C19.1712695,9.77663517 19.3689852,9.70205402 19.5042096,9.77663517 C19.6394339,9.85121632 19.6411858,10.030313 19.8208685,10.0628839 C20.0005513,10.0954547 20.2259899,9.77663517 20.3307744,9.84587073 C20.4355589,9.9151063 20.2944027,10.3549647 20.7962623,10.6567609 C21.298122,10.9585571 21.5048371,10.4873326 21.7304755,10.4542141 C21.8351521,10.43885 22.0321947,10.43885 22.1557813,10.5773461 C22.279368,10.7158422 22.3993925,10.9724543 22.5444594,11.3372622 C22.8150626,12.0177634 22.9843188,12.665946 22.8367653,13.1057777 C22.6892119,13.5456095 21.9199648,14.2016182 21.823989,15.2754669 C21.7600051,15.9913661 21.6433462,18.7762089 21.4740124,23.6299953 L21.4740124,23.6299953 L19.628995,23.6299953 L19.6348811,23.2272008 C19.6742757,20.3156376 19.6307185,18.3338656 19.5042096,17.2818847 C19.3058205,15.6321874 18.8339644,15.50032 18.6236725,15.2754669 C18.4133807,15.0506139 18.429875,14.4516096 18.4573498,14.2435067 C18.4848247,14.0354037 18.8908425,13.9455595 19.0242186,13.6296959 C19.1575947,13.3138323 19.0229707,12.6660135 18.6523967,11.9434803 C18.2818227,11.220947 17.8127504,11.5893443 17.7007437,11.6720123 C17.5887371,11.7546804 17.3438912,11.9524833 17.0770588,12.0722988 C16.8593094,12.1700745 16.6237386,12.1932061 16.4992972,12.2452774 C16.2261286,12.3595822 16.2988034,13.4797616 16.2508441,13.8412628 C16.2028847,14.202764 15.4351159,14.7021141 15.0138951,14.9182706 C14.5926743,15.1344271 14.0342982,15.1646623 13.8051067,15.1670837 C13.6122927,15.1691209 13.0722762,15.0732623 12.5922385,14.7607126 C11.9515086,14.3435373 11.6212741,13.6639088 11.6212741,13.5077009 C11.6212741,13.083167 11.594832,12.1175404 11.6212741,12.0509169 C11.6477161,11.9842935 12.6816855,12.2336092 13.531683,11.6164017 C14.3816805,10.9991941 15.1587649,10.0628839 15.5889731,8.94981337 C16.0191813,7.83674288 15.941103,7.16082907 15.646,6.8857646 C15.3508969,6.61070013 15.0601483,6.75372291 14.8928252,6.65911007 C14.7255021,6.56449723 14.4844733,5.93813419 13.7202807,5.57690334 C12.9560881,5.21567249 14.0103388,3.59888935 14.3609381,2.92157745 C14.7115374,2.24426556 15.8153124,4.22978985e-10 16.973569,4.22978985e-10 Z M8.00379711,12.2427635 C7.99405533,12.4783033 8.03171338,12.7284618 8.11677128,12.9932392 C8.24435812,13.3904052 8.56101423,13.8319802 8.8705092,13.9524369 C9.18000418,14.0728936 9.82708731,14.00619 9.97687441,13.7065549 C10.0612212,13.537827 10.0008982,13.2409897 9.82475763,12.9932392 C9.67882955,12.787984 9.43778641,12.6250536 9.20972877,12.5230641 C8.87417433,12.3730011 8.47219711,12.2795675 8.00379711,12.2427635 Z M14.8876176,12.2427795 C14.4192176,12.2795729 14.0172404,12.3730011 13.681686,12.5230641 C13.4536283,12.6250536 13.2125852,12.787984 13.0666571,12.9932392 C12.8905165,13.2409897 12.8301936,13.537827 12.9145403,13.7065549 C13.0643274,14.00619 13.7114106,14.0728936 14.0209056,13.9524369 C14.3304005,13.8319802 14.6470566,13.3904052 14.7746435,12.9932392 C14.8597014,12.7284618 14.8973594,12.4783086 14.8876176,12.2427795 Z" id="path-1"></path>
        <filter x="-1.1%" y="-1.1%" width="104.4%" height="104.2%" filterUnits="objectBoundingBox" id="filter-3">
            <feOffset dx="0.5" dy="0.5" in="SourceAlpha" result="shadowOffsetOuter1"></feOffset>
            <feColorMatrix values="0 0 0 0 0.796078431   0 0 0 0 0.835294118   0 0 0 0 0.905882353  0 0 0 0.500104144 0" type="matrix" in="shadowOffsetOuter1"></feColorMatrix>
        </filter>
        <linearGradient x1="75.4425915%" y1="29.0705986%" x2="21.868562%" y2="60.9902587%" id="linearGradient-4">
            <stop stop-color="#E3EDFF" offset="0%"></stop>
            <stop stop-color="#C9D3E6" offset="100%"></stop>
        </linearGradient>
        <filter x="-67.0%" y="-85.0%" width="233.9%" height="270.1%" filterUnits="objectBoundingBox" id="filter-5">
            <feGaussianBlur stdDeviation="1" in="SourceGraphic"></feGaussianBlur>
        </filter>
        <filter x="-67.0%" y="-85.0%" width="233.9%" height="270.1%" filterUnits="objectBoundingBox" id="filter-6">
            <feGaussianBlur stdDeviation="1" in="SourceGraphic"></feGaussianBlur>
        </filter>
        <filter x="-67.0%" y="-85.0%" width="233.9%" height="270.1%" filterUnits="objectBoundingBox" id="filter-7">
            <feGaussianBlur stdDeviation="1" in="SourceGraphic"></feGaussianBlur>
        </filter>
        <filter x="-67.0%" y="-85.0%" width="233.9%" height="270.1%" filterUnits="objectBoundingBox" id="filter-8">
            <feGaussianBlur stdDeviation="1" in="SourceGraphic"></feGaussianBlur>
        </filter>
        <linearGradient x1="51.5912555%" y1="51.6719112%" x2="47.3902171%" y2="54.9198443%" id="linearGradient-9">
            <stop stop-color="#C9D3E6" offset="0%"></stop>
            <stop stop-color="#94A2BC" offset="100%"></stop>
        </linearGradient>
        <linearGradient x1="51.4817045%" y1="51.6719112%" x2="48.9820907%" y2="54.765394%" id="linearGradient-10">
            <stop stop-color="#94A2BC" offset="0%"></stop>
            <stop stop-color="#C9D3E6" offset="100%"></stop>
        </linearGradient>
        <linearGradient x1="51.4956885%" y1="48.9139732%" x2="43.8659924%" y2="54.2507502%" id="linearGradient-11">
            <stop stop-color="#CAD4E7" stop-opacity="0" offset="0%"></stop>
            <stop stop-color="#B4C1D9" offset="100%"></stop>
        </linearGradient>
        <linearGradient x1="51.4956885%" y1="48.9139814%" x2="43.8659924%" y2="54.2507182%" id="linearGradient-12">
            <stop stop-color="#CAD4E7" stop-opacity="0" offset="0%"></stop>
            <stop stop-color="#B4C1D9" offset="100%"></stop>
        </linearGradient>
    </defs>
    <g id="icon/三维视图" stroke="none" stroke-width="1" fill="none" fill-rule="evenodd">
        <path d="M4,0 L36,0 C38.209139,-4.05812251e-16 40,1.790861 40,4 L40,36 C40,38.209139 38.209139,40 36,40 L4,40 C1.790861,40 2.705415e-16,38.209139 0,36 L0,4 C-2.705415e-16,1.790861 1.790861,4.05812251e-16 4,0 Z" id="矩形备份-6"></path>
        <g id="路径-33" transform="translate(8.638591, 7.833269)">
            <mask id="mask-2" fill="white">
                <use xlink:href="#path-1"></use>
            </mask>
            <g id="蒙版">
                <use fill="black" fill-opacity="1" filter="url(#filter-3)" xlink:href="#path-1"></use>
                <use fill="#C9D3E6" fill-rule="evenodd" xlink:href="#path-1"></use>
            </g>
            <path d="M16.8465994,9.5427866 C17.0666203,9.32989152 17.5571103,9.2582128 18.3180693,9.32775044 C19.0734209,9.39344503 19.6898011,9.63296741 20.1672099,10.0463176 C20.5457948,10.374104 20.5370131,10.7140459 20.6331065,10.9260602 C20.7147703,11.1062379 20.7863396,11.2618227 20.8478144,11.3928146 C20.8388314,11.6785069 20.6598006,11.9364789 20.3107221,12.1667309 C19.7871044,12.5121088 19.0334185,12.8220119 18.3180693,12.8220119 C17.9977827,12.8220119 17.2962206,12.9579792 16.6742943,12.0904551 C16.052368,11.2229309 16.516568,9.86212921 16.8465994,9.5427866 Z" fill="url(#linearGradient-4)" filter="url(#filter-5)" mask="url(#mask-2)" transform="translate(18.607888, 11.065913) scale(-1, 1) translate(-18.607888, -11.065913) "></path>
            <path d="M2.52861315,9.5427866 C2.74863408,9.32989152 3.23912404,9.2582128 4.00008303,9.32775044 C4.7554347,9.39344503 5.37181492,9.63296741 5.84922367,10.0463176 C6.22780853,10.374104 6.21902687,10.7140459 6.31512028,10.9260602 C6.39678404,11.1062379 6.46835333,11.2618227 6.52982813,11.3928146 C6.52084515,11.6785069 6.34181442,11.9364789 5.99273592,12.1667309 C5.46911817,12.5121088 4.71543222,12.8220119 4.00008303,12.8220119 C3.67979644,12.8220119 2.97823435,12.9579792 2.35630804,12.0904551 C1.73438173,11.2229309 2.19858175,9.86212921 2.52861315,9.5427866 Z" fill="url(#linearGradient-4)" filter="url(#filter-6)" mask="url(#mask-2)"></path>
            <path d="M16.413951,1.40744828 C16.6339719,1.19455321 17.1244619,1.12287449 17.8854209,1.19241213 C18.6407725,1.25810671 19.2571527,1.49762909 19.7345615,1.91097926 C20.1131464,2.23876571 20.1043647,2.57870757 20.2004581,2.79072189 C20.2821219,2.97089957 20.3536912,3.12648439 20.415166,3.25747632 C20.406183,3.54316854 20.2271522,3.80114062 19.8780737,4.03139257 C19.354456,4.37677049 18.6007701,4.68667363 17.8854209,4.68667363 C17.5651343,4.68667363 16.8635722,4.82264089 16.2416459,3.95511674 C15.6197196,3.08759259 16.0839196,1.7267909 16.413951,1.40744828 Z" id="路径-33备份" fill="#E3EDFF" filter="url(#filter-7)" mask="url(#mask-2)"></path>
            <path d="M2.84004726,1.40744828 C3.06006819,1.19455321 3.55055815,1.12287449 4.31151714,1.19241213 C5.06686882,1.25810671 5.68324903,1.49762909 6.16065779,1.91097926 C6.53924265,2.23876571 6.53046099,2.57870757 6.62655439,2.79072189 C6.70821816,2.97089957 6.77978744,3.12648439 6.84126224,3.25747632 C6.83227927,3.54316854 6.65324853,3.80114062 6.30417004,4.03139257 C5.78055229,4.37677049 5.02686634,4.68667363 4.31151714,4.68667363 C3.99123055,4.68667363 3.28966846,4.82264089 2.66774216,3.95511674 C2.04581585,3.08759259 2.51001587,1.7267909 2.84004726,1.40744828 Z" id="路径-33备份" fill="#E3EDFF" filter="url(#filter-8)" mask="url(#mask-2)"></path>
        </g>
        <g id="编组" opacity="0.711834136" transform="translate(25.000000, 14.500000) scale(-1, 1) translate(-25.000000, -14.500000) translate(20.000000, 8.000000)">
            <path d="M5.29328309,0.953289986 C5.0011771,1.44660473 4.88353311,1.97653643 4.94035112,2.5430851 C5.02557813,3.3929081 5.26163064,3.47568893 5.51403962,4.09786606 C5.7664486,4.72004318 5.5696843,5.00024223 5.74126477,5.45377827 C5.85565175,5.75613562 6.12724903,5.87498156 6.55605661,5.81031609" id="路径-30" fill="url(#linearGradient-9)" opacity="0.413289388"></path>
            <path d="M0.873579608,2.05901432 C0.952987871,2.12755799 0.748614894,2.3386097 0.873579608,3.13400841 C0.998544322,3.92940712 1.74089013,4.76377201 1.93748723,5.59861851 C2.06855196,6.15518284 2.06855196,6.586538 1.93748723,6.89268398 C1.31320821,6.30753613 0.870697286,5.47110645 0.609954463,4.38339496 C0.218840228,2.75182772 0.794171345,1.99047065 0.873579608,2.05901432 Z" id="路径-32" fill="url(#linearGradient-10)" opacity="0.413289388"></path>
            <path d="M2.46370278,9.16101956 C2.48853519,9.32654929 2.64139202,9.40931416 2.92227326,9.40931416 C3.34359513,9.40931416 3.98435842,9.49458981 4.31284343,9.8795867 C4.64132844,10.2645836 4.53174492,10.6737604 4.92647294,11.1610136 C5.18962495,11.4858491 5.70277238,11.7908607 6.46591524,12.0760486 C7.06730581,12.1370755 7.50219562,12.2433337 7.77058469,12.3948231 C8.03897376,12.5463125 8.21157132,12.6902076 8.28837739,12.8265083 C8.57701233,12.9149833 8.84961075,12.9592207 9.10617267,12.9592207 C9.36273458,12.9592207 9.57584786,12.9204775 9.74551249,12.8429909 C9.69902824,12.6697154 9.55886708,12.5528436 9.325029,12.4923754 C8.97427188,12.4016731 7.14862357,11.6946878 6.41557466,11.2372699 C5.68252574,10.7798519 5.1862465,9.65760875 4.82305585,9.40931416 C4.4598652,9.16101956 3.08164655,9.05480528 2.842826,9.05480528 C2.68361229,9.05480528 2.55723789,9.09021004 2.46370278,9.16101956 Z" id="路径-31" fill="url(#linearGradient-11)"></path>
        </g>
        <g id="编组-2" transform="translate(10.649948, 8.953290)">
            <path d="M4.81830593,5.86197757e-13 C4.52619994,0.493314743 4.40855595,1.02324645 4.46537396,1.58979511 C4.55060097,2.43961811 4.78665348,2.52239895 5.03906246,3.14457607 C5.29147145,3.7667532 5.09470715,4.04695225 5.26628761,4.50048828 C5.38067459,4.80284564 5.65227187,4.92169158 6.08107945,4.8570261" id="路径-30" fill="url(#linearGradient-9)" opacity="0.413289388"></path>
            <path d="M0.398602451,1.10572433 C0.478010714,1.174268 0.273637737,1.38531971 0.398602451,2.18071842 C0.523567165,2.97611713 1.26591297,3.81048203 1.46251007,4.64532852 C1.59357481,5.20189285 1.59357481,5.63324801 1.46251007,5.939394 C0.838231052,5.35424614 0.395720129,4.51781646 0.134977306,3.43010497 C-0.256136929,1.79853773 0.319194187,1.03718067 0.398602451,1.10572433 Z" id="路径-32" fill="url(#linearGradient-10)" opacity="0.413289388"></path>
            <path d="M1.98872563,8.20772958 C2.01355803,8.37325931 2.16641486,8.45602417 2.44729611,8.45602417 C2.86861798,8.45602417 3.50938126,8.54129982 3.83786627,8.92629671 C4.16635128,9.3112936 4.05676777,9.72047043 4.45149578,10.2077236 C4.71464779,10.5325591 5.22779523,10.8375707 5.99093809,11.1227586 C6.59232865,11.1837855 7.02721847,11.2900437 7.29560753,11.4415331 C7.5639966,11.5930225 7.73659417,11.7369176 7.81340023,11.8732183 C8.10203517,11.9616933 8.3746336,12.0059308 8.63119551,12.0059308 C8.88775743,12.0059308 9.10087983,11.9671875 9.27056273,11.8897009 C9.22406022,11.7164254 9.08388993,11.5995536 8.85005184,11.5390854 C8.49929472,11.4483831 6.67364642,10.7413979 5.9405975,10.2839799 C5.20754858,9.82656193 4.71126934,8.70431876 4.34807869,8.45602417 C3.98488804,8.20772958 2.60666939,8.10151529 2.36784884,8.10151529 C2.20863514,8.10151529 2.08226073,8.13692005 1.98872563,8.20772958 Z" id="路径-31" fill="url(#linearGradient-12)"></path>
        </g>
    </g>
</svg>