<?xml version="1.0" encoding="UTF-8"?>
<svg width="24px" height="24px" viewBox="0 0 24 24" version="1.1" xmlns="http://www.w3.org/2000/svg" xmlns:xlink="http://www.w3.org/1999/xlink">
    <title>全部重置</title>
    <g id="web-plan骨性标记（2021/08更新）" stroke="none" stroke-width="1" fill="none" fill-rule="evenodd">
        <g id="10.标记点选中" transform="translate(-1602.000000, -266.000000)" fill="#C9D3E6" fill-rule="nonzero">
            <g id="编组-6" transform="translate(1490.000000, 247.000000)">
                <g id="重置" transform="translate(112.000000, 19.000000)">
                    <path d="M12.0117327,0.503906836 C15.2897701,0.503906836 18.379213,1.90952452 20.5359092,4.28735253 L22.6527976,2.16988749 L23.4844023,8.22657207 L17.4489402,7.37374491 L19.2152849,5.60635817 C17.4053826,3.57254985 14.7891661,2.36719025 12.0117327,2.36719025 C6.70078905,2.36719025 2.37890902,6.68907028 2.37890902,12.000014 C2.37890902,17.3109576 6.70078905,21.6328377 12.0117327,21.6328377 C16.2539252,21.6328377 19.952367,18.9140845 21.2109622,14.8664235 L22.9922143,15.4195492 C21.487525,20.2500236 17.0765824,23.4961211 12.0117327,23.4961211 C5.6718816,23.4961211 0.5156256,18.3398651 0.5156256,12.000014 C0.5156256,5.66016284 5.6718816,0.503906836 12.0117327,0.503906836 Z M13.4288883,6.85713975 C14.0427078,7.06884666 14.6081721,7.39858933 15.0938371,7.82685204 L15.2970017,8.01636842 C15.0619525,8.54838328 15.0678387,9.15289537 15.3071657,9.67699619 L15.3859597,9.83166135 C15.6478309,10.3011279 16.0977084,10.632682 16.6178833,10.7465167 L16.775927,10.7740558 C16.9069924,11.4419084 16.9132215,12.1274042 16.7951961,12.7959954 L16.737008,13.0813988 C16.221512,13.1696033 15.768176,13.4664821 15.4809653,13.8974964 L15.3915237,14.0460336 C15.1386477,14.4993583 15.0705227,15.0300616 15.1962673,15.5287086 L15.252527,15.7139849 C14.7719468,16.1750399 14.2043355,16.5341357 13.5839354,16.7709355 L13.3149174,16.8648744 C12.6979334,16.0688157 11.5524335,15.923647 10.7563713,16.5406322 C10.6755092,16.6033042 10.6001366,16.6726137 10.5310188,16.7477947 L10.4321292,16.8648744 C9.8076414,16.665345 9.23021398,16.3434019 8.73312249,15.9188434 L8.52509885,15.7306648 C8.71244988,15.2288381 8.6933269,14.6757935 8.4767243,14.1910295 L8.39722173,14.0321343 C8.14006446,13.5540815 7.69028575,13.2129944 7.16649376,13.091664 L7.00725429,13.06194 C6.936765,12.7667529 6.89082527,12.4664157 6.86981894,12.1640037 L6.85713796,11.8610982 C6.85701331,11.5945343 6.87582781,11.3284105 6.91339502,11.064733 L6.95720634,10.8019451 C7.51152901,10.7396638 8.006336,10.4345804 8.31148609,9.97437784 L8.39721126,9.83175118 C8.68088099,9.31903943 8.72882169,8.71179441 8.53492093,8.16471769 L8.46948893,8.00255484 C8.93476752,7.54965126 9.48391937,7.19333119 10.0851741,6.9529872 L10.3459521,6.85713975 C10.8898376,7.70846917 12.0208792,7.95770268 12.8722109,7.41381721 C13.0512224,7.29945297 13.2085977,7.15500721 13.3375804,6.98723606 L13.4288883,6.85713975 Z M11.8832168,9.70104001 C10.6949024,9.69493693 9.72660773,10.6532848 9.7204513,11.8416004 L9.7204513,11.861015 C9.72192729,12.9916307 10.5975943,13.9175223 11.708172,13.9986061 L11.861011,14.0043665 C13.0493254,14.0104695 14.0176201,13.0521216 14.0237771,11.8638061 C14.0298802,10.6754918 13.0715323,9.70719706 11.8832168,9.70104001 Z" id="全部重置"></path>
                </g>
            </g>
        </g>
    </g>
</svg>