<?xml version="1.0" encoding="UTF-8"?>
<svg width="40px" height="40px" viewBox="0 0 40 40" version="1.1" xmlns="http://www.w3.org/2000/svg" xmlns:xlink="http://www.w3.org/1999/xlink">
    <title>icon/旋转-向左</title>
    <g id="icon/旋转-向左" stroke="none" stroke-width="1" fill="none" fill-rule="evenodd">
        <path d="M4,0 L36,0 C38.209139,-4.05812251e-16 40,1.790861 40,4 L40,36 C40,38.209139 38.209139,40 36,40 L4,40 C1.790861,40 2.705415e-16,38.209139 0,36 L0,4 C-2.705415e-16,1.790861 1.790861,4.05812251e-16 4,0 Z" id="矩形备份-6"></path>
        <path d="M11.2,17.0062074 L24.8,17.00009 C24.9104569,16.9999503 25.0000402,17.0894531 25.0000899,17.19991 C25.0000899,17.19994 25.0000899,17.19997 25,17.2 L25,30.8 C25,30.9104569 24.9104569,31 24.8,31 L11.2,31 C11.0895431,31 11,30.9104569 11,30.8 L11,17.2062974 C11.00009,17.0958756 11.0895782,17.0063471 11.2,17.0062074 Z" id="矩形" fill="#C9D3E6"></path>
        <path d="M22.9486588,6.31527953 C22.9817113,6.35200448 23,6.39966413 23,6.44907248 L23.0012492,8.92438085 C25.0963311,8.90822293 26.736054,9.3808132 27.9204178,10.3421516 C29.1144378,11.3113279 29.7352743,12.8737077 29.7829273,15.0292911 L29.7858089,15.3570778 C29.7853268,15.4675517 29.6953792,15.5567176 29.5849054,15.5562355 C29.5186884,15.5559466 29.4569055,15.522907 29.419899,15.4679953 C28.4339655,14.0050257 27.4514584,13.0090527 26.4723778,12.4800763 C25.5794687,11.9976566 24.4223686,11.7966439 23.0010773,11.8770383 L23,14.5509275 C23,14.6613845 22.9104569,14.7509275 22.8,14.7509275 C22.7505916,14.7509275 22.702932,14.7326388 22.6662071,14.6995863 L18.1651765,10.6486588 C18.0830745,10.574767 18.0764188,10.4483091 18.1503106,10.3662071 C18.1550018,10.3609946 18.159964,10.3560324 18.1651765,10.3513412 L22.6662071,6.30041365 C22.7483091,6.22652185 22.874767,6.23317753 22.9486588,6.31527953 Z" id="形状结合" fill="#C9D3E6"></path>
    </g>
</svg>