<?xml version="1.0" encoding="UTF-8"?>
<svg width="23px" height="24px" viewBox="0 0 23 24" version="1.1" xmlns="http://www.w3.org/2000/svg" xmlns:xlink="http://www.w3.org/1999/xlink">
    <title>自动提取</title>
    <g id="web-plan骨性标记（2021/08更新）" stroke="none" stroke-width="1" fill="none" fill-rule="evenodd">
        <g id="10.标记点选中" transform="translate(-1519.000000, -266.000000)" fill="#C9D3E6" fill-rule="nonzero">
            <g id="编组-6" transform="translate(1490.000000, 247.000000)">
                <g id="自动提取" transform="translate(29.000000, 19.000000)">
                    <path d="M21.4805723,6.96175349 L21.5556464,7.12720228 C22.2092862,8.56771489 22.5468616,10.1090651 22.5589765,11.7084654 C22.5589765,17.8434022 17.5689629,22.8334159 11.4354088,22.8334159 C10.1648207,22.8334159 8.93928876,22.628087 7.78979523,22.2228659 L6.88649418,23.9779967 L3.96362101,19.4523742 L9.34000227,19.1829129 L8.49534894,20.8217492 C9.43426566,21.1257715 10.4182668,21.2797841 11.4235399,21.2797841 C16.7004288,21.2797841 20.9934572,16.9867323 20.9934572,11.7098668 C20.9934572,10.3407027 20.7068444,9.01351986 20.1415641,7.76519029 L20.0662792,7.59892142 L21.4805723,6.96175349 Z M16.9287209,0.000126562647 L19.6363646,4.64769447 L14.248124,4.67468747 L15.2445658,2.93397295 C14.0296745,2.40695436 12.7451879,2.13990718 11.4235223,2.13990718 C6.14663332,2.13990718 1.85360489,6.43298249 1.85360489,11.7098246 C1.85360489,13.634287 2.41853367,15.4866649 3.48730835,17.066612 L3.58951589,17.2176739 L2.30011205,18.0876562 L2.19825373,17.9363834 C0.956392905,16.0918219 0.299964016,13.9387147 0.299964016,11.7098058 C0.299964016,5.5762518 5.28997764,0.586238182 11.4235316,0.586238182 C13.0342499,0.586238182 14.5806603,0.920227633 16.0227011,1.57923465 L16.9287209,0.000126562647 Z M12.2368803,6 L15.269938,15.4328591 L13.2952133,15.4328591 L12.6328214,13.0098993 L9.57486176,13.0098993 L8.91246985,15.4328591 L7,15.4328591 L10.0206067,6 L12.2368803,6 Z M11.1138023,7.42439161 L11.0639984,7.42439161 C10.8224495,8.45782259 10.5435477,9.52860649 10.2621556,10.5097434 L10.2621556,10.5097434 L9.98076356,11.5431743 L12.2244294,11.5431743 L11.9430373,10.5097434 C11.6491943,9.52860649 11.3951944,8.44288141 11.1138023,7.42439161 L11.1138023,7.42439161 Z"></path>
                </g>
            </g>
        </g>
    </g>
</svg>