<?xml version="1.0" encoding="UTF-8"?>
<svg width="23px" height="24px" viewBox="0 0 23 24" version="1.1" xmlns="http://www.w3.org/2000/svg" xmlns:xlink="http://www.w3.org/1999/xlink">
    <title>编组 2</title>
    <g id="骨性标记" stroke="none" stroke-width="1" fill="none" fill-rule="evenodd">
        <g id="7.骨性标记-工作流说明" transform="translate(-2972.000000, -879.000000)" fill="#C9D3E6" fill-rule="nonzero">
            <g id="编组-19" transform="translate(2932.000000, 614.000000)">
                <g id="编组-2" transform="translate(40.000000, 265.000000)">
                    <g id="自动">
                        <path d="M11.4235516,1.95771322 C12.8506837,1.95771322 14.2301955,2.26688936 15.5027594,2.84962832 L14.5632099,4.49092319 L19.3203248,4.46709356 L16.9299314,0.36404972 L16.0974398,1.81503657 C14.646453,1.12521857 13.0528113,0.76840566 11.4235516,0.76840566 C5.39387268,0.76840566 0.4821404,5.6801145 0.4821404,11.7098168 C0.4821404,13.8981178 1.12432396,16.0150797 2.34936132,17.8346521 L3.33645388,17.168663 C2.24227995,15.5511971 1.67146835,13.6721824 1.67146835,11.7098051 C1.67144491,6.33429104 6.04793438,1.95770782 11.4235422,1.95770782 L11.4235516,1.95771322 Z M21.3897741,7.20242244 L20.307551,7.6899816 C20.878386,8.95063463 21.1756348,10.3064768 21.1756348,11.7097988 C21.1756348,17.0853832 16.7991453,21.4618726 11.4235609,21.4618726 C10.329387,21.4618726 9.2590678,21.2835602 8.23626817,20.926747 L9.0331441,19.3806296 L4.28779483,19.6184806 L6.86864158,23.614579 L7.70113318,21.9970897 C8.8903205,22.4371761 10.1509642,22.6511982 11.4354344,22.6511982 C17.4651133,22.6511982 22.3768456,17.739466 22.3768456,11.7097871 C22.3649659,10.1399345 22.03196,8.61765065 21.3897764,7.20242244 L21.3897741,7.20242244 Z" id="形状"></path>
                        <path d="M6.8864916,23.9779967 L3.96362101,19.4523742 L9.34000227,19.1829129 L8.49534894,20.8217492 C9.43426566,21.1257715 10.4182668,21.2797841 11.4235399,21.2797841 C16.7004288,21.2797841 20.9934572,16.9867323 20.9934572,11.7098668 C20.9934572,10.3407027 20.7068444,9.01351986 20.1415641,7.76519029 L20.0662792,7.59892142 L21.4805723,6.96175349 L21.5556464,7.12720228 C22.2092862,8.56771489 22.5468616,10.1090651 22.5589765,11.7084654 C22.5589765,17.8434022 17.5689629,22.8334159 11.4354088,22.8334159 C10.1648207,22.8334159 8.93928876,22.628087 7.78979523,22.2228659 L6.88649418,23.9779967 L6.8864916,23.9779967 Z M4.61196396,19.7846715 L6.85080562,23.2512224 L7.61302682,21.7702683 L7.76436997,21.8262692 C8.91693381,22.25279 10.1520446,22.4690622 11.4354602,22.4690622 C17.3681077,22.4690622 22.1946914,17.6424784 22.1946914,11.7098309 C22.183421,10.2244237 21.8817184,8.78972593 21.2976224,7.44377905 L20.5473028,7.78179976 C21.0852152,9.0287934 21.357817,10.3493809 21.357817,11.7098121 C21.357817,17.1875841 16.9013353,21.6440659 11.4235633,21.6440659 C10.3060057,21.6440659 9.21347244,21.4605983 8.17629388,21.0987707 L7.97829904,21.0296952 L8.72627492,19.5784271 L4.61196396,19.7846698 L4.61196396,19.7846715 Z M2.30008627,18.0876562 L2.19825373,17.9363834 C0.956392905,16.0918219 0.299964016,13.9387147 0.299964016,11.7098058 C0.299964016,5.5762518 5.28997764,0.586238182 11.4235316,0.586238182 C13.0342499,0.586238182 14.5806603,0.920227633 16.0227011,1.57923465 L16.9287209,0.000126562647 L19.6363646,4.64769447 L14.248124,4.67468747 L15.2445658,2.93397295 C14.0296745,2.40695436 12.7451879,2.13990718 11.4235223,2.13990718 C6.14663332,2.13990718 1.85360489,6.43298249 1.85360489,11.7098246 C1.85360489,13.634287 2.41853367,15.4866649 3.48730835,17.066612 L3.58951589,17.2176739 L2.30011205,18.0876562 L2.30008627,18.0876562 Z M11.4235422,0.950581575 C5.49089467,0.950581575 0.664310925,5.77716532 0.664310925,11.7098128 C0.664310925,13.80502 1.26377959,15.8307864 2.39991841,17.5807962 L3.08479343,17.1187301 C2.04034221,15.5119962 1.48930485,13.6460151 1.48930485,11.7098175 C1.48930485,6.23206897 5.9457866,1.77556378 11.4235586,1.77556378 C12.8642822,1.77556378 14.2622416,2.0812032 15.5786103,2.68399765 L15.759969,2.76703845 L14.8783172,4.30720509 L19.0043532,4.28653865 L16.9311234,0.728018886 L16.1715015,2.05198371 L16.0191976,1.97958073 C14.5830209,1.29679166 13.0368191,0.950593598 11.4235438,0.950593598 L11.4235422,0.950581575 Z" id="形状"></path>
                    </g>
                    <g id="自动" transform="translate(7.000000, 6.000000)">
                        <path d="M3.02060668,-1.42108547e-14 L-2.48689958e-14,9.43285912 L1.91246985,9.43285912 L2.57486176,7.00989927 L5.63282137,7.00989927 L6.29521327,9.43285912 L8.269938,9.43285912 L5.23688034,-1.42108547e-14 L3.02060668,-1.42108547e-14 Z M2.98076356,5.54317434 L3.26215561,4.50974337 C3.54354766,3.52860649 3.82244951,2.45782259 4.06399844,1.42439161 L4.11380234,1.42439161 C4.39519439,2.44288141 4.64919429,3.52860649 4.94303732,4.50974337 L5.22442937,5.54317434 L2.98076356,5.54317434 L2.98076356,5.54317434 Z" id="形状"></path>
                    </g>
                </g>
            </g>
        </g>
    </g>
</svg>