<?xml version="1.0" encoding="UTF-8"?>
<svg width="40px" height="40px" viewBox="0 0 40 40" version="1.1" xmlns="http://www.w3.org/2000/svg" xmlns:xlink="http://www.w3.org/1999/xlink">
    <title>icon/骨接触视图</title>
    <g id="icon/骨接触视图" stroke="none" stroke-width="1" fill="none" fill-rule="evenodd">
        <path d="M4,0 L36,0 C38.209139,-4.05812251e-16 40,1.790861 40,4 L40,36 C40,38.209139 38.209139,40 36,40 L4,40 C1.790861,40 2.705415e-16,38.209139 0,36 L0,4 C-2.705415e-16,1.790861 1.790861,4.05812251e-16 4,0 Z" id="矩形备份-6"></path>
        <path d="M16.1867201,8.83462642 C16.7514331,9.2548582 17.1586353,10.1432953 17.6534359,11.1974781 C17.9532807,11.8363034 16.67312,12.1984279 16.9371328,12.9280174 C17.0237178,13.1672915 17.2152252,13.6266951 17.0394619,13.8931258 C16.9032295,14.0996334 16.4943457,14.1155765 16.2890491,14.292481 C15.9318154,14.6003101 15.9357052,15.0873398 16.0502814,15.5903855 C16.1867201,16.1894183 16.4937071,17.1545268 18.1309713,18.718668 C18.8851892,19.4392013 19.9221796,18.899046 19.9046741,19.217862 C19.8860238,19.5575298 20.0827324,20.4101408 19.7682355,20.9816809 C19.6136496,21.2626122 19.2914627,21.3136642 19.0519324,21.5474341 C18.4226897,22.1615442 17.7062338,22.7880284 17.1759005,22.812059 C16.5776465,22.8391672 15.5726053,22.5033057 15.1293203,21.7471117 C14.7497392,21.0995893 14.921656,20.0453889 14.5494559,19.7503357 C13.9630527,19.2854777 13.0639263,21.5480613 13.2191788,24.8421147 C13.2855756,26.2508811 13.6556824,28.3036314 14.3294992,31.0003655 L12.4625207,30.9991696 C12.0386194,28.9721054 11.5515254,28.1771603 11.2067082,26.6392131 C10.7291729,24.5093186 10.496101,22.5390512 9.67177309,21.9135097 C9.36478606,21.6805525 9.22834738,21.5474341 9.22834738,21.3477565 C9.22834738,21.1480789 9.22834738,20.5823257 9.0919087,20.3826481 C8.97789456,20.2157887 8.87598085,19.3657519 9.39889573,18.8185068 C9.50174376,18.7108735 9.61713027,18.556817 9.7741021,18.4857108 C9.96621305,18.398687 10.1135688,18.6436212 10.3198568,18.718668 C10.5929636,18.8180232 11.8632815,18.8613716 11.9912307,18.6521088 C12.0709047,18.5218008 11.8610187,18.2571088 11.8889017,18.053076 C11.9009433,17.9649611 12.2484925,17.6950501 12.3323274,17.3542044 C12.3980286,17.0870843 12.2002638,16.7521891 12.2299984,16.5887735 C12.2595636,16.4262885 10.1151988,13.7600074 10.1151988,10.8314025 C10.1151988,10.2656493 10.9338309,8.1357548 13.8331529,8.00263639 C14.71438,7.96217605 15.5948199,8.39416327 16.1867201,8.83462642 Z M26.1668471,8.00263639 C29.0661691,8.1357548 29.8848012,10.2656493 29.8848012,10.8314025 C29.8848012,13.7600074 27.7404364,16.4262885 27.7700016,16.5887735 C27.7997362,16.7521891 27.6019714,17.0870843 27.6676726,17.3542044 C27.7515075,17.6950501 28.0990567,17.9649611 28.1110983,18.053076 C28.1389813,18.2571088 27.9290953,18.5218008 28.0087693,18.6521088 C28.1367185,18.8613716 29.4070364,18.8180232 29.6801432,18.718668 C29.8864312,18.6436212 30.033787,18.398687 30.2258979,18.4857108 C30.3828697,18.556817 30.4982562,18.7108735 30.6011043,18.8185068 C31.1240192,19.3657519 31.0221054,20.2157887 30.9080913,20.3826481 C30.7716526,20.5823257 30.7716526,21.1480789 30.7716526,21.3477565 C30.7716526,21.5474341 30.6352139,21.6805525 30.3282269,21.9135097 C29.503899,22.5390512 29.2708271,24.5093186 28.7932918,26.6392131 C28.4484746,28.1771603 27.9613806,28.9721054 27.5374793,30.9991696 L25.6705008,31.0003655 C26.3443176,28.3036314 26.7144244,26.2508811 26.7808212,24.8421147 C26.9360737,21.5480613 26.0369473,19.2854777 25.4505441,19.7503357 C25.078344,20.0453889 25.2502608,21.0995893 24.8706797,21.7471117 C24.4273947,22.5033057 23.4223535,22.8391672 22.8240995,22.812059 C22.2937662,22.7880284 21.5773103,22.1615442 20.9480676,21.5474341 C20.7085373,21.3136642 20.3863504,21.2626122 20.2317645,20.9816809 C19.9172676,20.4101408 20.1139762,19.5575298 20.0953259,19.217862 C20.0778204,18.899046 21.1148108,19.4392013 21.8690287,18.718668 C23.5062929,17.1545268 23.8132799,16.1894183 23.9497186,15.5903855 C24.0642948,15.0873398 24.0681846,14.6003101 23.7109509,14.292481 C23.5056543,14.1155765 23.0967705,14.0996334 22.9605381,13.8931258 C22.7847748,13.6266951 22.9762822,13.1672915 23.0628672,12.9280174 C23.32688,12.1984279 22.0467193,11.8363034 22.3465641,11.1974781 C22.8413647,10.1432953 23.2485669,9.2548582 23.8132799,8.83462642 C24.4051801,8.39416327 25.28562,7.96217605 26.1668471,8.00263639 Z M16.7665845,19.1845824 C16.5189703,19.3769979 16.6642555,19.8874787 16.6642555,20.2495297 C16.6642555,20.8376838 16.9895262,21.3810361 17.5169972,21.3810361 C17.7790776,21.3810361 17.9242917,21.2063904 18.0968616,21.1480789 C18.2716113,21.0890309 18.472068,21.1444852 18.472068,20.8485625 C18.472068,20.2604084 17.9945326,19.6837765 17.5511069,19.4175396 C17.3693218,19.3083942 16.9212212,19.0644177 16.7665845,19.1845824 Z M22.4488931,19.4175396 C22.0054674,19.6837765 21.527932,20.2604084 21.527932,20.8485625 C21.527932,21.1444852 21.7283887,21.0890309 21.9031384,21.1480789 C22.0757083,21.2063904 22.2209224,21.3810361 22.4830028,21.3810361 C23.0104738,21.3810361 23.3357445,20.8376838 23.3357445,20.2495297 C23.3357445,19.8874787 23.4810297,19.3769979 23.2334155,19.1845824 C23.0787788,19.0644177 22.6306782,19.3083942 22.4488931,19.4175396 Z" id="形状结合" fill-opacity="0.25" fill="#C9D3E6"></path>
        <g id="编组-11" transform="translate(27.000000, 22.000000) rotate(-39.000000) translate(-27.000000, -22.000000) translate(22.000000, 16.000000)" fill="#C9D3E6">
            <path d="M8.09074715,2.32274568 C9.14519838,2.32274568 10,2.12918354 10,1.49319365 C10,0.653253937 9.14519838,0 8.09074715,0 C7.03629592,0 6.1814943,0.653253937 6.1814943,1.49319365 C6.1814943,2.12918354 7.03629592,2.32274568 8.09074715,2.32274568 Z" id="椭圆形"></path>
            <path d="M8.43168516,2.00014211 L8.43210599,3.1564578 C8.79073802,3.28643273 9.04537357,3.61522095 9.04537357,4.00028422 C9.04537357,4.08905109 9.01570097,4.45579673 9.13051625,4.71857027 C9.27965119,5.05988995 9.56928185,5.3265829 9.42173396,5.61784183 C9.16059262,6.13333378 2.77733569,10.585419 0.8167228,11.9608508 C0.47673102,12.1993657 0.019295381,11.2700862 0.00595058523,11.2700862 C-0.165583967,11.2700862 3.41381301,8.53068427 5.26297922,6.37230002 C6.04735312,5.45676292 6.34575531,4.34957649 6.3328812,4.33191861 C6.22674084,4.18633853 7.13612072,4.19052507 7.13612072,4.00028422 C7.13612072,3.61522095 7.39075628,3.28643273 7.74938831,3.1564578 L7.74980914,2.00014211 L8.43168516,2.00014211 Z" id="形状结合"></path>
            <ellipse id="椭圆形" cx="8.09074715" cy="2.00014211" rx="1" ry="1"></ellipse>
        </g>
        <g id="编组-11备份" transform="translate(13.000000, 22.000000) scale(-1, 1) rotate(-39.000000) translate(-13.000000, -22.000000) translate(8.000000, 16.000000)" fill="#C9D3E6">
            <path d="M8.09074715,2.32274568 C9.14519838,2.32274568 10,2.12918354 10,1.49319365 C10,0.653253937 9.14519838,3.41060513e-13 8.09074715,3.41060513e-13 C7.03629592,3.41060513e-13 6.1814943,0.653253937 6.1814943,1.49319365 C6.1814943,2.12918354 7.03629592,2.32274568 8.09074715,2.32274568 Z" id="椭圆形"></path>
            <path d="M8.43168516,2.00014211 L8.43210599,3.1564578 C8.79073802,3.28643273 9.04537357,3.61522095 9.04537357,4.00028422 C9.04537357,4.08905109 9.01570097,4.45579673 9.13051625,4.71857027 C9.27965119,5.05988995 9.56928185,5.3265829 9.42173396,5.61784183 C9.16059262,6.13333378 2.77733569,10.585419 0.8167228,11.9608508 C0.47673102,12.1993657 0.019295381,11.2700862 0.00595058523,11.2700862 C-0.165583967,11.2700862 3.41381301,8.53068427 5.26297922,6.37230002 C6.04735312,5.45676292 6.34575531,4.34957649 6.3328812,4.33191861 C6.22674084,4.18633853 7.13612072,4.19052507 7.13612072,4.00028422 C7.13612072,3.61522095 7.39075628,3.28643273 7.74938831,3.1564578 L7.74980914,2.00014211 L8.43168516,2.00014211 Z" id="形状结合"></path>
            <ellipse id="椭圆形" cx="8.09074715" cy="2.00014211" rx="1" ry="1"></ellipse>
        </g>
    </g>
</svg>