<?xml version="1.0" encoding="UTF-8"?>
<svg width="40px" height="40px" viewBox="0 0 40 40" version="1.1" xmlns="http://www.w3.org/2000/svg" xmlns:xlink="http://www.w3.org/1999/xlink">
    <title>icon/chongzhi</title>
    <g id="icon/chongzhi" stroke="none" stroke-width="1" fill="none" fill-rule="evenodd">
        <path d="M19.8075746,9 C25.9847593,9 31,13.9205567 31,20 C31,26.0794433 25.9847593,31 19.8075746,31 C14.8741857,31 10.5705016,27.8348611 9.12421009,23.2888356 L9.0981008,23.2027755 C9.06603318,23.0970759 9.1257237,22.9853935 9.2314233,22.9533259 C9.23228153,22.9530655 9.2331415,22.9528109 9.23400316,22.9525621 L10.7708928,22.5087818 C10.8756345,22.4784791 10.9853216,22.5376897 11.0175143,22.641866 C11.0270308,22.6726617 11.0353836,22.6991779 11.0425725,22.7214147 C12.237951,26.4189633 15.7615596,29 19.8075746,29 C24.8886321,29 29,24.9662517 29,20 C29,15.0337483 24.8886321,11 19.8075746,11 C16.7841185,11 14.0149435,12.439142 12.3073157,14.7950331 L15.0181491,16.3604003 C15.1138077,16.4156287 15.1465827,16.5379468 15.0913542,16.6336053 C15.0666501,16.6763942 15.0269817,16.7085243 14.979995,16.7238028 L9.22127357,18.5963459 C9.11623039,18.6305024 9.00338673,18.5730374 8.96923022,18.4679942 C8.96706169,18.4613253 8.96524541,18.4545468 8.96378892,18.4476871 L7.70609807,12.5242165 C7.6831569,12.4161682 7.75214987,12.3099802 7.86019819,12.287039 C7.90852915,12.2767772 7.95894798,12.2847686 8.00173687,12.3094727 L10.5666959,13.79 L10.5815351,13.7706949 C12.6523959,10.8118191 16.074146,9 19.8075746,9 Z" id="形状结合" fill="#C9D3E6"></path>
    </g>
</svg>