<?xml version="1.0" encoding="UTF-8"?>
<svg width="22px" height="21px" viewBox="0 0 22 21" version="1.1" xmlns="http://www.w3.org/2000/svg" xmlns:xlink="http://www.w3.org/1999/xlink">
    <title>顺时针旋转</title>
    <g id="web-plan假体规划（2021/08更新）" stroke="none" stroke-width="1" fill="none" fill-rule="evenodd">
        <g id="20.位调整方向盘交互说明" transform="translate(-556.000000, -249.000000)" fill="#C9D3E6" fill-rule="nonzero">
            <g id="编组-8" transform="translate(437.000000, 179.000000)">
                <g id="旋转" transform="translate(119.000000, 70.000000)">
                    <path d="M21.4805556,3.11102474 C21.4805556,2.84551764 21.2163266,2.7127641 21.0842122,2.97827119 L19.630953,4.4385602 C18.8382663,3.37653183 17.913465,2.447257 16.8565493,1.78348927 C14.7427179,0.455953802 12.1004286,-0.207813931 9.72236819,0.0576931623 C7.21219336,0.323200256 4.834133,1.51798218 3.24875942,3.24377828 C1.92761478,4.57131375 1.00281352,6.42986341 0.606470128,8.15565951 C0.474355663,8.6866737 0.870699057,9.08493434 1.26704245,9.08493434 L2.72030156,9.08493434 C2.98453049,9.08493434 3.24875942,8.81942725 3.24875942,8.55392015 C3.64510282,7.35913823 4.30567514,6.16435631 5.23047639,5.36783503 C6.55162104,4.17305311 8.13699462,3.37653183 9.85448266,3.37653183 C11.5719707,3.24377828 13.2894587,3.77479247 14.6106034,4.83682084 C15.5354046,5.50058858 16.195977,6.29710986 16.7244348,7.22638469 L15.2711757,8.81942725 C15.1390612,8.95218079 15.2711757,9.21768789 15.4032902,9.21768789 L21.0842122,9.21768789 C21.3484411,9.08493434 21.4805556,8.95218079 21.4805556,8.81942725 L21.4805556,3.11102474 L21.4805556,3.11102474 Z M8.79756694,18.1121755 C8.13699462,17.979422 7.47642229,17.7139149 6.81584997,17.3156542 C6.55162104,17.1829007 6.15527765,17.1829007 5.89104872,17.4484078 L5.09836193,18.5104362 C4.834133,18.7759433 4.96624746,19.3069574 5.23047639,19.439711 C6.15527765,19.9707252 7.0800789,20.3689858 8.13699462,20.6344929 C8.53333801,20.7672465 8.92968141,20.5017394 8.92968141,20.1034787 L9.19391034,18.7759433 C9.3260248,18.5104362 9.19391034,18.2449291 8.79756694,18.1121755 Z M15.2711757,17.8466684 C15.1390612,17.5811613 14.7427179,17.4484078 14.3463745,17.5811613 C13.6858021,17.8466684 13.0252298,18.1121755 12.232543,18.2449291 C11.8361996,18.2449291 11.5719707,18.6431897 11.7040852,18.9086968 L11.8361996,20.2362323 C11.8361996,20.6344929 12.232543,20.9 12.6288864,20.9 C13.6858021,20.7672465 14.6106034,20.3689858 15.6675191,19.9707252 C16.0638625,19.8379716 16.0638625,19.439711 15.931748,19.0414503 L15.2711757,17.8466684 Z M20.2915254,13.2002943 L18.9703807,13.2002943 C18.7061518,13.2002943 18.4419229,13.3330478 18.3098084,13.5985549 C18.0455795,14.2623227 17.5171216,15.0588439 17.1207782,15.5898581 C16.8565493,15.8553652 16.8565493,16.2536259 17.1207782,16.519133 L18.0455795,17.4484078 C18.3098084,17.7139149 18.7061518,17.7139149 18.9703807,17.4484078 C19.7630675,16.519133 20.4236398,15.4571046 20.8199832,14.1295691 C21.0842122,13.5985549 20.6878688,13.2002943 20.2915254,13.2002943 Z M3.38087389,13.5985549 C3.24875942,13.3330478 2.98453049,13.2002943 2.85241603,13.2002943 L1.39915692,13.2002943 C0.870699057,13.2002943 0.606470128,13.7313085 0.738584593,14.1295691 C1.13492799,15.0588439 1.53127138,15.8553652 2.05972924,16.6518865 C2.32395817,16.9173936 2.72030156,17.0501471 2.98453049,16.7846401 L4.04144621,15.9881188 C4.30567514,15.7226117 4.30567514,15.324351 4.17356068,15.0588439 C3.90933175,14.5278298 3.64510282,13.9968156 3.38087389,13.5985549 L3.38087389,13.5985549 Z" id="顺时针旋转"></path>
                </g>
            </g>
        </g>
    </g>
</svg>