<?xml version="1.0" encoding="UTF-8"?>
<svg width="40px" height="40px" viewBox="0 0 40 40" version="1.1" xmlns="http://www.w3.org/2000/svg" xmlns:xlink="http://www.w3.org/1999/xlink">
    <title>icon/旋转-向右</title>
    <g id="icon/旋转-向右" stroke="none" stroke-width="1" fill="none" fill-rule="evenodd">
        <path d="M4,0 L36,0 C38.209139,-4.05812251e-16 40,1.790861 40,4 L40,36 C40,38.209139 38.209139,40 36,40 L4,40 C1.790861,40 2.705415e-16,38.209139 0,36 L0,4 C-2.705415e-16,1.790861 1.790861,4.05812251e-16 4,0 Z" id="矩形备份-6"></path>
        <path d="M15.2,17.0062074 L28.8,17.00009 C28.9104569,16.9999503 29.0000402,17.0894531 29.0000899,17.19991 C29.0000899,17.19994 29.0000899,17.19997 29,17.2 L29,30.8 C29,30.9104569 28.9104569,31 28.8,31 L15.2,31 C15.0895431,31 15,30.9104569 15,30.8 L15,17.2062974 C15.00009,17.0958756 15.0895782,17.0063471 15.2,17.0062074 Z" id="矩形" fill="#C9D3E6"></path>
        <path d="M14.9486588,6.31527953 C14.9817113,6.35200448 15,6.39966413 15,6.44907248 L15.0012492,8.92438085 C17.0963311,8.90822293 18.736054,9.3808132 19.9204178,10.3421516 C21.1144378,11.3113279 21.7352743,12.8737077 21.7829273,15.0292911 L21.7858089,15.3570778 C21.7853268,15.4675517 21.6953792,15.5567176 21.5849054,15.5562355 C21.5186884,15.5559466 21.4569055,15.522907 21.419899,15.4679953 C20.4339655,14.0050257 19.4514584,13.0090527 18.4723778,12.4800763 C17.5794687,11.9976566 16.4223686,11.7966439 15.0010773,11.8770383 L15,14.5509275 C15,14.6613845 14.9104569,14.7509275 14.8,14.7509275 C14.7505916,14.7509275 14.702932,14.7326388 14.6662071,14.6995863 L10.1651765,10.6486588 C10.0830745,10.574767 10.0764188,10.4483091 10.1503106,10.3662071 C10.1550018,10.3609946 10.159964,10.3560324 10.1651765,10.3513412 L14.6662071,6.30041365 C14.7483091,6.22652185 14.874767,6.23317753 14.9486588,6.31527953 Z" id="形状结合" fill="#C9D3E6" transform="translate(15.942388, 10.902654) scale(-1, 1) translate(-15.942388, -10.902654) "></path>
    </g>
</svg>