<?xml version="1.0" standalone="no"?><!DOCTYPE svg PUBLIC "-//W3C//DTD SVG 1.1//EN" "http://www.w3.org/Graphics/SVG/1.1/DTD/svg11.dtd"><svg t="1604728441701" class="icon" viewBox="0 0 1024 1024" version="1.1" xmlns="http://www.w3.org/2000/svg" p-id="7851" width="32" height="32" xmlns:xlink="http://www.w3.org/1999/xlink"><defs><style type="text/css"></style></defs><path d="M503 89c245.214 0 444 198.786 444 444S748.214 977 503 977 59 778.214 59 533 257.786 89 503 89z m0 59.813c-212.18 0-384.187 172.007-384.187 384.187S290.82 917.187 503 917.187 887.187 745.18 887.187 533 715.18 148.813 503 148.813z m1.15 257.659c18.423 0 33.358 14.934 33.358 33.357v331.275c0 18.422-14.935 33.357-33.358 33.357-18.423 0-33.357-14.935-33.357-33.357V439.829c0-18.423 14.934-33.357 33.357-33.357zM503 256.938c24.14 0 43.71 19.054 43.71 42.56 0 23.504-19.57 42.559-43.71 42.559s-43.71-19.055-43.71-42.56c0-23.505 19.57-42.56 43.71-42.56z" fill="#04856F" p-id="7852"></path></svg>