<?xml version="1.0" encoding="UTF-8"?>
<svg width="40px" height="40px" viewBox="0 0 40 40" version="1.1" xmlns="http://www.w3.org/2000/svg" xmlns:xlink="http://www.w3.org/1999/xlink">
    <title>icon/header/data</title>
    <defs>
        <filter x="1.3%" y="0.2%" width="97.4%" height="99.6%" filterUnits="objectBoundingBox" id="filter-1">
            <feGaussianBlur stdDeviation="0" in="SourceGraphic"></feGaussianBlur>
        </filter>
        <filter x="1.0%" y="0.2%" width="98.0%" height="99.5%" filterUnits="objectBoundingBox" id="filter-2">
            <feGaussianBlur stdDeviation="0" in="SourceGraphic"></feGaussianBlur>
        </filter>
        <filter x="1.3%" y="0.2%" width="97.4%" height="99.6%" filterUnits="objectBoundingBox" id="filter-3">
            <feGaussianBlur stdDeviation="0" in="SourceGraphic"></feGaussianBlur>
        </filter>
        <path d="M0.459353727,16.4496628 L12.497485,10.762715 C12.5623893,10.7320534 12.6376107,10.7320534 12.702515,10.762715 L24.7406463,16.4496628 C24.8604942,16.5062803 24.9117526,16.6493338 24.8551351,16.7691817 C24.8313858,16.8194541 24.7909187,16.8599213 24.7406463,16.8836705 L12.702515,22.5706184 C12.6376107,22.6012799 12.5623893,22.6012799 12.497485,22.5706184 L0.459353727,16.8836705 C0.339505816,16.827053 0.288247435,16.6839995 0.344864929,16.5641516 C0.368614182,16.5138792 0.409081309,16.4734121 0.459353727,16.4496628 Z" id="path-4"></path>
        <filter x="-32.5%" y="-54.4%" width="164.9%" height="242.4%" filterUnits="objectBoundingBox" id="filter-5">
            <feOffset dx="0" dy="2" in="SourceAlpha" result="shadowOffsetOuter1"></feOffset>
            <feGaussianBlur stdDeviation="2.5" in="shadowOffsetOuter1" result="shadowBlurOuter1"></feGaussianBlur>
            <feComposite in="shadowBlurOuter1" in2="SourceAlpha" operator="out" result="shadowBlurOuter1"></feComposite>
            <feColorMatrix values="0 0 0 0 0.0235619438   0 0 0 0 0.0407606734   0 0 0 0 0.0808910425  0 0 0 0.6 0" type="matrix" in="shadowBlurOuter1"></feColorMatrix>
        </filter>
        <filter x="-32.5%" y="-54.4%" width="164.9%" height="242.4%" filterUnits="objectBoundingBox" id="filter-6">
            <feGaussianBlur stdDeviation="2.5" in="SourceAlpha" result="shadowBlurInner1"></feGaussianBlur>
            <feOffset dx="0" dy="2" in="shadowBlurInner1" result="shadowOffsetInner1"></feOffset>
            <feComposite in="shadowOffsetInner1" in2="SourceAlpha" operator="arithmetic" k2="-1" k3="1" result="shadowInnerInner1"></feComposite>
            <feColorMatrix values="0 0 0 0 0.988235294   0 0 0 0 0.988235294   0 0 0 0 0.992156863  0 0 0 0.299142264 0" type="matrix" in="shadowInnerInner1"></feColorMatrix>
        </filter>
        <path d="M0.409816969,11.0965615 L12.4893336,4.81941279 C12.5587074,4.78336257 12.6412926,4.78336257 12.7106664,4.81941279 L24.790183,11.0965615 C24.9077989,11.1576808 24.9535983,11.3025743 24.892479,11.4201902 C24.8697137,11.4639989 24.8339917,11.4997209 24.790183,11.5224861 L12.7106664,17.7996348 C12.6412926,17.835685 12.5587074,17.835685 12.4893336,17.7996348 L0.409816969,11.5224861 C0.29220112,11.4613668 0.246401657,11.3164733 0.307521003,11.1988574 C0.330286294,11.1550487 0.366008272,11.1193268 0.409816969,11.0965615 Z" id="path-7"></path>
        <filter x="-32.6%" y="-49.4%" width="165.2%" height="229.4%" filterUnits="objectBoundingBox" id="filter-8">
            <feOffset dx="0" dy="2" in="SourceAlpha" result="shadowOffsetOuter1"></feOffset>
            <feGaussianBlur stdDeviation="2.5" in="shadowOffsetOuter1" result="shadowBlurOuter1"></feGaussianBlur>
            <feComposite in="shadowBlurOuter1" in2="SourceAlpha" operator="out" result="shadowBlurOuter1"></feComposite>
            <feColorMatrix values="0 0 0 0 0.0235619438   0 0 0 0 0.0407606734   0 0 0 0 0.0808910425  0 0 0 0.6 0" type="matrix" in="shadowBlurOuter1"></feColorMatrix>
        </filter>
        <filter x="-32.6%" y="-49.4%" width="165.2%" height="229.4%" filterUnits="objectBoundingBox" id="filter-9">
            <feGaussianBlur stdDeviation="2.5" in="SourceAlpha" result="shadowBlurInner1"></feGaussianBlur>
            <feOffset dx="0" dy="2" in="shadowBlurInner1" result="shadowOffsetInner1"></feOffset>
            <feComposite in="shadowOffsetInner1" in2="SourceAlpha" operator="arithmetic" k2="-1" k3="1" result="shadowInnerInner1"></feComposite>
            <feColorMatrix values="0 0 0 0 0.988235294   0 0 0 0 0.988235294   0 0 0 0 0.992156863  0 0 0 0.299142264 0" type="matrix" in="shadowInnerInner1"></feColorMatrix>
        </filter>
        <path d="M0.459353727,5.73537711 L12.497485,0.0484292523 C12.5623893,0.0177677048 12.6376107,0.0177677048 12.702515,0.0484292523 L24.7406463,5.73537711 C24.8604942,5.79199461 24.9117526,5.93504808 24.8551351,6.05489599 C24.8313858,6.10516841 24.7909187,6.14563554 24.7406463,6.16938479 L12.702515,11.8563327 C12.6376107,11.8869942 12.5623893,11.8869942 12.497485,11.8563327 L0.459353727,6.16938479 C0.339505816,6.1127673 0.288247435,5.96971382 0.344864929,5.84986591 C0.368614182,5.79959349 0.409081309,5.75912637 0.459353727,5.73537711 Z" id="path-10"></path>
        <filter x="-32.5%" y="-54.4%" width="164.9%" height="242.4%" filterUnits="objectBoundingBox" id="filter-11">
            <feOffset dx="0" dy="2" in="SourceAlpha" result="shadowOffsetOuter1"></feOffset>
            <feGaussianBlur stdDeviation="2.5" in="shadowOffsetOuter1" result="shadowBlurOuter1"></feGaussianBlur>
            <feComposite in="shadowBlurOuter1" in2="SourceAlpha" operator="out" result="shadowBlurOuter1"></feComposite>
            <feColorMatrix values="0 0 0 0 0.0235619438   0 0 0 0 0.0407606734   0 0 0 0 0.0808910425  0 0 0 0.6 0" type="matrix" in="shadowBlurOuter1"></feColorMatrix>
        </filter>
        <filter x="-32.5%" y="-54.4%" width="164.9%" height="242.4%" filterUnits="objectBoundingBox" id="filter-12">
            <feGaussianBlur stdDeviation="2.5" in="SourceAlpha" result="shadowBlurInner1"></feGaussianBlur>
            <feOffset dx="0" dy="2" in="shadowBlurInner1" result="shadowOffsetInner1"></feOffset>
            <feComposite in="shadowOffsetInner1" in2="SourceAlpha" operator="arithmetic" k2="-1" k3="1" result="shadowInnerInner1"></feComposite>
            <feColorMatrix values="0 0 0 0 0.988235294   0 0 0 0 0.988235294   0 0 0 0 0.992156863  0 0 0 0.299142264 0" type="matrix" in="shadowInnerInner1"></feColorMatrix>
        </filter>
        <linearGradient x1="50%" y1="0%" x2="50%" y2="100%" id="linearGradient-13">
            <stop stop-color="#C9D3E6" offset="0%"></stop>
            <stop stop-color="#B2BED3" offset="44.0787724%"></stop>
            <stop stop-color="#91A1BF" offset="100%"></stop>
        </linearGradient>
        <path d="M22.8,17.8571429 C26.6952982,17.8571429 29.868113,20.9259116 29.9959932,24.7594302 L30,25 L15.6,25 C15.6,24.8456007 15.604938,24.6923455 15.614666,24.5403815 C15.8534868,20.809677 18.9791843,17.8571429 22.8,17.8571429 Z M22.8,10.7142857 C24.7882251,10.7142857 26.4,12.3132688 26.4,14.2857143 C26.4,16.2581598 24.7882251,17.8571429 22.8,17.8571429 C20.8117749,17.8571429 19.2,16.2581598 19.2,14.2857143 C19.2,12.3132688 20.8117749,10.7142857 22.8,10.7142857 Z" id="path-14"></path>
        <filter x="-10.4%" y="-10.5%" width="120.8%" height="121.0%" filterUnits="objectBoundingBox" id="filter-15">
            <feOffset dx="0" dy="0" in="SourceAlpha" result="shadowOffsetOuter1"></feOffset>
            <feGaussianBlur stdDeviation="0.5" in="shadowOffsetOuter1" result="shadowBlurOuter1"></feGaussianBlur>
            <feColorMatrix values="0 0 0 0 0.0235619438   0 0 0 0 0.0407606734   0 0 0 0 0.0808910425  0 0 0 0.5 0" type="matrix" in="shadowBlurOuter1"></feColorMatrix>
        </filter>
    </defs>
    <g id="icon/header/data" stroke="none" stroke-width="1" fill="none" fill-rule="evenodd">
        <path d="M4,0 L36,0 C38.209139,-4.05812251e-16 40,1.790861 40,4 L40,36 C40,38.209139 38.209139,40 36,40 L4,40 C1.790861,40 2.705415e-16,38.209139 0,36 L0,4 C-2.705415e-16,1.790861 1.790861,4.05812251e-16 4,0 Z" id="矩形备份-6"></path>
        <g id="编组" transform="translate(6.000000, 8.000000)">
            <path d="M6.24258803,15.9620364 L12.5506709,13.1174824 C12.5820362,13.1033386 12.6179638,13.1033386 12.6493291,13.1174824 L18.957412,15.9620364 C19.0178276,15.9892801 19.0447187,16.060342 19.017475,16.1207576 C19.0054466,16.147432 18.9840863,16.1687922 18.957412,16.1808207 L12.6493291,19.0253747 C12.6179638,19.0395185 12.5820362,19.0395185 12.5506709,19.0253747 L6.24258803,16.1808207 C6.18217242,16.153577 6.15528126,16.0825151 6.18252495,16.0220995 C6.19455343,15.9954252 6.21591368,15.9740649 6.24258803,15.9620364 Z" id="矩形备份-2" fill="#A2C2FF" filter="url(#filter-1)"></path>
            <path d="M6.19503597,11.799223 L12.5428902,8.36423691 C12.5785222,8.34495551 12.6214778,8.34495551 12.6571098,8.36423691 L19.004964,11.799223 C19.0632516,11.8307638 19.084934,11.9035842 19.0533932,11.9618717 C19.0422975,11.9823766 19.0254689,11.9992051 19.004964,12.0103008 L12.6571098,15.4452869 C12.6214778,15.4645683 12.5785222,15.4645683 12.5428902,15.4452869 L6.19503597,12.0103008 C6.13674842,11.97876 6.11506596,11.9059396 6.14660684,11.8476521 C6.15770254,11.8271472 6.17453111,11.8103187 6.19503597,11.799223 Z" id="矩形备份" fill="#A2C2FF" filter="url(#filter-2)"></path>
            <path d="M6.24258803,6.4382269 L12.5506709,3.59367292 C12.5820362,3.57952912 12.6179638,3.57952912 12.6493291,3.59367292 L18.957412,6.4382269 C19.0178276,6.46547059 19.0447187,6.5365325 19.017475,6.59694812 C19.0054466,6.62362247 18.9840863,6.64498272 18.957412,6.6570112 L12.6493291,9.50156517 C12.6179638,9.51570897 12.5820362,9.51570897 12.5506709,9.50156517 L6.24258803,6.6570112 C6.18217242,6.6297675 6.15528126,6.55870559 6.18252495,6.49828998 C6.19455343,6.47161563 6.21591368,6.45025537 6.24258803,6.4382269 Z" id="矩形" fill="#A2C2FF" filter="url(#filter-3)"></path>
            <g id="矩形备份-2">
                <use fill="black" fill-opacity="1" filter="url(#filter-5)" xlink:href="#path-4"></use>
                <use fill-opacity="0.6" fill="#3E4A62" fill-rule="evenodd" xlink:href="#path-4"></use>
                <use fill="black" fill-opacity="1" filter="url(#filter-6)" xlink:href="#path-4"></use>
            </g>
            <g id="矩形备份">
                <use fill="black" fill-opacity="1" filter="url(#filter-8)" xlink:href="#path-7"></use>
                <use fill-opacity="0.6" fill="#3E4A62" fill-rule="evenodd" xlink:href="#path-7"></use>
                <use fill="black" fill-opacity="1" filter="url(#filter-9)" xlink:href="#path-7"></use>
            </g>
            <g id="矩形">
                <use fill="black" fill-opacity="1" filter="url(#filter-11)" xlink:href="#path-10"></use>
                <use fill-opacity="0.6" fill="#3E4A62" fill-rule="evenodd" xlink:href="#path-10"></use>
                <use fill="black" fill-opacity="1" filter="url(#filter-12)" xlink:href="#path-10"></use>
            </g>
            <g id="形状结合">
                <use fill="black" fill-opacity="1" filter="url(#filter-15)" xlink:href="#path-14"></use>
                <use fill="url(#linearGradient-13)" fill-rule="evenodd" xlink:href="#path-14"></use>
            </g>
        </g>
    </g>
</svg>