<?xml version="1.0" encoding="UTF-8"?>
<svg width="24px" height="24px" viewBox="0 0 24 24" version="1.1" xmlns="http://www.w3.org/2000/svg" xmlns:xlink="http://www.w3.org/1999/xlink">
    <title>icon/delete</title>
    <g id="icon/delete" stroke="none" stroke-width="1" fill="none" fill-rule="evenodd">
        <path d="M14.5596299,4 C14.6265006,4 14.6889468,4.03342023 14.72604,4.08905996 L16,6 L19.8,6 C19.9104569,6 20,6.08954305 20,6.2 L20,7.8 C20,7.91045695 19.9104569,8 19.8,8 L17.923,8 L17.0142047,19.8153393 C17.0061893,19.9195387 16.919301,20 16.8147938,20 L7.18520623,20 C7.08069897,20 6.99381067,19.9195387 6.98579533,19.8153393 L6.077,8 L4.2,8 C4.08954305,8 4,7.91045695 4,7.8 L4,6.2 C4,6.08954305 4.08954305,6 4.2,6 L8,6 L9.27396003,4.08905996 C9.31105318,4.03342023 9.37349945,4 9.44037009,4 L14.5596299,4 Z M10.8,8.85714286 L9.2,8.85714286 C9.10795254,8.85714286 9.03042863,8.91932553 9.00714419,9.00397493 L9,9.05714286 L9,16.6571429 C9,16.7491903 9.06218267,16.8267142 9.14683208,16.8499987 L9.2,16.8571429 L10.8,16.8571429 C10.8920475,16.8571429 10.9695714,16.7949602 10.9928558,16.7103108 L11,16.6571429 L11,9.05714286 C11,8.94668591 10.9104569,8.85714286 10.8,8.85714286 Z M14.8,8.85714286 L13.2,8.85714286 C13.1079525,8.85714286 13.0304286,8.91932553 13.0071442,9.00397493 L13,9.05714286 L13,16.6571429 C13,16.7491903 13.0621827,16.8267142 13.1468321,16.8499987 L13.2,16.8571429 L14.8,16.8571429 C14.8920475,16.8571429 14.9695714,16.7949602 14.9928558,16.7103108 L15,16.6571429 L15,9.05714286 C15,8.94668591 14.9104569,8.85714286 14.8,8.85714286 Z" id="形状结合备份" fill="#C9D3E6"></path>
    </g>
</svg>