<?xml version="1.0" encoding="UTF-8"?>
<svg width="19px" height="20px" viewBox="0 0 19 20" version="1.1" xmlns="http://www.w3.org/2000/svg" xmlns:xlink="http://www.w3.org/1999/xlink">
    <title>删除</title>
    <g id="骨性标记" stroke="none" stroke-width="1" fill="none" fill-rule="evenodd">
        <g id="7.骨性标记-工作流说明" transform="translate(-3111.000000, -880.000000)" fill="#C9D3E6">
            <g id="编组-19" transform="translate(2932.000000, 614.000000)">
                <g id="编组" transform="translate(169.000000, 257.000000)">
                    <g id="编组-15" transform="translate(10.400000, 9.100000)">
                        <path d="M18.2,2.83175293 L18.2,4.78175293 L15.6103943,4.78175293 L15.6103943,19.7419092 L2.62110596,19.7419092 L2.62110596,4.78175293 L0,4.78175293 L0,2.83175293 L18.2,2.83175293 Z M6.499,4.781 L4.57110596,4.78175293 L4.57110596,17.7919092 L6.499,17.791 L6.499,4.781 Z M10.14,4.781 L8.059,4.781 L8.059,17.791 L10.14,17.791 L10.14,4.781 Z M13.6603943,4.78175293 L11.7,4.781 L11.7,17.791 L13.6603943,17.7919092 L13.6603943,4.78175293 Z M11.7,1.77347026e-13 L11.7,1.56 L6.5,1.56 L6.5,1.77347026e-13 L11.7,1.77347026e-13 Z" id="形状结合"></path>
                    </g>
                </g>
            </g>
        </g>
    </g>
</svg>