<?xml version="1.0" encoding="UTF-8"?>
<svg width="28px" height="25px" viewBox="0 0 28 25" version="1.1" xmlns="http://www.w3.org/2000/svg" xmlns:xlink="http://www.w3.org/1999/xlink">
    <title>类DR视图</title>
    <g id="web-plan假体规划（2021/08更新）" stroke="none" stroke-width="1" fill="none" fill-rule="evenodd">
        <g id="14.假体规划-垂直裁剪" transform="translate(-1640.000000, -533.000000)" fill="#C9D3E6" stroke="#C9D3E6">
            <g id="icon_leiDR" transform="translate(1641.000000, 534.000000)">
                <path d="M7.10791016,0.176024616 C10.3051758,0.871820853 10.9105566,3.81739977 11.1357422,5.30639571 C11.3609278,6.79539165 8.26660156,7.73754805 8.26660156,8.43286055 C8.26660156,9.12817305 11.1357422,10.7033684 10.3051758,11.8615715 C9.47460937,13.0197746 8.26660156,10.4909128 8.26660156,11.8615715 C8.26660156,13.2322301 9.11147861,13.8661362 8.26660156,14.7585441 C7.70335019,15.3534828 6.78912493,15.3534828 5.52392578,14.7585441 C4.5773112,20.1989738 3.6311849,22.9191887 2.68554687,22.9191887 C1.26708984,22.9191887 -1.08801856e-12,16.1403801 -1.08801856e-12,13.7092277 C-1.08801856e-12,11.2780754 4.04390159,12.9260201 4.37158203,9.9265129 C4.52449957,8.52674288 3.91294277,7.78668542 3.21711897,7.08624097 L2.91573268,6.78666791 C2.20971438,6.08488637 1.51660156,5.33413221 1.51660156,3.91430587 C1.51660156,0.871820853 3.91064453,-0.519771621 7.10791016,0.176024616 Z M18.9667985,0.176024616 C22.1640641,-0.519771621 24.5581071,0.871820853 24.5581071,3.91430587 C24.5581071,6.95679088 21.3754462,6.92700572 21.7031266,9.9265129 C21.8625387,11.3857326 22.9014656,11.7450441 23.9264351,12.00919 L24.2663491,12.0950922 C25.2210289,12.3363055 26.0747087,12.5922118 26.0747087,13.7092277 C26.0747087,16.1403801 24.8076188,22.9191887 23.3891618,22.9191887 C22.4435238,22.9191887 21.4973975,20.1989738 20.5507829,14.7585441 C19.2855837,15.3534828 18.3713585,15.3534828 17.8081071,14.7585441 C16.9632301,13.8661362 17.8081071,13.2322301 17.8081071,11.8615715 C17.8081071,10.4909128 16.6000993,13.0197746 15.7695329,11.8615715 C14.9389665,10.7033684 17.8081071,9.12817305 17.8081071,8.43286055 C17.8081071,7.73754805 14.7137809,6.79539165 14.9389665,5.30639571 C15.1641521,3.81739977 15.7695329,0.871820853 18.9667985,0.176024616 Z M12.8372916,12.0202916 L13.4235277,12.8490532 L13.6564539,13.1599017 C13.9153606,13.4987687 14.1902217,13.8374864 14.4679974,14.1521988 C14.6980321,14.4128219 14.9198507,14.6451161 15.1286393,14.8413427 C15.5162724,15.2056535 15.8402618,15.4238932 16.028428,15.4620013 C16.4752756,15.5524986 17.1377756,15.1082258 17.9605623,14.0337983 L18.1074126,13.8376326 L18.9141756,14.4285078 C17.8136459,15.9311374 16.8074728,16.6400782 15.8299341,16.4421035 C15.4086036,16.356774 14.9578022,16.0531136 14.4437935,15.5700308 C14.2102897,15.3505759 13.9675444,15.0963667 13.7182639,14.8139387 C13.5216543,14.5911853 13.3275545,14.3585027 13.1393357,14.1225546 L12.975,13.912 L12.9249037,13.9959478 C12.8098085,14.1795103 12.6876333,14.3616967 12.5587617,14.5396957 L12.3604799,14.8032025 C11.6781475,15.6750999 10.9465408,16.2678944 10.1474624,16.4407492 C8.85205578,16.7209686 7.87197568,16.0199617 7.28103948,14.501133 L7.20617378,14.2984004 L8.14992362,13.9677401 C8.58067053,15.1971509 9.14808412,15.6338032 9.93603483,15.4633556 C10.4541782,15.351272 11.021474,14.8916127 11.5729652,14.1869067 C11.8138978,13.8790383 12.0346543,13.5468209 12.2293256,13.2144858 L12.3991623,12.9120673 L12.4665771,12.7809496 L12.8372916,12.0202916 Z" id="icon——类DR视图"></path>
            </g>
        </g>
    </g>
</svg>