<?xml version="1.0" encoding="UTF-8"?>
<svg width="24px" height="24px" viewBox="0 0 24 24" version="1.1" xmlns="http://www.w3.org/2000/svg" xmlns:xlink="http://www.w3.org/1999/xlink">
    <title>icon/right</title>
    <g id="icon/right" stroke="none" stroke-width="1" fill="none" fill-rule="evenodd">
        <path d="M7.17653551,8.17388624 L6.09257021,9.41117735 C6.02292994,9.49066817 6.0271532,9.61062032 6.1022115,9.68501661 L12.3461859,15.8739197 C12.4243142,15.951359 12.5503151,15.9511664 12.6282064,15.8734888 L18.8354904,9.68323116 C18.9103196,9.60860721 18.9141777,9.48864544 18.8442981,9.40936752 L17.7568408,8.1756544 C17.6838021,8.09279252 17.5574198,8.08482923 17.4745579,8.15786789 C17.4714793,8.16058153 17.4684849,8.16338928 17.4655791,8.16628715 L12.6240798,12.9945063 C12.5461885,13.072184 12.4201876,13.0723765 12.3420593,12.9949373 L7.46776389,8.16363272 C7.38931384,8.08587459 7.26268209,8.08643551 7.18492396,8.16488556 C7.18203616,8.16779905 7.17923869,8.1708007 7.17653551,8.17388624 Z" id="路径-6备份-5" fill="#C9D3E6" transform="translate(12.468634, 12.018776) rotate(-90.000000) translate(-12.468634, -12.018776) "></path>
    </g>
</svg>