<?xml version="1.0" encoding="UTF-8"?>
<svg width="17px" height="17px" viewBox="0 0 17 17" version="1.1" xmlns="http://www.w3.org/2000/svg" xmlns:xlink="http://www.w3.org/1999/xlink">
    <title>模拟化</title>
    <g id="模拟评估" stroke="none" stroke-width="1" fill="none" fill-rule="evenodd">
        <g id="3.模拟评估（211117更新）" transform="translate(-1679.000000, -726.000000)" fill="#C9D3E6" fill-rule="nonzero">
            <g id="编组-10" transform="translate(1561.000000, 714.500000)">
                <g id="编组-18" transform="translate(118.000000, 9.000000)">
                    <g id="模拟化" transform="translate(0.000000, 3.000000)">
                        <path d="M3.97900252,4.22016808 L4.98302677,5.17111916 L1.00361853,8.94138592 L0,7.99045314 L3.97900252,4.22016808 Z M4.4408921e-16,7.99863616 L1.00361853,7.04766678 L4.98262105,10.8179335 L3.97900252,11.7692874 L4.4408921e-16,7.99863616 Z M13.0205918,11.7692874 L12.0165675,10.818318 L15.9955507,7.04805121 L16.999575,7.9990206 L13.0205918,11.7692874 Z M17,7.99081927 L15.9959757,8.94178866 L12.0169732,5.17111916 L13.0205918,4.21976533 L17,7.99081927 Z M11.1308206,1.37469236 L11.6328327,1.85036928 L4.64341897,8.47275702 L4.14181256,7.99746455 L11.1308206,1.37469236 Z M7.60974185,10.3531856 L7.10772972,10.8284781 L4.12367104,8.0009794 L4.62568316,7.52568692 L7.60974185,10.3531856 Z M8.61747555,8.46728337 L9.11948768,8.94296028 L7.12956138,10.8284781 L6.62754925,10.3528012 L8.61747555,8.46728337 Z M11.8656973,2.33269146 C11.1806856,2.33269146 10.6238432,1.80936265 10.6238432,1.1665288 C10.6238432,0.523310507 11.1806856,0 11.8656973,0 C12.5507089,0 13.1079377,0.523310507 13.1079377,1.1665288 C13.1079377,1.80974708 12.5507089,2.33269146 11.8656973,2.33269146 Z M11.8656973,0.666650648 C11.5722257,0.666650648 11.3335845,0.890814126 11.3335845,1.1665288 C11.3335845,1.44185903 11.5726508,1.66642525 11.8656973,1.66642525 C12.1595552,1.66642525 12.3981964,1.44185903 12.3981964,1.1665288 C12.3981964,0.890814126 12.1591495,0.666650648 11.8656973,0.666650648 L11.8656973,0.666650648 Z M5.85928754,14.6252893 L5.35727542,14.1496307 L12.3466892,7.52685854 L12.8482956,8.00253545 L5.85928754,14.6252893 Z M9.38079133,5.64641163 L9.88239773,5.17111916 L12.8664371,7.99863616 L12.364425,8.47391033 L9.38079133,5.64641163 Z M8.37346335,7.53233219 L7.87147054,7.05663698 L9.8609718,5.1715036 L10.3629839,5.64677776 L8.37346335,7.53233219 Z M5.12441088,13.6669241 C5.8094225,13.6669241 6.36665132,14.1902346 6.36665132,14.8334529 C6.36665132,15.4766712 5.8094225,16 5.12441088,16 C4.43939926,16 3.88215112,15.4766712 3.88215112,14.8334529 C3.88215112,14.1902346 4.43939926,13.6669241 5.12441088,13.6669241 Z M5.12441088,15.3333494 C5.41786309,15.3333494 5.65650432,15.1091859 5.65650432,14.8334529 C5.65650432,14.5577382 5.41745737,14.3335748 5.12441088,14.3335748 C4.83053363,14.3335748 4.5918924,14.5577382 4.5918924,14.8334529 C4.5918924,15.1091859 4.83093935,15.3333494 5.12441088,15.3333494 Z" id="形状"></path>
                    </g>
                </g>
            </g>
        </g>
    </g>
</svg>