<?xml version="1.0" encoding="UTF-8"?>
<svg width="20px" height="25px" viewBox="0 0 20 25" version="1.1" xmlns="http://www.w3.org/2000/svg" xmlns:xlink="http://www.w3.org/1999/xlink">
    <title>形状</title>
    <g id="假体规划" stroke="none" stroke-width="1" fill="none" fill-rule="evenodd">
        <g id="3.关节运动模拟" transform="translate(-1139.000000, -823.000000)" fill="#75F7E2" fill-rule="nonzero">
            <g id="编组" transform="translate(966.835655, 572.483578)">
                <g id="脚丫" transform="translate(172.743733, 250.544277)">
                    <path d="M17.7140931,4.82066599 L17.7140931,4.82066599 C17.0425419,4.82906367 16.4913334,4.29147455 16.4829356,3.61992689 C16.4829192,3.61861506 16.4828927,3.6173032 16.4828927,3.61599132 C16.4828927,2.95114603 17.0340916,2.41131546 17.7140935,2.41131546 C18.3922004,2.41131546 18.9415042,2.95114603 18.9415042,3.61599132 C18.9415042,4.28083661 18.3922004,4.82066719 17.7140935,4.82066719 L17.7140931,4.82066599 Z M14.5622313,3.07426451 L14.5622313,3.07426451 C13.9195964,3.07951972 13.3941034,2.56335248 13.3878555,1.92073058 C13.3878555,1.28429882 13.9125357,0.769091701 14.5622313,0.769091701 C15.2119269,0.769091701 15.7366071,1.28429882 15.7366071,1.92073058 L15.7366071,1.92073103 C15.7313977,2.56406477 15.2056453,3.08136894 14.5623083,3.07615999 C14.5622826,3.07615978 14.5622569,3.07615957 14.5622313,3.07615936 L14.5622313,3.07426451 Z M11.1982108,2.54958701 L11.1982107,2.54958701 C10.4868925,2.55694704 9.90428826,1.9862801 9.89692786,1.27496553 C9.89692786,1.27492002 9.89692786,1.27487452 9.89692786,1.27482902 L9.89692786,1.27483469 C9.90420948,0.563520115 10.4867515,-0.0072130293 11.1980698,6.89142018e-05 C11.1981153,6.93797916e-05 11.1981608,6.98477912e-05 11.1982062,7.03182004e-05 L11.1982062,7.03184862e-05 C11.9088415,-0.0062375809 12.4903082,0.564206907 12.497595,1.27482888 L12.497595,1.27482765 C12.490308,1.98544963 11.9088415,2.55589419 11.1982062,2.54958862 L11.1982108,2.54958701 Z M7.74328577,2.90000288 L7.74328571,2.90000288 C6.93467554,2.90735844 6.27320325,2.25781627 6.26584563,1.44920791 C6.26584563,1.44916789 6.26584563,1.44912787 6.26584563,1.44908785 C6.26584563,0.649759874 6.92879933,6.76646865e-05 7.74328462,6.76646865e-05 C8.55966496,6.76646865e-05 9.22072361,0.649759874 9.22072361,1.44908785 C9.22072361,2.25031086 8.55966496,2.90000306 7.74328462,2.90000306 L7.74328577,2.90000288 Z M2.6347642,5.65978252 C1.18005374,5.65978252 0,4.50246093 0,3.07428374 C0,1.64609935 1.18005855,0.488784974 2.6347642,0.488784974 C4.08947465,0.488784974 5.26952839,1.6480016 5.26952839,3.07428374 C5.26952839,4.5005731 4.08946984,5.65978252 2.63666405,5.65978252 L2.6347642,5.65978252 Z M11.2342118,24.6239546 C10.590199,24.6239546 9.9613417,24.4629525 9.41014285,24.1561018 C8.3607824,23.5727046 7.6599446,22.7942124 7.3265727,21.8395636 C7.01593174,20.9436344 7.02918985,19.8848066 7.36634992,18.6933936 C7.41938622,18.5096616 7.44969278,18.3486605 7.45726935,18.2009173 C7.4837875,17.7785237 7.49704658,17.4262128 7.49704658,17.1250438 L7.49704667,17.125058 C7.49297616,16.4847544 7.26592384,15.8658806 6.85493848,15.3748664 L6.85493815,15.374866 C6.0854025,14.4533298 5.40904399,13.4578319 4.83577072,12.4029529 L4.83577054,12.4029525 C4.2271359,11.264627 4.13475237,9.92026192 4.58195453,8.70936225 C5.13504843,7.21488283 5.87566057,6.1143883 6.84546754,5.33778393 C7.95923072,4.44943011 9.40257811,3.99673035 11.137628,3.99104764 L11.1489929,3.99104764 C11.33462,3.99104764 11.5202465,4.00620079 11.7020868,4.03461305 C13.2098321,4.26948699 14.4164045,4.7733287 15.388121,5.58023441 C16.2348076,6.2829612 16.8845032,7.20162118 17.3694067,8.38736592 C17.7292948,9.26624936 17.9225006,10.2246859 17.9490168,11.234274 C18.0456187,15.1456732 17.6232227,18.1194862 16.6572034,20.3223703 L16.6572034,20.3223703 C16.2486549,21.291761 15.6555125,22.172465 14.9107928,22.9154445 L14.9107927,22.9154446 C14.2363028,23.5669452 13.4321393,24.0690602 12.550678,24.3890882 L12.5506778,24.3890883 C12.1285802,24.5447271 11.6822174,24.6242472 11.2323386,24.6239546 L11.2342118,24.6239546 Z" id="形状"></path>
                </g>
            </g>
        </g>
    </g>
</svg>