<?xml version="1.0" encoding="UTF-8"?>
<svg width="24px" height="25px" viewBox="0 0 24 25" version="1.1" xmlns="http://www.w3.org/2000/svg" xmlns:xlink="http://www.w3.org/1999/xlink">
    <title>磨搓计算</title>
    <g id="web-plan假体规划（2021/08更新）" stroke="none" stroke-width="1" fill="none" fill-rule="evenodd">
        <g id="14.假体规划-垂直裁剪" transform="translate(-1502.000000, -532.000000)" fill="#C9D3E6">
            <g id="icon_mocuojisuan" transform="translate(1502.000000, 532.000000)">
                <path d="M23.9018125,20.0528564 L23.9018125,25 L23.0981875,25 L23.0981875,20.0528564 L23.9018125,20.0528564 Z M21.9018125,18 L21.9018125,25 L21.0981875,25 L21.0981875,18 L21.9018125,18 Z M19.9018125,21 L19.9018125,25 L19.0981875,25 L19.0981875,21 L19.9018125,21 Z M17.9018125,23 L17.9018125,25 L17.0981875,25 L17.0981875,23 L17.9018125,23 Z M8.704316,2.92737145 C10.0911929,2.62760498 11.022873,2.62760498 11.4993562,2.92737145 C12.2140811,3.37702116 17.030621,6.59156803 19.1121048,9.47514903 C20.4997607,11.3975364 20.4997607,13.1552256 19.1121048,14.7482166 L19.1319465,14.7501292 C17.3338694,15.7426798 16.0945089,17.6231925 16.0051709,19.8003617 L16,20.0528564 L15.999,24.669 L2.28785648,24.6699437 C0.614383473,24.6699437 0.342869506,22.0565292 0.342869506,20.6974798 C0.342869506,19.3384303 -0.428586882,16.3633424 0.342869506,14.0890369 C1.11432589,11.8147314 3.60880523,8.12608712 4.75589626,8.12608712 C5.90298728,8.12608712 6.07884358,6.7143511 5.26082346,5.449788 C4.44280334,4.1852249 3.15809776,4.51050005 2.77095899,3.49703291 C2.38382022,2.48356577 2.74793215,0.230073609 3.97094716,0.0139599936 C4.7862905,-0.13011575 6.36408011,0.841021403 8.704316,2.92737145 Z M4.06987206,18.5114365 C2.53065559,19.7087154 4.81068435,22.5175622 7.8780959,22.5175622 L13.3568335,22.5175622 C14.6461169,22.5175622 14.6461169,21.3179752 13.9586771,20.2151796 C13.5003839,19.4799825 12.667963,18.9120681 11.4614144,18.5114365 C7.55986383,17.7132505 5.09601637,17.7132505 4.06987206,18.5114365 Z M8.99636677,8.37244721 C7.01156433,9.56735887 4.30670074,11.4600495 4.64085424,14.0431681 C4.97500773,16.6262867 7.53583918,14.7391936 10.2102198,15.4577041 C12.8846004,16.1762145 12.9139194,16.6695294 14.4164804,16.6695294 C15.9190414,16.6695294 17.8037992,15.2417391 18.2106341,12.995213 C18.617469,10.7486868 17.2307424,9.11041774 15.9190414,8.37244721 C14.6073404,7.63447668 10.9811692,7.17753555 8.99636677,8.37244721 Z M12.2883744,11.0946152 C12.9159707,11.0946152 13.424738,11.6033825 13.424738,12.2309788 C13.424738,12.8585751 12.9159707,13.3673425 12.2883744,13.3673425 C11.6607781,13.3673425 11.1520107,12.8585751 11.1520107,12.2309788 C11.1520107,11.6033825 11.6607781,11.0946152 12.2883744,11.0946152 Z" id="形状结合"></path>
            </g>
        </g>
    </g>
</svg>