<?xml version="1.0" encoding="UTF-8"?>
<svg width="40px" height="40px" viewBox="0 0 40 40" version="1.1" xmlns="http://www.w3.org/2000/svg" xmlns:xlink="http://www.w3.org/1999/xlink">
    <title>icon/磨锉视图</title>
    <g id="icon/磨锉视图" stroke="none" stroke-width="1" fill="none" fill-rule="evenodd">
        <path d="M4,0 L36,0 C38.209139,-4.05812251e-16 40,1.790861 40,4 L40,36 C40,38.209139 38.209139,40 36,40 L4,40 C1.790861,40 2.705415e-16,38.209139 0,36 L0,4 C-2.705415e-16,1.790861 1.790861,4.05812251e-16 4,0 Z" id="矩形备份-6"></path>
        <g id="编组" transform="translate(11.000000, 7.000000)" fill="#C9D3E6">
            <path d="M16.2618276,-1.24640415e-13 C16.582571,-1.24640415e-13 17.6345069,0.658874921 17.6345069,1.06079854 C17.6345069,1.46272217 17.5279829,1.29138906 16.9937069,2.08518806 C16.459431,2.87898706 15.8884762,3.42289152 15.2339993,4.65394585 C14.5795225,5.88500017 14.2123191,6.79047376 14.0229164,7.8295403 C13.8966479,8.52225133 13.8620826,9.047018 13.9192206,9.40384033 C14.395919,9.62459735 14.6807172,9.87583308 14.7736152,10.1575475 C14.8665132,10.4392619 14.8944616,10.7536713 14.8574603,11.1007755 C15.220817,11.7156202 15.4330557,12.3994514 15.4941764,13.1522691 C15.5290679,13.5820247 15.5319424,14.0894767 15.4431995,14.5396316 C15.2987614,15.2723046 14.8887143,16.1674138 14.7222532,16.4575918 C14.555792,16.7477698 14.3277944,16.7806366 13.9192206,17.2533045 C13.5106467,17.7259724 13.3960098,17.901147 13.0070541,18.4018546 C12.1405248,19.5173484 12.6440207,19.9048261 12.7588758,20.1592412 C12.8737309,20.4136562 12.8735694,20.849032 12.7588758,21.2110936 C12.6441822,21.5731553 12.7642216,22.1246348 12.9020964,22.6378913 C13.0399711,23.1511479 12.852447,24.4577025 12.44467,24.8046789 C12.036893,25.1516553 11.8360807,25.1713307 11.6818694,25.3097716 C11.5276582,25.4482125 11.5449229,25.5696172 11.1649674,25.6997759 C10.7850118,25.8299345 9.7529035,25.8854617 8.90103979,25.5155854 C8.57434776,25.3737369 7.96459196,25.0181884 7.35552675,24.6713402 C6.41960995,24.1383578 5.62589289,23.6346138 5.27445897,23.2458062 C4.92302506,22.8569986 4.45247377,22.2970851 3.89866039,21.9028315 C3.34484701,21.5085778 2.28599014,20.9763376 1.79477263,20.5272414 C1.30355513,20.0781453 0.892695198,19.3166337 0.676387693,18.4018546 C0.542338473,17.8349514 0.43203499,17.2653935 0.272684794,16.8657349 C0.174900756,16.6204875 7.89487773e-14,16.4871362 7.89487773e-14,16.2558125 C7.89487773e-14,15.7495088 0.570443613,15.46155 1.32369954,15.1818437 C2.07695547,14.9021374 3.0812059,15.108459 4.51391378,14.51151 C5.94662166,13.914561 6.22494246,13.6761161 7.53866785,12.4310042 C8.85239325,11.1858923 9.86759354,9.36335272 10.5448593,7.8295403 C11.2221251,6.29572788 11.3747133,6.05400247 11.5276582,5.34376951 C11.6806031,4.63353654 11.5072919,3.12582755 12.0833103,2.2746609 C12.6593287,1.42349425 14.3174587,0.571650503 14.8574603,0.339180434 C15.3974619,0.106710366 15.9410842,-1.24640415e-13 16.2618276,-1.24640415e-13 Z M5.72119548,16.1274357 C5.43066514,16.3742383 5.25233118,16.6810586 4.98298663,16.984669 C4.71364208,17.2882795 4.32719527,17.9358877 4.23426364,18.2295418 C4.141332,18.5231959 4.17485847,18.9987537 4.21214627,19.224424 C4.24943407,19.4500943 4.51261771,19.639873 4.5592325,19.8566339 C4.60584729,20.0733949 4.628563,20.4998135 5.02195453,20.8536927 C5.41534607,21.2075719 6.17357642,21.4873592 6.40531659,21.6066962 C6.63705676,21.7260332 7.12793837,22.0260656 7.3532767,22.1714328 C7.57861502,22.3168 8.4116202,22.652792 8.69772765,22.4980518 C8.9838351,22.3433117 8.9838351,21.6066962 8.93579467,21.0450167 C8.88775424,20.4833372 8.59009614,19.4329064 8.35956419,18.907013 C8.12903225,18.3811196 8.04883175,17.8803956 7.8915598,17.4977894 C7.73428785,17.1151831 7.74894446,16.7682519 7.58110423,16.4066983 C7.41326401,16.0451447 7.13059175,15.9377218 6.63616623,15.9091775 C6.14174071,15.8806332 6.01172583,15.8806332 5.72119548,16.1274357 Z M12.2912659,11.1844586 C11.8057261,11.2280691 11.4754775,11.3362033 11.0979002,11.4337475 C10.7203229,11.5312917 10.2088159,11.8290845 10.0985084,11.9940688 C9.98820089,12.1590531 9.87324285,12.3507278 9.66097532,12.5823544 C9.44870779,12.813981 9.1707717,13.0964553 9.00898544,14.0684552 C8.84719919,15.040455 8.76794965,15.6726177 8.95966318,16.2605865 C9.15137671,16.8485554 9.72861263,17.1327131 9.92431249,17.1890261 C10.1200123,17.245339 10.2265053,17.2211578 10.5222568,17.3859524 C10.8180083,17.550747 11.0267607,17.7493119 11.4250898,17.8486788 C11.823419,17.9480458 12.4582653,17.8955492 12.9782822,17.6912449 C13.4982991,17.4869407 13.8772044,17.1132241 14.2125041,16.6897158 C14.5478039,16.2662075 14.8674749,15.3863732 14.9298595,14.4420337 C14.9922442,13.4976943 14.6687431,12.7038749 14.2125041,12.064387 C13.7562651,11.4248991 12.7768057,11.1408482 12.2912659,11.1844586 Z" id="形状结合"></path>
            <path d="M11.6460665,3.83005912 C11.5299335,3.97556323 11.4425473,4.07757519 11.3839078,4.13609501 C11.1345976,4.38489672 10.9032605,4.56908754 10.7168061,4.74794016 C10.5259497,4.93101536 10.2772799,5.25625981 10.1656403,5.52466101 C10.0559643,5.78834149 10.0650884,5.98095174 10.0196599,6.04898856 C9.92798951,6.18628027 9.46312524,6.41848434 9.37734244,6.66224615 C9.29155963,6.90600796 9.68445954,7.40209362 9.71040234,7.59325167 C9.72268011,7.68371964 9.61993973,8.40372572 9.26875296,9.15038369 C8.91756619,9.89704166 8.81725345,9.94175959 8.54942573,10.5195382 C8.46132207,10.7096022 8.42710674,11.0143386 8.44677974,11.4337475 C8.74264723,11.0385906 8.9429837,10.7625626 9.04778917,10.6056635 C9.30757088,10.216757 9.46609588,9.94701 9.57718033,9.74953331 C9.72275412,9.49074435 9.9518476,9.08324478 10.2111365,8.54690146 C10.4354054,8.08299768 10.6774614,7.54353611 10.894388,7.04666321 C11.0749425,6.63310083 11.2147898,6.33291344 11.3106492,6.08138534 C11.4631135,5.68132978 11.5219115,5.4328291 11.5485423,5.24117876 C11.5774585,5.03308062 11.6099666,4.56270741 11.6460665,3.83005912 Z" id="路径-40" fill-opacity="0.6"></path>
        </g>
    </g>
</svg>