<?xml version="1.0" encoding="UTF-8"?>
<svg width="23px" height="23px" viewBox="0 0 23 23" version="1.1" xmlns="http://www.w3.org/2000/svg" xmlns:xlink="http://www.w3.org/1999/xlink">
    <title>icon/layout 左右</title>
    <g id="web-plan图像浏览（2021/08更新）" stroke="none" stroke-width="1" fill="none" fill-rule="evenodd">
        <g id="1.图像浏览（气泡提示）" transform="translate(-1503.000000, -823.000000)" fill="#C9D3E6">
            <g id="layout-左右" transform="translate(1490.000000, 809.000000)">
                <g id="icon/layout-左右" transform="translate(25.000000, 25.000000) scale(-1, 1) translate(-25.000000, -25.000000) ">
                    <path d="M37,14 L37,37 L14,37 L14,14 L37,14 Z M22.999,29.507 L22.9919443,29.5898756 C22.9496084,29.8231248 22.7454599,30 22.5,30 L16,30 L16,35 L22.999,35 L22.999,29.507 Z M35,16 L24,16 L23.999,35 L35,35 L35,16 Z M23,16 L16,16 L16,21 L22.5,21 C22.7454599,21 22.9496084,21.1768752 22.9919443,21.4101244 L23,21.5 L22.9919443,21.5898756 C22.9496084,21.8231248 22.7454599,22 22.5,22 L16,22 L16,29 L22.5,29 C22.773756,29 22.996127,29.2200052 22.99995,29.4928526 L23,21.5 L23,16 Z" id="形状结合"></path>
                </g>
            </g>
        </g>
    </g>
</svg>