<?xml version="1.0" encoding="UTF-8"?>
<svg width="40px" height="40px" viewBox="0 0 40 40" version="1.1" xmlns="http://www.w3.org/2000/svg" xmlns:xlink="http://www.w3.org/1999/xlink">
    <title>icon/zuidahua</title>
    <g id="icon/zuidahua" stroke="none" stroke-width="1" fill="none" fill-rule="evenodd">
        <path d="M30.8,25 C30.9104569,25 31,25.0895431 31,25.2 L31,30.8 C31,30.9104569 30.9104569,31 30.8,31 L25.2,31 C25.0895431,31 25,30.9104569 25,30.8 L25,29.2 C25,29.0895431 25.0895431,29 25.2,29 L29,29 L29,25.2 C29,25.0895431 29.0895431,25 29.2,25 L30.8,25 Z M10.8,25 C10.9104569,25 11,25.0895431 11,25.2 L11,25.2 L11,29 L14.8,29 C14.9104569,29 15,29.0895431 15,29.2 L15,29.2 L15,30.8 C15,30.9104569 14.9104569,31 14.8,31 L14.8,31 L9.2,31 C9.08954305,31 9,30.9104569 9,30.8 L9,30.8 L9,25.2 C9,25.0895431 9.08954305,25 9.2,25 L9.2,25 Z M30.8,9 C30.9104569,9 31,9.08954305 31,9.2 L31,9.2 L31,14.8 C31,14.9104569 30.9104569,15 30.8,15 L30.8,15 L29.2,15 C29.0895431,15 29,14.9104569 29,14.8 L29,14.8 L29,11 L25.2,11 C25.0895431,11 25,10.9104569 25,10.8 L25,10.8 L25,9.2 C25,9.08954305 25.0895431,9 25.2,9 L25.2,9 Z M14.8,9 C14.9104569,9 15,9.08954305 15,9.2 L15,10.8 C15,10.9104569 14.9104569,11 14.8,11 L11,11 L11,14.8 C11,14.9104569 10.9104569,15 10.8,15 L9.2,15 C9.08954305,15 9,14.9104569 9,14.8 L9,9.2 C9,9.08954305 9.08954305,9 9.2,9 L14.8,9 Z" id="形状结合" fill="#C9D3E6"></path>
        <rect id="矩形" fill="#C9D3E6" x="15" y="15" width="10" height="10" rx="0.2"></rect>
    </g>
</svg>