<?xml version="1.0" encoding="UTF-8"?>
<svg width="40px" height="40px" viewBox="0 0 40 40" version="1.1" xmlns="http://www.w3.org/2000/svg" xmlns:xlink="http://www.w3.org/1999/xlink">
    <title>icon/zuixiaohua</title>
    <g id="icon/zuixiaohua" stroke="none" stroke-width="1" fill="none" fill-rule="evenodd">
        <path d="M30.8,25 C30.9104569,25 31,25.0895431 31,25.2 L31,26.8 C31,26.9104569 30.9104569,27 30.8,27 L27,27 L27,30.8 C27,30.9104569 26.9104569,31 26.8,31 L25.2,31 C25.0895431,31 25,30.9104569 25,30.8 L25,25.2 C25,25.1079525 25.0621827,25.0304286 25.1468321,25.0071442 L25.2,25 L30.8,25 Z M14.8,25 L14.8531679,25.0071442 C14.9378173,25.0304286 15,25.1079525 15,25.2 L15,25.2 L15,30.8 C15,30.9104569 14.9104569,31 14.8,31 L14.8,31 L13.2,31 C13.0895431,31 13,30.9104569 13,30.8 L13,30.8 L13,27 L9.2,27 C9.08954305,27 9,26.9104569 9,26.8 L9,26.8 L9,25.2 C9,25.0895431 9.08954305,25 9.2,25 L9.2,25 L14.8,25 Z M15,14.8 C15,14.8920475 14.9378173,14.9695714 14.8531679,14.9928558 L14.8,15 L14.8,15 L9.2,15 C9.08954305,15 9,14.9104569 9,14.8 L9,13.2 C9,13.0895431 9.08954305,13 9.2,13 L13,13 L13,9.2 C13,9.08954305 13.0895431,9 13.2,9 L14.8,9 C14.9104569,9 15,9.08954305 15,9.2 L15,14.8 Z M26.8,9 C26.9104569,9 27,9.08954305 27,9.2 L27,9.2 L27,13 L30.8,13 C30.9104569,13 31,13.0895431 31,13.2 L31,13.2 L31,14.8 C31,14.9104569 30.9104569,15 30.8,15 L30.8,15 L25.2,15 L25.1468321,14.9928558 C25.0621827,14.9695714 25,14.8920475 25,14.8 L25,14.8 L25,9.2 C25,9.08954305 25.0895431,9 25.2,9 L25.2,9 Z" id="形状结合" fill="#C9D3E6"></path>
        <rect id="矩形" fill="#C9D3E6" x="17" y="17" width="6" height="6" rx="0.2"></rect>
    </g>
</svg>