<?xml version="1.0" encoding="UTF-8"?>
<svg width="13px" height="13px" viewBox="0 0 13 13" version="1.1" xmlns="http://www.w3.org/2000/svg" xmlns:xlink="http://www.w3.org/1999/xlink">
    <title>形状</title>
    <g id="结果保存" stroke="none" stroke-width="1" fill="none" fill-rule="evenodd">
        <g id="1.结果评估" transform="translate(-1573.000000, -330.000000)" fill="#C9D3E6" fill-rule="nonzero">
            <g id="编组-5" transform="translate(1561.000000, 319.000000)">
                <g id="品牌特卖-填充" transform="translate(12.000000, 11.000000)">
                    <path d="M12.6894069,6.16697973 L6.83275758,0.310330379 C6.63753593,0.115108734 6.33075906,-0.0243352984 6.051871,0.00355350799 L1.19921868,0.170886347 C0.641442548,0.198775153 0.195221645,0.644996056 0.167332839,1.20277218 L8.8817842e-16,6.0554245 C8.8817842e-16,6.33431257 0.111555226,6.64108944 0.306776871,6.83631108 L6.16342622,12.6929604 C6.35864787,12.8881821 6.63753593,12.9997373 6.916424,12.9997373 C7.19531206,12.9997373 7.44631132,12.8881821 7.66942177,12.6929604 L12.6894069,7.67297528 C13.107739,7.25464318 13.107739,6.58531183 12.6894069,6.16697973 Z M4.26698738,4.27054089 C3.87654409,4.66098418 3.26299035,4.66098418 2.87254706,4.27054089 C2.48210377,3.8800976 2.48210377,3.26654386 2.87254706,2.87610057 C3.26299035,2.48565728 3.87654409,2.48565728 4.26698738,2.87610057 C4.62954187,3.26654386 4.62954187,3.8800976 4.26698738,4.27054089 Z" id="形状"></path>
                </g>
            </g>
        </g>
    </g>
</svg>