<?xml version="1.0" encoding="UTF-8"?>
<svg width="22px" height="30px" viewBox="0 0 22 30" version="1.1" xmlns="http://www.w3.org/2000/svg" xmlns:xlink="http://www.w3.org/1999/xlink">
    <title>icon</title>
    <g id="工具栏/屏幕截图" stroke="none" stroke-width="1" fill="none" fill-rule="evenodd">
        <g id="1.工具栏配置" transform="translate(-1148.000000, -465.000000)" fill="#C9D3E6">
            <g id="编组-4" transform="translate(513.000000, 175.000000)">
                <g id="编组-7备份" transform="translate(490.000000, 290.000000)">
                    <g id="操作栏icon备份-24" transform="translate(0.500000, 0.000000)">
                        <g id="编组" transform="translate(143.500000, 0.000000)">
                            <g id="icon/shoudongpeizhun" transform="translate(12.000000, 15.000000) scale(1, -1) translate(-12.000000, -15.000000) ">
                                <g transform="translate(12.000000, 15.000000) rotate(-90.000000) translate(-12.000000, -15.000000) translate(-3.000000, 3.000000)">
                                    <path d="M12,3.66055513 L12,20.8 C12,20.9104569 11.9104569,21 11.8,21 L0.373703418,21 C0.263246468,21 0.173703418,20.9104569 0.173703418,20.8 C0.173703418,20.760515 0.185391024,20.7219135 0.207293359,20.68906 L11.6335899,3.54961509 C11.6948604,3.45770935 11.8190343,3.43287458 11.91094,3.49414507 C11.9665798,3.53123822 12,3.59368449 12,3.66055513 Z" id="三角形"></path>
                                    <path d="M30,3.66055513 L30,20.8 C30,20.9104569 29.9104569,21 29.8,21 L18.3737034,21 C18.2632465,21 18.1737034,20.9104569 18.1737034,20.8 C18.1737034,20.760515 18.185391,20.7219135 18.2072934,20.68906 L29.6335899,3.54961509 C29.6948604,3.45770935 29.8190343,3.43287458 29.91094,3.49414507 C29.9665798,3.53123822 30,3.59368449 30,3.66055513 Z" id="三角形备份" fill-opacity="0.5" transform="translate(24.000000, 12.000000) scale(-1, 1) translate(-24.000000, -12.000000) "></path>
                                    <rect id="矩形" x="14" y="1" width="2" height="4" rx="0.2"></rect>
                                    <rect id="矩形备份" x="14" y="7" width="2" height="4" rx="0.2"></rect>
                                    <rect id="矩形备份-2" x="14" y="13" width="2" height="4" rx="0.2"></rect>
                                    <rect id="矩形备份-3" x="14" y="19" width="2" height="4" rx="0.2"></rect>
                                </g>
                            </g>
                        </g>
                    </g>
                </g>
            </g>
        </g>
    </g>
</svg>