<?xml version="1.0" encoding="UTF-8"?>
<svg width="31px" height="22px" viewBox="0 0 31 22" version="1.1" xmlns="http://www.w3.org/2000/svg" xmlns:xlink="http://www.w3.org/1999/xlink">
    <title>icon/shoudongpeizhun</title>
    <g id="工具栏/屏幕截图" stroke="none" stroke-width="1" fill="none" fill-rule="evenodd">
        <g id="1.工具栏配置" transform="translate(-1013.000000, -567.000000)" fill="#C9D3E6">
            <g id="编组-4" transform="translate(513.000000, 175.000000)">
                <g id="编组-7备份" transform="translate(490.000000, 378.000000)">
                    <g id="操作栏icon备份-24" transform="translate(0.500000, 0.000000)">
                        <g id="编组" transform="translate(5.000000, 5.000000)">
                            <path d="M17,11.6605551 L17,28.8 C17,28.9104569 16.9104569,29 16.8,29 L5.37370342,29 C5.26324647,29 5.17370342,28.9104569 5.17370342,28.8 C5.17370342,28.760515 5.18539102,28.7219135 5.20729336,28.68906 L16.6335899,11.5496151 C16.6948604,11.4577094 16.8190343,11.4328746 16.91094,11.4941451 C16.9665798,11.5312382 17,11.5936845 17,11.6605551 Z" id="三角形"></path>
                            <path d="M35,11.6605551 L35,28.8 C35,28.9104569 34.9104569,29 34.8,29 L23.3737034,29 C23.2632465,29 23.1737034,28.9104569 23.1737034,28.8 C23.1737034,28.760515 23.185391,28.7219135 23.2072934,28.68906 L34.6335899,11.5496151 C34.6948604,11.4577094 34.8190343,11.4328746 34.91094,11.4941451 C34.9665798,11.5312382 35,11.5936845 35,11.6605551 Z" id="三角形备份" fill-opacity="0.5" transform="translate(29.000000, 20.000000) scale(-1, 1) translate(-29.000000, -20.000000) "></path>
                            <rect id="矩形" x="19" y="9" width="2" height="4" rx="0.2"></rect>
                            <rect id="矩形备份" x="19" y="15" width="2" height="4" rx="0.2"></rect>
                            <rect id="矩形备份-2" x="19" y="21" width="2" height="4" rx="0.2"></rect>
                            <rect id="矩形备份-3" x="19" y="27" width="2" height="4" rx="0.2"></rect>
                        </g>
                    </g>
                </g>
            </g>
        </g>
    </g>
</svg>