<?xml version="1.0" standalone="no"?><!DOCTYPE svg PUBLIC "-//W3C//DTD SVG 1.1//EN" "http://www.w3.org/Graphics/SVG/1.1/DTD/svg11.dtd"><svg t="1594621236819" class="icon" viewBox="0 0 1024 1024" version="1.1" xmlns="http://www.w3.org/2000/svg" p-id="8235" xmlns:xlink="http://www.w3.org/1999/xlink" width="32" height="32"><defs><style type="text/css"></style></defs><path d="M959.8 789.8c0-39.2 8.4-194.2-113.6-317.4-80.8-81.4-183.8-123.4-326.8-131-4.2-0.2-7.6-3.8-7.6-8V168c0-6.4-7-10.2-12.4-6.8L67.6 445.6c-4.8 3.2-4.8 10.2 0 13.4l431.8 284.4c5.4 3.6 12.4-0.2 12.4-6.8v-163.2c0-4.6 3.8-8.2 8.4-8 88.2 3.4 139 21.8 194.2 46.4 72.2 32.4 145.8 101.8 189 167 26.2 39.8 38.4 67.8 42.8 79.4 1.4 3.4 4.6 5.6 8.2 5.6h5.8c-0.2-23.4-0.4-53.4-0.4-74z" p-id="8236" fill="#C9D3E6"></path></svg>