<?xml version="1.0" encoding="UTF-8"?>
<svg width="46px" height="48px" viewBox="0 0 46 48" version="1.1" xmlns="http://www.w3.org/2000/svg" xmlns:xlink="http://www.w3.org/1999/xlink">
    <title>患者信息</title>
    <g id="web-plan结果导出（2021/08更新）" stroke="none" stroke-width="1" fill="none" fill-rule="evenodd">
        <g id="20.结果导出" transform="translate(-1016.000000, -121.000000)" fill="#057966" fill-rule="nonzero">
            <g id="患者信息" transform="translate(1016.000000, 121.000000)">
                <path d="M27,44.8571389 L46,44.8571389 L46,48 L27,48 L27,44.8571389 Z M27,37 L46,37 L46,40.1428611 L27,40.1428611 L27,37 Z" id="形状"></path>
                <path d="M42,30.9677911 C39.0444507,27.0968254 35,24.1548662 30.177781,22.7613183 C33.6,20.5935784 35.7777737,16.722629 35.7777737,12.3871164 C35.7777737,5.57419151 30.177781,0 23.3333212,0 C16.4888613,0 10.8888686,5.57419151 10.8888686,12.3871164 C10.8888686,16.7225963 13.0666424,20.4387204 16.4888613,22.7613183 C7.62222445,25.3935778 0.933350347,33.2903346 0,42.7354864 C0.466665877,45.6774184 3.11110767,48 6.22222627,48 L23.3333212,48 L23.3333212,44.9032263 L6.22222627,44.9032263 C4.8222281,44.9032263 3.57778284,43.9741926 3.266677,42.7354864 C4.35556386,32.6709679 12.9111332,24.7741784 23.3332993,24.7741784 C29.0888231,24.7741784 34.2221679,27.0967601 37.9555146,30.9677367 L42,30.9677367 L42,30.9677911 Z M23.3333759,21.6774538 C18.2000474,21.6774538 14.0000365,17.4968101 14.0000365,12.3871164 C14.0000365,7.27743907 18.200031,3.09677911 23.3333759,3.09677911 C28.4667043,3.09677911 32.6667153,7.27742274 32.6667153,12.3871164 C32.6667153,17.4967938 28.4667207,21.6774538 23.3333759,21.6774538 Z" id="形状"></path>
            </g>
        </g>
    </g>
</svg>