<?xml version="1.0" encoding="UTF-8"?>
<svg width="24px" height="24px" viewBox="0 0 24 24" version="1.1" xmlns="http://www.w3.org/2000/svg" xmlns:xlink="http://www.w3.org/1999/xlink">
    <title>icon/people</title>
    <defs>
        <filter x="0.0%" y="0.0%" width="100.0%" height="100.0%" filterUnits="objectBoundingBox" id="filter-1">
            <feGaussianBlur stdDeviation="0" in="SourceGraphic"></feGaussianBlur>
        </filter>
        <path d="M8,5.16758353e-15 C10.209139,5.16758353e-15 12,1.790861 12,4 C12,6.209139 10.209139,8 8,8 L8.02417193,8.0000337 C12.4313341,8.01232326 16,11.384479 16,15.5424723 C16,19.7080648 0,19.7080648 0,15.5424723 C0,11.3768799 3.581722,8 8,8 L7.97491423,7.99992299 C5.77731957,7.98642687 4,6.20077105 4,4 C4,1.790861 5.790861,5.16758353e-15 8,5.16758353e-15 Z" id="path-2"></path>
        <filter x="-43.8%" y="-26.8%" width="187.5%" height="175.0%" filterUnits="objectBoundingBox" id="filter-3">
            <feOffset dx="0" dy="2" in="SourceAlpha" result="shadowOffsetOuter1"></feOffset>
            <feGaussianBlur stdDeviation="2" in="shadowOffsetOuter1" result="shadowBlurOuter1"></feGaussianBlur>
            <feComposite in="shadowBlurOuter1" in2="SourceAlpha" operator="out" result="shadowBlurOuter1"></feComposite>
            <feColorMatrix values="0 0 0 0 0.0235619438   0 0 0 0 0.0407606734   0 0 0 0 0.0808910425  0 0 0 0.6 0" type="matrix" in="shadowBlurOuter1"></feColorMatrix>
        </filter>
        <filter x="-43.8%" y="-26.8%" width="187.5%" height="175.0%" filterUnits="objectBoundingBox" id="filter-4">
            <feGaussianBlur stdDeviation="2" in="SourceAlpha" result="shadowBlurInner1"></feGaussianBlur>
            <feOffset dx="0" dy="2" in="shadowBlurInner1" result="shadowOffsetInner1"></feOffset>
            <feComposite in="shadowOffsetInner1" in2="SourceAlpha" operator="arithmetic" k2="-1" k3="1" result="shadowInnerInner1"></feComposite>
            <feColorMatrix values="0 0 0 0 0.988235294   0 0 0 0 0.988235294   0 0 0 0 0.992156863  0 0 0 0.299142264 0" type="matrix" in="shadowInnerInner1"></feColorMatrix>
        </filter>
    </defs>
    <g id="icon/people" stroke="none" stroke-width="1" fill="none" fill-rule="evenodd">
        <g id="编组-16" transform="translate(4.000000, 2.000000)">
            <path d="M14.5454545,6.5584284 C14.5454545,2.66469197 11.6149547,1.47873073 8,1.47873073 C4.38504527,1.47873073 1.45454545,2.66469197 1.45454545,6.5584284 C1.45454545,7.33605881 6.26355193,9.08371832 7.0880016,10.9332762 C7.57301506,12.021348 5.87248315,13.4778415 5.74239835,14.5696398 C5.53666046,16.2963925 5.74239835,17.4545455 8,17.4545455 C10.1975195,17.4545455 10.1975195,16.249499 10.1607666,14.5696398 C10.1311497,13.2159457 8.86084814,11.4857906 9.42325107,10.3273691 C10.4310613,8.2515104 14.5454545,7.41827091 14.5454545,6.5584284 Z" id="椭圆形" fill="#A2C2FF" filter="url(#filter-1)" transform="translate(8.000000, 9.466638) rotate(-180.000000) translate(-8.000000, -9.466638) "></path>
            <g id="形状结合">
                <use fill="black" fill-opacity="1" filter="url(#filter-3)" xlink:href="#path-2"></use>
                <use fill-opacity="0.6" fill="#3E4A62" fill-rule="evenodd" xlink:href="#path-2"></use>
                <use fill="black" fill-opacity="1" filter="url(#filter-4)" xlink:href="#path-2"></use>
            </g>
        </g>
    </g>
</svg>