<?xml version="1.0" encoding="UTF-8"?>
<svg width="22px" height="12px" viewBox="0 0 22 12" version="1.1" xmlns="http://www.w3.org/2000/svg" xmlns:xlink="http://www.w3.org/1999/xlink">
    <title>反向体位</title>
    <g id="骨性标记" stroke="none" stroke-width="1" fill="none" fill-rule="evenodd">
        <g id="5.工具集-截屏/书签" transform="translate(-1675.000000, -674.000000)" fill="#C9D3E6" fill-rule="nonzero">
            <g id="编组-10" transform="translate(1561.000000, 660.000000)">
                <g id="反向体位" transform="translate(114.000000, 14.000000)">
                    <path d="M2.5055535,2.44446617 L0.0610890525,2.44446617 L0.0610890525,2.44446583 C0.0610890525,3.79450295 1.15550993,4.88893028 2.5055535,4.88893028 C3.85559062,4.88893028 4.95001795,3.7945094 4.95001795,2.44446583 C4.95001795,2.44446581 4.95001795,2.44446578 4.95001795,2.44446576 L4.95001795,2.44446576 C4.95001795,1.09442864 3.85559707,1.30940474e-06 2.5055535,1.30940474e-06 C1.15551638,1.30940474e-06 0.0610890525,1.09442219 0.0610890525,2.44446576 L2.5055535,2.44446617 Z" id="路径"></path>
                    <path d="M21.6131882,0.770006516 C21.4583723,0.770006516 21.3239272,0.867784879 21.258741,1.00630389 C20.6802191,2.2733485 19.4090988,3.15335398 17.9261285,3.15335398 C16.9361223,3.15335398 16.0398208,2.76224139 15.383888,2.1266802 C14.1575845,0.945191201 12.6175642,0.142594404 10.9186766,0.0244446445 L10.592748,0 C8.06681432,0 5.98902598,1.91482619 5.73235056,4.37151747 C5.7038318,4.64855591 5.92383318,4.8889289 6.20087183,4.8889289 L21.2016997,4.8889289 C21.6417024,4.8889289 22.000223,4.5304083 22.000223,4.09040556 L22.000223,1.15706111 C22.000223,0.941133207 21.8291109,0.770021985 21.6131839,0.770021985 L21.6131882,0.770006516 Z" id="路径"></path>
                    <path d="M21.3890188,6.5185521 L0.611113964,6.5185521 C0.272962833,6.5185521 0,6.24558711 0,5.90743813 C0,5.569287 0.272964982,5.29632417 0.611113964,5.29632417 L21.3890188,5.29632417 C21.7271699,5.29632417 22.0001328,5.56928915 22.0001328,5.90743813 C22.0001328,6.24558926 21.7271678,6.5185521 21.3890188,6.5185521 Z M15.5345331,11.635625 L6.46557817,11.635625 C6.12742704,11.635625 5.85446421,11.36266 5.85446421,11.024511 C5.85446421,10.6863599 6.12742919,10.4133971 6.46557817,10.4133971 L15.5385937,10.4133971 C15.8767448,10.4133971 16.1497076,10.686362 16.1497076,11.024511 C16.1456335,11.3626622 15.8726692,11.635625 15.5345181,11.635625 L15.5345331,11.635625 Z" id="形状"></path>
                    <path d="M14.9356309,10.7515375 C14.6219249,10.1363479 14.4345177,9.35819615 14.4345177,8.50670706 C14.4345177,7.65522011 14.6219262,6.88114185 14.9356309,6.26187667 L9.70041473,6.26187667 C10.0141208,6.87706624 10.201528,7.65521797 10.201528,8.50670706 C10.201528,9.35819401 10.0141195,10.1322723 9.70041473,10.7515375 L14.9356309,10.7515375 Z" id="路径"></path>
                </g>
            </g>
        </g>
    </g>
</svg>