<?xml version="1.0" encoding="UTF-8"?>
<svg width="28px" height="24px" viewBox="0 0 28 24" version="1.1" xmlns="http://www.w3.org/2000/svg" xmlns:xlink="http://www.w3.org/1999/xlink">
    <title>假体旋转</title>
    <g id="web-plan假体规划（2021/08更新）" stroke="none" stroke-width="1" fill="none" fill-rule="evenodd">
        <g id="20.位调整方向盘交互说明" transform="translate(-554.000000, -198.000000)" fill="#C9D3E6" fill-rule="nonzero">
            <g id="编组-8" transform="translate(437.000000, 179.000000)">
                <g id="编组-3" transform="translate(110.000000, 10.000000)">
                    <path d="M27.4080004,31.516 C27.8070003,31.656 28.2260003,31.741 28.6520003,31.771 L28.6520003,31.771 L28.5680003,33 C28.0338691,32.9637625 27.5070941,32.8554484 27.0020004,32.678 L27.0020004,32.678 Z M31.1160002,31.273 L31.6700002,32.372 L31.6700002,32.372 C31.193,32.614 30.6840001,32.79 30.1600001,32.896 L29.9170002,31.689 L29.9170002,31.689 C30.3337347,31.6055389 30.7371253,31.4655797 31.1160002,31.273 Z M18.5671072,9 L18.5844472,9.00220247 L18.9632578,9.12891753 L29.7647203,12.7502958 L29.7620526,12.7556312 C29.9620671,12.8389729 30.1010597,13.018771 30.1345052,13.2274864 L30.1422472,13.3185094 L30.142,19.187 L28.666,19.187 L28.6661021,14.6813901 L28.6628746,14.6708711 C28.6555004,14.6537278 28.6397919,14.6427338 28.6225197,14.6405868 L28.596285,14.6443386 L19.3340835,18.5765 C19.3213144,18.5820705 19.3114971,18.5922689 19.3062621,18.6046397 L19.3020504,18.6245183 L19.3029479,30.6960937 L19.3061754,30.7066126 C19.3135496,30.7237559 19.3292581,30.7347499 19.3465303,30.736897 L19.372765,30.7331451 L21.146,29.98 L21.146,31.581 L19.3073788,32.3618052 L18.9339023,32.5205327 L18.5911055,32.6645878 L18.571598,32.6685893 L18.571598,32.6685893 L18.5510901,32.6645878 L18.2082932,32.5218665 L17.8348167,32.3618052 L7.0306813,27.7773864 C7.01734293,27.7720511 7.00815358,27.7613803 7.00350939,27.7489311 L7.00000149,27.729368 L7.00000149,13.3211813 C6.99952274,13.1041563 7.1141449,12.9058119 7.29660224,12.7967164 L7.37881361,12.7556312 L7.37614589,12.7502958 L18.1736225,9.12891753 L18.5497672,9.00220247 L18.5671072,9 Z M25.3390005,30.0799999 C25.6125364,30.4064046 25.9283098,30.694939 26.2780005,30.9379999 L26.2780005,30.938 L25.5780005,31.95 C25.1380006,31.645 24.7410006,31.283 24.3980006,30.872 L25.3390005,30.0799999 Z M32.9829998,29.581 L34.0189998,30.245 C33.7309998,30.695 33.3849998,31.106 32.9879999,31.466 L32.1629999,30.553 C32.4785952,30.2671516 32.7543905,29.9402328 32.9829998,29.581 Z M8.47203733,14.6678084 L8.46585977,14.6923803 L8.46585977,26.7529889 C8.46524265,26.7669151 8.47049994,26.780108 8.4798117,26.7896935 L8.49659269,26.8010072 L17.761467,30.7331686 C17.7669059,30.7360841 17.7742386,30.7374848 17.7816139,30.7372936 C17.8002683,30.736743 17.816278,30.7261879 17.8246463,30.7109215 L17.8308431,30.6851502 L17.8308431,18.6245417 C17.8308431,18.6094248 17.8254982,18.5966792 17.8160068,18.5874905 L17.7988095,18.5765233 L8.53660809,14.644362 C8.51059815,14.6343581 8.48380719,14.6461126 8.47203733,14.6678084 Z M34.0680001,21 L35,25.667 L30.3430004,24.734 L31.8430008,23.2300004 C31.0204352,22.6010535 30.0134697,22.2608269 28.978001,22.2620004 C26.3600013,22.2620004 24.2290015,24.3970004 24.2290015,27.0220004 C24.2290014,27.7055648 24.3755453,28.3817507 24.6587701,29.0044898 L23.5427703,29.5184898 C23.1854953,28.7346836 23.0004125,27.8833961 23,27.0219898 C23,23.7179898 25.6819998,21.0309898 28.9779995,21.0309898 L28.9780005,21.03 C30.3401754,21.027647 31.6616097,21.4944906 32.7200002,22.352 L34.0680001,21 Z M33.6779997,27.718 L34.8939997,27.896 C34.8499997,28.196 34.7829997,28.496 34.6939997,28.785 L33.5189997,28.4220003 C33.5898332,28.1917206 33.6429875,27.9563706 33.6779997,27.718 Z M18.5684285,10.5467858 L9.79707901,13.4852386 C9.76306607,13.4952425 9.75456283,13.5330069 9.77044387,13.5597046 L9.79441132,13.5812754 L18.5484339,17.297354 L18.5672699,17.3017208 L18.5672699,17.3017208 L18.5871102,17.297354 L27.3397963,13.5812754 C27.3738093,13.5662697 27.3808119,13.5272547 27.3630551,13.5030579 L27.3371286,13.4852386 L18.5684285,10.5467858 Z" id="假体旋转"></path>
                </g>
            </g>
        </g>
    </g>
</svg>