<?xml version="1.0" encoding="UTF-8"?>
<svg width="28px" height="24px" viewBox="0 0 28 24" version="1.1" xmlns="http://www.w3.org/2000/svg" xmlns:xlink="http://www.w3.org/1999/xlink">
    <title>假体平移</title>
    <g id="web-plan假体规划（2021/08更新）" stroke="none" stroke-width="1" fill="none" fill-rule="evenodd">
        <g id="20.位调整方向盘交互说明" transform="translate(-504.000000, -198.000000)" fill="#C9D3E6" fill-rule="nonzero">
            <g id="编组-8" transform="translate(437.000000, 179.000000)">
                <g id="编组-2" transform="translate(60.000000, 10.000000)">
                    <path d="M27.6209636,20.0511387 L29.7786254,22.640911 L28.053074,22.640911 L28.053074,26.0934589 L31.505622,26.0934589 L31.505622,24.3679075 L34.0953942,26.5255694 L31.505622,28.6832312 L31.505622,26.9576798 L28.053074,26.9576798 L28.053074,30.4102277 L29.7786254,30.4102277 L27.6209636,33 L25.4633017,30.4102277 L27.1888531,30.4102277 L27.1888531,26.9576798 L23.7363052,26.9576798 L23.7363052,28.6832312 L21.1465329,26.5255694 L23.7363052,24.3679075 L23.7363052,26.0934589 L27.1888531,26.0934589 L27.1888531,22.640911 L25.4633017,22.640911 L27.6209636,20.0511387 Z M18.5671072,9 L18.5844472,9.00220247 L18.9632578,9.12891753 L29.7647203,12.7502958 L29.7620526,12.7556312 C29.9620671,12.8389729 30.1010597,13.018771 30.1345052,13.2274864 L30.1422472,13.3185094 L30.142,19.187 L28.666,19.187 L28.6661021,14.6813901 L28.6628746,14.6708711 C28.6555004,14.6537278 28.6397919,14.6427338 28.6225197,14.6405868 L28.596285,14.6443386 L19.3340835,18.5765 C19.3213144,18.5820705 19.3114971,18.5922689 19.3062621,18.6046397 L19.3020504,18.6245183 L19.3029479,30.6960937 L19.3061754,30.7066126 C19.3135496,30.7237559 19.3292581,30.7347499 19.3465303,30.736897 L19.372765,30.7331451 L21.146,29.98 L21.146,31.581 L19.3073788,32.3618052 L18.9339023,32.5205327 L18.5911055,32.6645878 L18.571598,32.6685893 L18.571598,32.6685893 L18.5510901,32.6645878 L18.2082932,32.5218665 L17.8348167,32.3618052 L7.0306813,27.7773864 C7.01734293,27.7720511 7.00815358,27.7613803 7.00350939,27.7489311 L7.00000149,27.729368 L7.00000149,13.3211813 C6.99952274,13.1041563 7.1141449,12.9058119 7.29660224,12.7967164 L7.37881361,12.7556312 L7.37614589,12.7502958 L18.1736225,9.12891753 L18.5497672,9.00220247 L18.5671072,9 Z M8.47203733,14.6678084 L8.46585977,14.6923803 L8.46585977,26.7529889 C8.46524265,26.7669151 8.47049994,26.780108 8.4798117,26.7896935 L8.49659269,26.8010072 L17.761467,30.7331686 C17.7669059,30.7360841 17.7742386,30.7374848 17.7816139,30.7372936 C17.8002683,30.736743 17.816278,30.7261879 17.8246463,30.7109215 L17.8308431,30.6851502 L17.8308431,18.6245417 C17.8308431,18.6094248 17.8254982,18.5966792 17.8160068,18.5874905 L17.7988095,18.5765233 L8.53660809,14.644362 C8.51059815,14.6343581 8.48380719,14.6461126 8.47203733,14.6678084 Z M18.5684285,10.5467858 L9.79707901,13.4852386 C9.76306607,13.4952425 9.75456283,13.5330069 9.77044387,13.5597046 L9.79441132,13.5812754 L18.5484339,17.297354 L18.5672699,17.3017208 L18.5672699,17.3017208 L18.5871102,17.297354 L27.3397963,13.5812754 C27.3738093,13.5662697 27.3808119,13.5272547 27.3630551,13.5030579 L27.3371286,13.4852386 L18.5684285,10.5467858 Z" id="假体平移"></path>
                </g>
            </g>
        </g>
    </g>
</svg>