<?xml version="1.0" encoding="UTF-8"?>
<svg width="26px" height="26px" viewBox="0 0 26 26" version="1.1" xmlns="http://www.w3.org/2000/svg" xmlns:xlink="http://www.w3.org/1999/xlink">
    <title>重置</title>
    <g id="web-plan假体规划（2021/08更新）" stroke="none" stroke-width="1" fill="none" fill-rule="evenodd">
        <g id="20.位调整方向盘交互说明" transform="translate(-454.000000, -196.000000)" fill="#C9D3E6" fill-rule="nonzero">
            <g id="编组-8" transform="translate(437.000000, 179.000000)">
                <g id="重置" transform="translate(17.000000, 17.000000)">
                    <path d="M13.0127105,0.545899073 C16.5635261,0.545899073 19.9100762,2.06831587 22.2464623,4.64378008 L24.5405308,2.35071145 L25.4414359,8.91211975 L18.9030186,7.98822365 L20.8175024,6.0746154 C18.8567408,3.87068144 16.0220794,2.56445611 13.0127105,2.56445611 C7.25918813,2.56445611 2.57715144,7.24649281 2.57715144,13.0000151 C2.57715144,18.7535374 7.25918813,23.4355741 13.0127105,23.4355741 C17.6084189,23.4355741 21.6150642,20.4902582 22.9785424,16.1052922 L24.9082321,16.7045116 C23.2781521,21.9375255 18.4996309,25.4541312 13.0127105,25.4541312 C6.1445384,25.4541312 0.5585944,19.8681872 0.5585944,13.0000151 C0.5585944,6.13184307 6.1445384,0.545899073 13.0127105,0.545899073 Z M14.5479623,7.42856806 C15.2129335,7.65791721 15.8255197,8.01513844 16.3516568,8.4790897 L16.5717519,8.68439912 C16.3171152,9.26074855 16.3234919,9.91563665 16.5827629,10.4834125 L16.668123,10.6509665 C16.9518168,11.1595552 17.4391841,11.5187389 18.0027069,11.6420598 L18.1739209,11.6718938 C18.3159085,12.3954007 18.3226566,13.1380212 18.1947958,13.8623283 L18.1317586,14.1715153 C17.5676638,14.2680355 17.0722761,14.5952094 16.7616723,15.0698149 L16.6741507,15.2165364 C16.3967773,15.713777 16.3245859,16.2969531 16.4678298,16.8430087 L16.5235709,17.0234836 C15.9946778,17.5308881 15.3684852,17.9243024 14.6838821,18.1806291 L14.4244939,18.2702806 C13.7560945,17.4078837 12.5151363,17.2506176 11.6527355,17.9190183 C11.565135,17.9869129 11.4834813,18.0619981 11.4086037,18.1434443 L11.3014732,18.2702806 C10.6249449,18.0541238 9.99939848,17.7053521 9.4608827,17.2454137 L9.23552376,17.0415535 C9.43848737,16.4979079 9.41777081,15.8987763 9.18311799,15.3736153 L9.09699021,15.2014789 C8.8160816,14.6792726 8.3230074,14.307929 7.74949892,14.1793996 L7.59119215,14.150435 C7.51482875,13.830649 7.4650607,13.5052836 7.44230385,13.1776707 L7.42856613,12.8495231 C7.42843109,12.5607455 7.44881346,12.2724448 7.48951127,11.9867941 L7.53697353,11.7021072 C8.14249407,11.6340735 8.68246021,11.2986021 9.01233153,10.7930772 L9.09697887,10.6510638 C9.40428774,10.0956261 9.45622349,9.43777727 9.24616434,8.84511083 L9.17527967,8.66943441 C9.67933148,8.17878886 10.274246,7.79277546 10.9256053,7.5324028 L11.2081148,7.42856806 C11.797324,8.3508416 13.0226192,8.62084457 13.9448952,8.03163531 C14.1388243,7.90774071 14.3093141,7.75125781 14.4490454,7.56950573 L14.5479623,7.42856806 Z M12.8734848,10.50946 C11.5861443,10.5028483 10.5371584,11.5410586 10.5304889,12.8284004 L10.5304889,12.8494329 C10.5320909,14.0765864 11.4843239,15.0811145 12.6906916,15.1656459 L12.8494286,15.171397 C14.1367692,15.1780087 15.1857551,14.1397984 15.1924252,12.8524566 C15.1990369,11.5651161 14.1608267,10.5161301 12.8734848,10.50946 Z"></path>
                </g>
            </g>
        </g>
    </g>
</svg>