<?xml version="1.0" encoding="UTF-8"?>
<svg width="40px" height="40px" viewBox="0 0 40 40" version="1.1" xmlns="http://www.w3.org/2000/svg" xmlns:xlink="http://www.w3.org/1999/xlink">
    <title>icon/假体复位</title>
    <g id="icon/假体复位" stroke="none" stroke-width="1" fill="none" fill-rule="evenodd">
        <g id="编组-4" transform="translate(10.000000, 9.000000)" fill="#C9D3E6" fill-rule="nonzero">
            <g id="编组-2">
                <g id="骨科">
                    <path d="M8.50714003,11.4968278 C7.84402604,11.8101561 7.72448564,11.3790522 7.51247004,11.1701678 L7.51246997,11.1701677 C7.17067506,10.805022 6.94077261,10.3520108 6.84935598,9.86352557 L6.84935599,9.86352547 C6.9098557,9.29854557 6.79420172,8.72881575 6.51779998,8.23022135 L6.51779999,8.23022135 C6.22525291,7.95322056 5.81782002,7.82736739 5.41712121,7.89022757 C4.4359848,7.90356066 3.8788796,8.11244616 3.534916,7.57689931 C3.25636241,7.13246212 3.01840958,5.79915446 2.87180201,5.6180484 C2.35529559,5.47471762 1.3076212,5.97026462 0.936594382,7.44690364 L0.936594259,7.44690425 C0.678964502,8.72810544 0.793895908,10.0549425 1.26815224,11.2746077 L1.2681527,11.2746139 C1.3634948,12.5496081 1.34575921,13.8303679 1.21514771,15.1023173 L1.21514769,15.1023174 C0.941894933,16.1537513 0.546054892,17.1705023 0.0355272764,18.132262 C-0.123484527,18.5111438 0.274608072,18.86336 0.765177266,18.9944689 L0.765178907,18.9944696 C1.92575675,19.4334147 3.12361489,19.7699144 4.34463098,20 C4.7156578,20 5.0336822,18.8111331 5.16675618,18.0411491 L5.1667557,18.0411505 C5.41584743,17.2863264 5.76347246,16.5666072 6.20089452,15.9000764 C6.25389852,15.8089669 6.18736159,15.6389698 6.12082474,15.6911915 C5.15321994,15.9389644 4.70212353,16.9056147 4.26455874,17.7811533 L4.26455874,17.7811533 C4.48256703,16.4324787 5.45950876,15.3230537 6.7839427,14.9200923 L6.78394256,14.9200924 C7.18617175,14.7951187 7.5665236,14.6099984 7.91168653,14.3712137 L7.91168668,14.3712136 C8.58464905,14.0077164 9.14388726,13.4698004 9.52887189,12.8156874 C9.64841268,12.5279153 9.36986009,12.1756991 9.19731589,11.8357053 C8.9187623,11.7968171 8.76087905,11.3790476 8.50713671,11.4968228 L8.50714003,11.4968278 Z M17.8403385,1.84366443 L15.5848466,0.5370223 C15.5848466,0.5370223 14.5247666,-0.286296634 14.1266746,0.105918853 L14.1266754,0.105918129 C13.268374,0.935074848 12.3365291,1.68694392 11.3422694,2.35253722 L11.3422694,2.35253723 C11.2942356,2.37854515 11.276696,2.4379927 11.3030938,2.48531722 C11.3214329,2.51819475 11.3572483,2.5378354 11.3952734,2.53586708 L11.3952737,2.53586705 C12.5082987,2.43202461 13.5804513,2.06951229 14.5236393,1.47810904 L14.5236392,1.47810908 C12.8887872,2.55840574 10.9661914,3.13826428 8.99768603,3.14474463 L8.99768601,3.14474462 C7.94817992,2.83226987 6.82228152,2.8784741 5.80279236,3.27585336 L5.80279237,3.27585335 C4.9923532,3.55716266 4.42066773,4.27551477 4.33672461,5.11804234 L4.33672458,5.11804248 C4.13805027,6.02964105 4.6620064,6.94375716 5.55694376,7.24689029 C6.48507775,7.43022034 6.97564497,7.06356024 7.51921856,7.62577203 L7.51921854,7.62577201 C7.82090828,8.03213763 7.91383348,8.55354021 7.77070496,9.03685754 C7.43914895,9.95128614 8.45975617,11.1001597 9.32135218,11.2057046 L9.32135219,11.2057046 C10.4822333,11.1768331 11.5537892,10.5851417 12.1846958,9.62462219 C12.741801,8.71019359 13.0598254,7.29911782 13.6428678,6.40245453 C14.2135066,5.54024763 16.2682487,4.23360745 17.5674095,3.16251375 L17.5674094,3.16251379 C18.0109292,2.87167535 18.1332885,2.28280526 17.8414511,1.84364922 L17.8403385,1.84366443 Z" id="形状"></path>
                </g>
            </g>
        </g>
        <path d="M31.6661742,20.2499845 C30.6522907,19.4662943 29.3805998,19 28,19 C24.6862915,19 22,21.6862915 22,25 C22,28.3137085 24.6862915,31 28,31 C31.3137085,31 34,28.3137085 34,25" id="路径" stroke="#C9D3E6" stroke-width="2"></path>
        <polygon id="矩形" fill="#C9D3E6" transform="translate(32.395032, 20.449760) rotate(-330.000000) translate(-32.395032, -20.449760) " points="30.7610572 17.409696 34.5600953 20.989823 30.2299682 23.489823"></polygon>
    </g>
</svg>