<?xml version="1.0" encoding="UTF-8"?>
<svg width="40px" height="40px" viewBox="0 0 40 40" version="1.1" xmlns="http://www.w3.org/2000/svg" xmlns:xlink="http://www.w3.org/1999/xlink">
    <title>icon/chongzuo</title>
    <g id="icon/chongzuo" stroke="none" stroke-width="1" fill="none" fill-rule="evenodd">
        <path d="M15.887595,20.5729917 C15.887595,20.6834486 15.798052,20.7729917 15.687595,20.7729917 C15.6408077,20.7729917 15.5955011,20.7565884 15.5595581,20.7266359 L10.0719681,16.1536443 C9.98711276,16.0829314 9.97564794,15.9568185 10.0463608,15.8719631 C10.0541046,15.8626705 10.0626755,15.8540996 10.0719681,15.8463557 L15.5595581,11.2733641 C15.6444135,11.2026513 15.7705265,11.2141161 15.8412393,11.2989714 C15.8711918,11.3349144 15.887595,11.380221 15.887595,11.4270083 L15.887,14.9990033 L28.6395892,15 C28.873594,15 29.0688456,15.0389793 29.2724792,15.1515647 C29.4777404,15.2650501 29.6427616,15.4356491 29.7499442,15.6428373 C29.8321057,15.8016586 29.8709053,15.9531654 29.8831387,16.1241138 L29.887595,16.2563885 L29.887595,27.7436115 C29.887595,27.9715383 29.8526461,28.158636 29.7499442,28.3571627 C29.6427616,28.5643509 29.4777404,28.7349499 29.2724792,28.8484353 C29.1095723,28.9385036 28.9520299,28.981464 28.7757188,28.9950455 L28.6395892,29 L12.087595,29 C11.9771381,29 11.887595,28.9104569 11.887595,28.8 L11.887595,27.2 C11.887595,27.0895431 11.9771381,27 12.087595,27 L27.687595,27 C27.798052,27 27.887595,26.9104569 27.887595,26.8 L27.887595,17.2 C27.887595,17.0895431 27.798052,17 27.687595,17 L15.887,16.9990033 L15.887595,20.5729917 Z" id="形状结合" fill="#C9D3E6" transform="translate(19.943798, 20.113502) scale(-1, 1) translate(-19.943798, -20.113502) "></path>
    </g>
</svg>