<?xml version="1.0" encoding="UTF-8"?>
<svg width="21px" height="18px" viewBox="0 0 21 18" version="1.1" xmlns="http://www.w3.org/2000/svg" xmlns:xlink="http://www.w3.org/1999/xlink">
    <title>重做</title>
    <g id="骨性标记" stroke="none" stroke-width="1" fill="none" fill-rule="evenodd">
        <g id="7.骨性标记-工作流说明" transform="translate(-3247.000000, -880.000000)" fill="#C9D3E6">
            <g id="编组-19" transform="translate(2932.000000, 614.000000)">
                <g id="icon/shoudongpeizhun" transform="translate(305.000000, 255.000000)">
                    <path d="M16.2847849,20.5796402 C16.2847849,20.6900971 16.1952419,20.7796402 16.0847849,20.7796402 C16.0388297,20.7796402 15.9942765,20.7638143 15.9586189,20.7348244 L10.3256615,16.1551842 C10.2399556,16.0855046 10.2269637,15.9595399 10.2966433,15.873834 C10.3052954,15.8631918 10.3150193,15.8534679 10.3256615,15.8448158 L15.9586189,11.2651756 C16.0443248,11.1954961 16.1702895,11.2084879 16.2399691,11.2941938 C16.268959,11.3298514 16.2847849,11.3744047 16.2847849,11.4203598 L16.284,14.9990033 L29.355579,15 C29.5954338,15 29.7955668,15.0389793 30.0042912,15.1515647 C30.2146839,15.2650501 30.3838306,15.4356491 30.4936929,15.6428373 C30.5779084,15.8016586 30.617678,15.9531654 30.6302172,16.1241138 L30.6347849,16.2563885 L30.6347849,27.7436115 C30.6347849,27.9715383 30.5989622,28.158636 30.4936929,28.3571627 C30.3838306,28.5643509 30.2146839,28.7349499 30.0042912,28.8484353 C29.8373117,28.9385036 29.6758306,28.981464 29.4951117,28.9950455 L29.355579,29 L12.3847849,29 C12.274328,29 12.1847849,28.9104569 12.1847849,28.8 L12.1847849,27.2 C12.1847849,27.0895431 12.274328,27 12.3847849,27 L28.3847849,27 C28.4952419,27 28.5847849,26.9104569 28.5847849,26.8 L28.5847849,17.2 C28.5847849,17.0895431 28.4952419,17 28.3847849,17 L16.284,16.9990033 L16.2847849,20.5796402 Z" id="形状结合" transform="translate(20.442392, 20.113502) scale(-1, 1) translate(-20.442392, -20.113502) "></path>
                </g>
            </g>
        </g>
    </g>
</svg>