<?xml version="1.0" encoding="UTF-8"?>
<svg width="40px" height="40px" viewBox="0 0 40 40" version="1.1" xmlns="http://www.w3.org/2000/svg" xmlns:xlink="http://www.w3.org/1999/xlink">
    <title>icon/图像重置</title>
    <g id="icon/图像重置" stroke="none" stroke-width="1" fill="none" fill-rule="evenodd">
        <path d="M8.37920142,23.8194279 L18.4140133,19.0409461 C18.4684114,19.0150422 18.5315886,19.0150422 18.5859867,19.0409461 L28.6207986,23.8194279 C28.7205258,23.866917 28.7628731,23.9862595 28.715384,24.0859867 C28.6956459,24.1274366 28.6622485,24.1608341 28.6207986,24.1805721 L18.5859867,28.9590539 C18.5315886,28.9849578 18.4684114,28.9849578 18.4140133,28.9590539 L8.37920142,24.1805721 C8.2794742,24.133083 8.23712688,24.0137405 8.28461603,23.9140133 C8.30435408,23.8725634 8.33775151,23.8391659 8.37920142,23.8194279 Z" id="矩形备份-2" fill-opacity="0.2" fill="#C9D3E6"></path>
        <path d="M8.33822659,19.3228337 L18.4071986,14.0486103 C18.4653207,14.0181653 18.5346793,14.0181653 18.5928014,14.0486103 L28.6617734,19.3228337 C28.7596197,19.3740865 28.7973911,19.4949551 28.7461383,19.5928014 C28.727255,19.6288514 28.6978234,19.658283 28.6617734,19.6771663 L18.5928014,24.9513897 C18.5346793,24.9818347 18.4653207,24.9818347 18.4071986,24.9513897 L8.33822659,19.6771663 C8.24038034,19.6259135 8.20260888,19.5050449 8.25386168,19.4071986 C8.27274502,19.3711486 8.30217657,19.341717 8.33822659,19.3228337 Z" id="矩形备份" fill-opacity="0.5" fill="#C9D3E6"></path>
        <path d="M8.37920142,14.8194279 L18.4140133,10.0409461 C18.4684114,10.0150422 18.5315886,10.0150422 18.5859867,10.0409461 L28.6207986,14.8194279 C28.7205258,14.866917 28.7628731,14.9862595 28.715384,15.0859867 C28.6956459,15.1274366 28.6622485,15.1608341 28.6207986,15.1805721 L18.5859867,19.9590539 C18.5315886,19.9849578 18.4684114,19.9849578 18.4140133,19.9590539 L8.37920142,15.1805721 C8.2794742,15.133083 8.23712688,15.0137405 8.28461603,14.9140133 C8.30435408,14.8725634 8.33775151,14.8391659 8.37920142,14.8194279 Z" id="矩形" fill-opacity="0.8" fill="#C9D3E6"></path>
        <path d="M31.6661742,20.2499845 C30.6522907,19.4662943 29.3805998,19 28,19 C24.6862915,19 22,21.6862915 22,25 C22,28.3137085 24.6862915,31 28,31 C31.3137085,31 34,28.3137085 34,25" id="路径" stroke="#C9D3E6" stroke-width="2"></path>
        <polygon id="矩形" fill="#C9D3E6" transform="translate(32.395032, 20.449760) rotate(-330.000000) translate(-32.395032, -20.449760) " points="30.7610572 17.409696 34.5600953 20.989823 30.2299682 23.489823"></polygon>
    </g>
</svg>