<?xml version="1.0" encoding="UTF-8"?>
<svg width="40px" height="40px" viewBox="0 0 40 40" version="1.1" xmlns="http://www.w3.org/2000/svg" xmlns:xlink="http://www.w3.org/1999/xlink">
    <title>icon/toumingduchexiao</title>
    <g id="icon/toumingduchexiao" stroke="none" stroke-width="1" fill="none" fill-rule="evenodd">
        <g id="编组" transform="translate(7.000000, 7.000000)" fill="#C9D3E6">
            <path d="M19,21.564215 C19,21.674672 18.9104569,21.764215 18.8,21.764215 C18.7545857,21.764215 18.7105236,21.7487589 18.675061,21.7203888 L14.1952172,18.1365138 C14.1089648,18.0675119 14.0949805,17.9416534 14.1639824,17.855401 C14.1732088,17.8438681 14.1836843,17.8333926 14.1952172,17.8241662 L18.675061,14.2402912 C18.7613134,14.1712893 18.8871719,14.1852736 18.9561738,14.271526 C18.9845438,14.3069886 19,14.3510507 19,14.396465 L18.999,17 L24.7519942,17 C24.9859989,17 25.1812506,17.0389793 25.3848842,17.1515647 C25.5901454,17.2650501 25.7551666,17.4356491 25.8623492,17.6428373 C25.9445107,17.8016586 25.9833103,17.9531654 25.9955437,18.1241138 L26,18.2563885 L26,23.7436115 C26,23.9715383 25.9650511,24.158636 25.8623492,24.3571627 C25.7551666,24.5643509 25.5901454,24.7349499 25.3848842,24.8484353 C25.2219773,24.9385036 25.0644349,24.981464 24.8881238,24.9950455 L24.7519942,25 L16.2,25 C16.0895431,25 16,24.9104569 16,24.8 L16,23.2 C16,23.0895431 16.0895431,23 16.2,23 L23.8,23 C23.9104569,23 24,22.9104569 24,22.8 L24,19.2 C24,19.0895431 23.9104569,19 23.8,19 L18.999,19 L19,21.564215 Z M5.91883066,19.0508137 L6.94918626,20.0811693 C7.02729112,20.1592742 7.02729112,20.2859072 6.94918626,20.364012 L4.60563235,22.707566 C4.5275275,22.7856708 4.4008945,22.7856708 4.32278964,22.707566 L3.29243405,21.6772104 C3.21432919,21.5991055 3.21432919,21.4724725 3.29243405,21.3943676 L5.63598795,19.0508137 C5.71409281,18.9727089 5.8407258,18.9727089 5.91883066,19.0508137 Z M13,5.57142857 C17.1026867,5.57142857 20.4285714,8.89731329 20.4285714,13 L18.4285714,13 C18.4285714,10.0018828 15.9981172,7.57142857 13,7.57142857 C10.0018828,7.57142857 7.57142857,10.0018828 7.57142857,13 C7.57142857,15.9981172 10.0018828,18.4285714 13,18.4285714 L13,20.4285714 C8.89731329,20.4285714 5.57142857,17.1026867 5.57142857,13 C5.57142857,8.89731329 8.89731329,5.57142857 13,5.57142857 Z M3.51428571,12.0714286 C3.62474266,12.0714286 3.71428571,12.1609716 3.71428571,12.2714286 L3.71428571,13.7285714 C3.71428571,13.8390284 3.62474266,13.9285714 3.51428571,13.9285714 L0.2,13.9285714 C0.08954305,13.9285714 3.91894499e-13,13.8390284 3.91686683e-13,13.7285714 L3.91686683e-13,12.2714286 C3.91700912e-13,12.1609716 0.08954305,12.0714286 0.2,12.0714286 L3.51428571,12.0714286 Z M25.8,12.0714286 C25.9104569,12.0714286 26,12.1609716 26,12.2714286 L26,13.7285714 C26,13.8390284 25.9104569,13.9285714 25.8,13.9285714 L22.4857143,13.9285714 C22.3752573,13.9285714 22.2857143,13.8390284 22.2857143,13.7285714 L22.2857143,12.2714286 C22.2857143,12.1609716 22.3752573,12.0714286 22.4857143,12.0714286 L25.8,12.0714286 Z M21.6772104,3.29243405 L22.707566,4.32278964 C22.7856708,4.4008945 22.7856708,4.5275275 22.707566,4.60563235 L20.364012,6.94918626 C20.2859072,7.02729112 20.1592742,7.02729112 20.0811693,6.94918626 L19.0508137,5.91883066 C18.9727089,5.8407258 18.9727089,5.71409281 19.0508137,5.63598795 L21.3943676,3.29243405 C21.4724725,3.21432919 21.5991055,3.21432919 21.6772104,3.29243405 Z M4.60563235,3.29243405 L6.94918626,5.63598795 C7.02729112,5.71409281 7.02729112,5.8407258 6.94918626,5.91883066 L5.91883066,6.94918626 C5.8407258,7.02729112 5.71409281,7.02729112 5.63598795,6.94918626 L3.29243405,4.60563235 C3.21432919,4.5275275 3.21432919,4.4008945 3.29243405,4.32278964 L4.32278964,3.29243405 C4.4008945,3.21432919 4.5275275,3.21432919 4.60563235,3.29243405 Z M13.7285714,3.91686683e-13 C13.8390284,3.91694148e-13 13.9285714,0.08954305 13.9285714,0.2 L13.9285714,3.51428571 C13.9285714,3.62474266 13.8390284,3.71428571 13.7285714,3.71428571 L12.2714286,3.71428571 C12.1609716,3.71428571 12.0714286,3.62474266 12.0714286,3.51428571 L12.0714286,0.2 C12.0714286,0.08954305 12.1609716,3.91901263e-13 12.2714286,3.91686683e-13 L13.7285714,3.91686683e-13 Z" id="形状结合"></path>
            <path d="M13,8.35714286 L13,17.6428571 C10.4358208,17.6428571 8.35714286,15.5641792 8.35714286,13 C8.35714286,10.4358208 10.4358208,8.35714286 13,8.35714286 L13,8.35714286 Z" id="形状结合" fill-opacity="0.8"></path>
        </g>
    </g>
</svg>