<?xml version="1.0" encoding="UTF-8"?>
<svg width="24px" height="24px" viewBox="0 0 24 24" version="1.1" xmlns="http://www.w3.org/2000/svg" xmlns:xlink="http://www.w3.org/1999/xlink">
    <title>重置</title>
    <g id="骨性标记" stroke="none" stroke-width="1" fill="none" fill-rule="evenodd">
        <g id="7.骨性标记-工作流说明" transform="translate(-3040.000000, -879.000000)" fill="#C9D3E6" fill-rule="nonzero">
            <g id="编组-19" transform="translate(2932.000000, 614.000000)">
                <g id="重置" transform="translate(108.000000, 265.000000)">
                    <path d="M12.0117327,23.4961211 C5.6718816,23.4961211 0.5156256,18.3398651 0.5156256,12.000014 C0.5156256,5.66016284 5.6718816,0.503906836 12.0117327,0.503906836 C16.1461125,0.503906836 19.980492,2.73984694 22.0219006,6.34219488 L20.4000237,7.26094595 C18.6890842,4.24219244 15.4757993,2.36719025 12.0117327,2.36719025 C6.70078905,2.36719025 2.37890902,6.68907028 2.37890902,12.000014 C2.37890902,17.3109576 6.70078905,21.6328377 12.0117327,21.6328377 C16.2539252,21.6328377 19.952367,18.9140845 21.2109622,14.8664235 L22.9922143,15.4195492 C21.487525,20.2500236 17.0765824,23.4961211 12.0117327,23.4961211 Z" id="路径"></path>
                    <polygon id="路径" points="17.4489402 7.37374491 22.6527976 2.16988749 23.4844023 8.22657207"></polygon>
                    <g id="设置" transform="translate(6.857143, 6.857143)">
                        <path d="M5.00386812,7.1472236 L5.00386818,7.1472236 C6.19218252,7.15332668 7.16047723,6.19497879 7.16663428,5.00666325 C7.17273735,3.81834891 6.21438946,2.8500542 5.02607392,2.84389715 C3.83775958,2.83779407 2.86946487,3.79614197 2.86330844,4.9844575 C2.86330844,4.99092905 2.86330844,4.99740074 2.86330844,5.0038723 L2.86330844,5.00387212 C2.86485153,6.1858795 3.82186372,7.14412847 5.00386752,7.1472236 L5.00386812,7.1472236 Z M-4.89536706e-06,5.00386812 L-4.89536706e-06,5.00395539 C-0.000171091226,4.64853686 0.0333323013,4.29390072 0.100063372,3.94480228 L0.100063481,3.94480227 C0.709818425,3.87629282 1.24755939,3.5139929 1.54006841,2.9746083 L1.54006841,2.97460832 C1.85210511,2.4106254 1.87890968,1.73225721 1.61234649,1.14541157 L1.61234607,1.14541198 C2.14409304,0.627807892 2.78538874,0.236353696 3.48880916,-3.10688244e-06 L3.48880923,-3.10688244e-06 C4.03269469,0.851326315 5.16373637,1.10055982 6.01506808,0.556674355 C6.23883247,0.413719049 6.42879013,0.223761384 6.57174544,-3.10688244e-06 L6.57174546,-3.10688244e-06 C7.27325349,0.241947644 7.91160356,0.638067555 8.439859,1.15922528 L8.43985887,1.15922556 C8.18130469,1.74444191 8.21428243,2.4173799 8.52881671,2.97451834 L8.5288168,2.97451849 C8.81687512,3.49093166 9.33242109,3.84047087 9.91878415,3.91691286 L9.91878416,3.91691294 C10.0685732,4.68017301 10.0553107,5.46647736 9.87986522,6.22425588 L9.8798651,6.2242559 C9.30709186,6.32226099 8.81105923,6.67788857 8.53438091,7.18889066 L8.53438088,7.18889071 C8.24989531,7.69888105 8.19923539,8.30680364 8.39538415,8.85684197 L8.3953841,8.85684202 C7.84614966,9.38376201 7.18324188,9.77751084 6.45777458,10.0077315 L6.45777457,10.0077315 C5.84079051,9.21167285 4.69529062,9.06650414 3.8992284,9.68348939 C3.77793534,9.77749733 3.6689934,9.88643962 3.5749863,10.0077315 L3.5749863,10.0077315 C2.86128601,9.77969796 2.20905227,9.39177709 1.66795596,8.873522 L1.667956,8.87352191 C1.87612381,8.31593673 1.82938543,7.69511953 1.54007886,7.17499146 L1.54007887,7.17499149 C1.25720587,6.64913341 0.741260942,6.28900376 0.150111521,6.20479753 L0.150111435,6.20479717 C0.0561257093,5.81121437 0.00578364901,5.40847574 -4.89536706e-06,5.0038713 L-4.89536706e-06,5.00386812 Z" id="形状"></path>
                    </g>
                </g>
            </g>
        </g>
    </g>
</svg>