<?xml version="1.0" encoding="UTF-8"?>
<svg width="22px" height="28px" viewBox="0 0 22 28" version="1.1" xmlns="http://www.w3.org/2000/svg" xmlns:xlink="http://www.w3.org/1999/xlink">
    <title>2D旋转</title>
    <g id="工具栏/屏幕截图" stroke="none" stroke-width="1" fill="none" fill-rule="evenodd">
        <g id="1.工具栏配置" transform="translate(-853.000000, -564.000000)" fill="#C9D3E6">
            <g id="编组-4" transform="translate(513.000000, 175.000000)">
                <g id="编组-5" transform="translate(326.000000, 378.000000)">
                    <g id="形状结合" transform="translate(5.000000, 5.000000)">
                        <path d="M26.4384287,17.1931033 L29.4407296,28.3978428 C29.469318,28.5045361 29.4060015,28.6142034 29.2993082,28.6427918 L12.2990137,33.198007 C12.1923205,33.2265954 12.0826531,33.1632789 12.0540647,33.0565856 L9.05176381,21.8518461 C9.02317545,21.7451528 9.08649194,21.6354855 9.19318517,21.6068971 L26.1934797,17.0516819 C26.3001729,17.0230935 26.4098403,17.08641 26.4384287,17.1931033 Z M25.2813734,6.06620877 C25.3552652,5.98410677 25.4817231,5.97745109 25.5638251,6.05134289 L25.5638251,6.05134289 L30.0648557,10.1022704 C30.0700682,10.1069617 30.0750304,10.1119238 30.0797216,10.1171363 C30.1536134,10.1992383 30.1469577,10.3256963 30.0648557,10.3995881 L30.0648557,10.3995881 L25.5638251,14.4505156 C25.5271002,14.483568 25.4794405,14.5018568 25.4300322,14.5018568 C25.3195752,14.5018568 25.2300322,14.4123137 25.2300322,14.3018568 L25.2300322,14.3018568 L25.2289549,11.6279675 C23.8076636,11.5475732 22.6505635,11.7485858 21.7576544,12.2310056 C20.7785738,12.759982 19.7960667,13.7559549 18.8101332,15.2189245 C18.7731267,15.2738363 18.7113438,15.3068758 18.6451268,15.3071648 C18.534653,15.3076469 18.4447054,15.2184809 18.4442233,15.1080071 L18.4442233,15.1080071 L18.4471049,14.7802204 C18.4947579,12.624637 19.1155944,11.0622571 20.3096144,10.0930809 C21.4939782,9.13174244 23.1337011,8.65915217 25.228783,8.67531009 L25.228783,8.67531009 L25.2300322,6.20000172 C25.2300322,6.15059336 25.2483209,6.10293372 25.2813734,6.06620877 Z"></path>
                    </g>
                </g>
            </g>
        </g>
    </g>
</svg>