<?xml version="1.0" encoding="UTF-8"?>
<svg width="19px" height="19px" viewBox="0 0 19 19" version="1.1" xmlns="http://www.w3.org/2000/svg" xmlns:xlink="http://www.w3.org/1999/xlink">
    <title>编组 34</title>
    <g id="假体规划" stroke="none" stroke-width="1" fill="none" fill-rule="evenodd">
        <g id="3.关节运动模拟" transform="translate(-1142.000000, -606.000000)">
            <g id="编组-34" transform="translate(1142.000000, 606.000000)">
                <circle id="椭圆形" fill="#2AABFF" cx="9.5" cy="9.5" r="9.5"></circle>
                <g id="旋转" transform="translate(5.000000, 5.000000)" fill="#FFFFFF" fill-rule="nonzero">
                    <path d="M1.30384819,7.67353066 L1.30384818,7.67353065 C1.18989725,7.55903906 1.19034466,7.37385881 1.30484753,7.25991918 C1.3051139,7.25965412 1.30538078,7.25938957 1.30564818,7.25912553 L1.30564816,7.25912554 C1.42128237,7.14516657 1.6072501,7.14597077 1.72189456,7.26092532 L1.72189465,7.26092542 C2.456806,8.00056009 3.45700104,8.41563231 4.49971562,8.41369872 C5.41770984,8.41369872 6.28664745,8.09783303 6.96839464,7.54079374 L7.28114134,7.25237542 L7.28114131,7.25237545 C7.40051035,7.14245944 7.58622669,7.14949333 7.69693766,7.26812369 L7.69693766,7.26812369 C7.80692346,7.38642886 7.80017103,7.57148606 7.68185423,7.68146095 C7.68163239,7.68166715 7.68141024,7.681873 7.68118776,7.6820785 L7.35539066,7.98219595 L7.3553905,7.98219608 C6.55016584,8.64200938 5.54078796,9.00176236 4.4997171,8.99999351 L4.49971731,8.99999351 C3.30009363,9.00191559 2.14946505,8.5243423 1.30384713,7.67353303 L1.30384819,7.67353066 Z M8.89392888,5.48946647 L8.89392889,5.48946643 C8.85901106,5.6482584 8.70196555,5.74868134 8.54315695,5.71376679 C8.38434923,5.67885242 8.28391634,5.52182248 8.31883434,5.36302963 L8.31883429,5.3630299 C8.75542937,3.39250475 7.61420953,1.41494835 5.68951045,0.806824397 L5.68951044,0.806824396 C5.53529986,0.757621209 5.45017903,0.592734286 5.49938683,0.438539871 C5.5485949,0.284344577 5.71349817,0.199232185 5.86770787,0.248435109 C5.86770787,0.248435109 5.86770788,0.24843511 5.86770788,0.24843511 L5.86770778,0.248435078 C8.08245443,0.947096907 9.39586379,3.22242495 8.89302688,5.48946667 L8.89392888,5.48946647 Z M2.42029272,1.21852754 L2.42029306,1.21852733 C1.03252967,2.08503298 0.334424404,3.726486 0.67295988,5.32702682 L0.672959882,5.32702684 C0.705152572,5.48632682 0.602098871,5.6415601 0.442783183,5.67374916 C0.285212209,5.70558604 0.131246865,5.60510562 0.0969652477,5.44806364 L0.0969650656,5.44806278 C-0.322298912,3.4614888 0.646218966,1.44119998 2.45764219,0.523797752 C2.89008755,0.276325028 3.79187489,-0.0368406566 4.45922418,0.00545406477 C4.53437345,-0.00939435138 4.61717224,0.00545406477 4.68422185,0.0576484334 C4.74092131,0.102643506 4.77197105,0.163836995 4.78187097,0.235829076 C4.78412095,0.259676524 4.778271,0.28172406 4.77287105,0.306471421 L4.77287106,0.306471385 C4.76218478,0.348469739 4.73818879,0.385880731 4.70447175,0.413109946 L2.99943573,2.31820053 L2.99943573,2.31820053 C2.93130874,2.38885202 2.82791338,2.41266976 2.73573862,2.37894393 L2.73573862,2.37894393 C2.64037664,2.34944898 2.56961856,2.26896377 2.5525907,2.17061681 L2.42029167,1.21806712 L2.42029272,1.21852754 Z M2.37664315,8.12077962 C2.35054338,8.11673006 2.31274376,8.39974971 2.07424572,8.27826291 C1.65034945,8.06183666 0.859257247,7.41885617 0.53661397,6.79522305 L0.536613947,6.79522302 C0.482191341,6.7360018 0.456381549,6.65595068 0.465964685,6.57609678 C0.474964609,6.50410461 0.51186422,6.44561086 0.568113374,6.40061614 C0.587463181,6.38621772 0.609062947,6.37991842 0.633362716,6.3718193 L0.633362726,6.3718193 C0.674798382,6.35935843 0.719152032,6.36062098 0.759811185,6.37541891 L3.27123566,6.85596699 C3.36258503,6.87306514 3.43683448,6.95045643 3.45933407,7.05034587 L3.45933407,7.05034588 C3.48331353,7.14734372 3.45079358,7.24958863 3.37518488,7.31491684 L2.37619142,8.12077973 L2.37664315,8.12077962 Z M8.67613315,4.28269318 C8.68603308,4.30744045 8.94793019,4.19405286 8.96638026,4.46087382 C8.9992299,4.93602191 8.85613164,5.94525841 8.48713465,6.54235208 L8.48713466,6.54235206 C8.46463876,6.61971786 8.40938542,6.68335145 8.33593639,6.71648358 L8.33593637,6.71648359 C8.27122664,6.74454715 8.19797046,6.74551948 8.1325382,6.71918328 C8.11003844,6.71018425 8.09383859,6.69443601 8.07403874,6.67778777 L8.07403874,6.67778777 C8.04215845,6.64863428 8.02053732,6.60997269 8.01238932,6.56755009 L7.13039866,4.16751229 L7.13039865,4.16751225 C7.10015811,4.07429459 7.12767106,3.97201276 7.20059804,3.90654041 L7.20059806,3.90654039 C7.27132678,3.83601581 7.37565748,3.8111527 7.47059579,3.84219743 L8.67613509,4.28314991 L8.67613315,4.28269318 Z" id="形状"></path>
                </g>
            </g>
        </g>
    </g>
</svg>