<?xml version="1.0" encoding="UTF-8"?>
<svg width="24px" height="24px" viewBox="0 0 24 24" version="1.1" xmlns="http://www.w3.org/2000/svg" xmlns:xlink="http://www.w3.org/1999/xlink">
    <title>icon/jietu</title>
    <g id="icon/jietu" stroke="none" stroke-width="1" fill="none" fill-rule="evenodd">
        <rect id="矩形" fill-opacity="0.5" fill="#C9D3E6" x="4" y="5" width="15" height="11" rx="0.2"></rect>
        <path d="M20.8825731,9.8 C21.423284,10.3407109 21.4570784,11.1963792 20.9839564,11.7764598 L20.882544,11.8886555 L20.882544,11.8886555 L18.2472204,14.523 L19.4084934,15.6817942 C19.4842497,15.6619031 19.5623828,15.6478781 19.6423778,15.6402341 L19.7846154,15.6334732 C20.6002975,15.6334732 21.2615385,16.2947142 21.2615385,17.1103963 C21.2615385,17.9260784 20.6002975,18.5873193 19.7846154,18.5873193 C18.9689333,18.5873193 18.3076923,17.9260784 18.3076923,17.1103963 C18.3076923,16.9764783 18.3255159,16.8467233 18.3589203,16.723374 L17.2022204,15.568 L16.0435456,16.7283246 C16.076092,16.8501934 16.0934422,16.9782687 16.0934422,17.1103963 C16.0934422,17.9260784 15.4322013,18.5873193 14.6165192,18.5873193 C13.8008371,18.5873193 13.1395961,17.9260784 13.1395961,17.1103963 C13.1395961,16.2947142 13.8008371,15.6334732 14.6165192,15.6334732 C14.7486468,15.6334732 14.876722,15.6508234 14.9985909,15.6833698 L16.1572204,14.524 L13.5191401,11.8881057 C13.5190436,11.8880094 13.5189471,11.887913 13.5188507,11.8878166 L13.4172315,11.7754198 C12.9443584,11.1956445 12.9781351,10.3404264 13.5185614,9.8 L13.5185614,9.8 L17.2022204,13.48 L20.8825731,9.8 Z M14.6165192,16.3719347 C14.2086781,16.3719347 13.8780576,16.7025552 13.8780576,17.1103963 C13.8780576,17.5182373 14.2086781,17.8488578 14.6165192,17.8488578 C15.0243602,17.8488578 15.3549807,17.5182373 15.3549807,17.1103963 C15.3549807,16.7025552 15.0243602,16.3719347 14.6165192,16.3719347 Z M19.7846154,16.3719347 C19.3767743,16.3719347 19.0461538,16.7025552 19.0461538,17.1103963 C19.0461538,17.5182373 19.3767743,17.8488578 19.7846154,17.8488578 C20.1924564,17.8488578 20.5230769,17.5182373 20.5230769,17.1103963 C20.5230769,16.7025552 20.1924564,16.3719347 19.7846154,16.3719347 Z" id="形状结合" fill="#C9D3E6"></path>
    </g>
</svg>