<?xml version="1.0" encoding="UTF-8"?>
<svg width="24px" height="24px" viewBox="0 0 24 24" version="1.1" xmlns="http://www.w3.org/2000/svg" xmlns:xlink="http://www.w3.org/1999/xlink">
    <title>icon/down</title>
    <g id="icon/down" stroke="none" stroke-width="1" fill="none" fill-rule="evenodd">
        <path d="M7.13353112,8.06820715 L6.04956582,9.30549826 C5.97992555,9.38498907 5.98414881,9.50494122 6.05920711,9.57933751 L12.3031815,15.7682406 C12.3813098,15.8456799 12.5073107,15.8454873 12.585202,15.7678097 L18.792486,9.57755206 C18.8673152,9.50292811 18.8711733,9.38296634 18.8012937,9.30368842 L17.7138364,8.0699753 C17.6407978,7.98711342 17.5144154,7.97915013 17.4315535,8.05218879 C17.4284749,8.05490243 17.4254806,8.05771018 17.4225747,8.06060806 L12.5810755,12.8888272 C12.5031841,12.9665049 12.3771832,12.9666974 12.2990549,12.8892582 L7.4247595,8.05795363 C7.34630945,7.98019549 7.2196777,7.98075641 7.14191957,8.05920646 C7.13903177,8.06211995 7.1362343,8.0651216 7.13353112,8.06820715 Z" id="路径-6备份-5" fill="#C9D3E6" transform="translate(12.425630, 11.913097) scale(-1, 1) translate(-12.425630, -11.913097) "></path>
    </g>
</svg>