<?xml version="1.0" encoding="UTF-8"?>
<svg width="40px" height="40px" viewBox="0 0 40 40" version="1.1" xmlns="http://www.w3.org/2000/svg" xmlns:xlink="http://www.w3.org/1999/xlink">
    <title>icon/类DR视图</title>
    <g id="icon/类DR视图" stroke="none" stroke-width="1" fill="none" fill-rule="evenodd">
        <path d="M4,0 L36,0 C38.209139,-4.05812251e-16 40,1.790861 40,4 L40,36 C40,38.209139 38.209139,40 36,40 L4,40 C1.790861,40 2.705415e-16,38.209139 0,36 L0,4 C-2.705415e-16,1.790861 1.790861,4.05812251e-16 4,0 Z" id="矩形备份-6"></path>
        <path d="M29.8262743,7.13407421 C29.9349146,7.13411576 30.0236786,7.22085917 30.0261797,7.3294707 C30.0754625,9.46955138 30.2319423,10.8940722 30.4956192,11.6030331 C30.9030517,12.6985168 32.622372,16.0319633 32.622372,19.0349064 L32.622372,31.8852928 L32.622372,31.8852928 C32.622372,31.9957498 32.532829,32.0852928 32.422372,32.0852928 L23.0857659,32.0852928 C23.0094918,32.0854657 22.9398464,32.0421189 22.9061658,31.973684 C22.5368777,31.2233352 22.2762031,30.3967559 22.1241421,29.4939461 C21.9645033,28.5461464 21.9645033,27.3915787 22.1241421,26.0302429 C21.6975447,25.9042015 21.3470421,25.7777067 21.0726341,25.6507587 C20.8169065,25.5324528 20.488976,25.3497767 20.0888425,25.1027306 C19.6856708,25.3499573 19.3579381,25.5325112 19.1023369,25.6507587 C18.8279289,25.7777067 18.4774263,25.9042015 18.0508289,26.0302429 C18.1867089,27.3876775 18.1748295,28.5402946 18.0151908,29.4880943 C17.863414,30.3892165 17.6141675,31.216156 17.2674513,31.968913 C17.2348116,32.039777 17.1639229,32.0851728 17.0859033,32.0852928 L17.0859033,32.0852928 L7.75259895,32.0852928 C7.642142,32.0852928 7.55259895,31.9957498 7.55259895,31.8852928 L7.55259895,31.8852928 L7.55259895,19.0349064 C7.55259895,16.0319633 9.27191925,12.6985168 9.67935181,11.6030331 C9.94302869,10.8940722 10.0995085,9.46955138 10.1487913,7.3294707 C10.1512924,7.22085917 10.2400564,7.13411576 10.3486967,7.13407421 L10.3486967,7.13407421 L29.8262743,7.13407421 Z" id="形状结合" fill-opacity="0.4" fill="#C9D3E6"></path>
        <path d="M14.5564365,7.83326912 C15.7146931,7.83326912 16.8184681,10.0775347 17.1690674,10.7548466 C17.5196667,11.4321585 18.5739174,13.0489416 17.8097248,13.4101725 C17.0455322,13.7714033 16.8045034,14.3977664 16.6371803,14.4923792 C16.4698572,14.586992 16.1791086,14.4439692 15.8840055,14.7190337 C15.5889025,14.9940982 15.5108242,15.670012 15.9410324,16.7830825 C16.3712406,17.896153 17.148325,18.8324633 17.9983225,19.4496708 C18.84832,20.0668783 19.8822894,19.8175626 19.9087315,19.884186 C19.9351735,19.9508095 19.9087315,20.9164361 19.9087315,21.34097 C19.9087315,21.497178 19.5784969,22.1768064 18.937767,22.5939817 C18.4577293,22.9065314 17.9177128,23.00239 17.7248988,23.0003529 C17.4957073,22.9979314 16.9373312,22.9676962 16.5161104,22.7515397 C16.0948896,22.5353832 15.3271208,22.0360332 15.2791615,21.6745319 C15.2312021,21.3130307 15.3038769,20.1928513 15.0307083,20.0785465 C14.9062669,20.0264752 14.6706961,20.0033437 14.4529467,19.9055679 C14.1861143,19.7857525 13.9412684,19.5879495 13.8292618,19.5052814 C13.7172551,19.4226134 13.2481828,19.0542161 12.8776088,19.7767494 C12.5070348,20.4992826 12.3724108,21.1471014 12.5057869,21.462965 C12.639163,21.7788286 13.0451808,21.8686728 13.0726557,22.0767758 C13.1001306,22.2848787 13.1166248,22.883883 12.906333,23.108736 C12.6960411,23.3335891 12.224185,23.4654565 12.0257959,25.1151538 C11.899287,26.1671347 11.8557298,28.1489067 11.8951244,31.0604699 L11.9010105,31.4632645 L10.0559931,31.4632645 C9.8866593,26.609478 9.77000046,23.8246352 9.70601654,23.108736 C9.61004066,22.0348873 8.84079361,21.3788786 8.69324017,20.9390469 C8.54568672,20.4992151 8.71494293,19.8510325 8.98554611,19.1705313 C9.13061297,18.8057234 9.25063753,18.5491113 9.37422419,18.4106152 C9.49781084,18.2721191 9.69485346,18.2721191 9.79953003,18.2874832 C10.0251684,18.3206017 10.2318835,18.7918262 10.7337432,18.4900301 C11.2356029,18.1882339 11.0944467,17.7483754 11.1992311,17.6791399 C11.3040156,17.6099043 11.5294542,17.9287238 11.709137,17.896153 C11.8888197,17.8635821 11.8905716,17.6844854 12.0257959,17.6099043 C12.1610203,17.5353231 12.358736,17.6099043 12.5057869,17.4572315 C12.6528378,17.3045588 12.6110235,17.0740034 12.6295328,16.9960203 C12.6637595,16.8518166 12.5507773,16.2216638 12.2654289,15.6909137 C11.9305761,15.068085 11.4006031,14.5348264 11.220952,14.3805547 C10.8882093,14.0948186 10.5285616,14.0666275 10.3271818,13.8954144 C9.34657119,13.0616989 9.55811676,11.1041552 10.4634056,10.1233664 C11.4812908,9.02059078 13.39818,7.83326912 14.5564365,7.83326912 Z M25.6185345,7.83326912 C26.776791,7.83326912 28.6936802,9.02059078 29.7115654,10.1233664 C30.6168542,11.1041552 30.8283998,13.0616989 29.8477892,13.8954144 C29.6464094,14.0666275 29.2867617,14.0948186 28.954019,14.3805547 C28.7743679,14.5348264 28.2443949,15.068085 27.9095421,15.6909137 C27.6241937,16.2216638 27.5112115,16.8518166 27.5454382,16.9960203 C27.5639475,17.0740034 27.5221332,17.3045588 27.6691841,17.4572315 C27.816235,17.6099043 28.0139507,17.5353231 28.1491751,17.6099043 C28.2843994,17.6844854 28.2861513,17.8635821 28.465834,17.896153 C28.6455168,17.9287238 28.8709554,17.6099043 28.9757398,17.6791399 C29.0805243,17.7483754 28.9393681,18.1882339 29.4412278,18.4900301 C29.9430875,18.7918262 30.1498026,18.3206017 30.375441,18.2874832 C30.4801175,18.2721191 30.6771602,18.2721191 30.8007468,18.4106152 C30.9243335,18.5491113 31.044358,18.8057234 31.1894249,19.1705313 C31.4600281,19.8510325 31.6292843,20.4992151 31.4817308,20.9390469 C31.3341774,21.3788786 30.5649303,22.0348873 30.4689545,23.108736 C30.4049705,23.8246352 30.2883117,26.609478 30.1189779,31.4632645 L30.1189779,31.4632645 L28.2739605,31.4632645 L28.2798466,31.0604699 C28.3192412,28.1489067 28.275684,26.1671347 28.1491751,25.1151538 C27.950786,23.4654565 27.4789299,23.3335891 27.268638,23.108736 C27.0583462,22.883883 27.0748404,22.2848787 27.1023153,22.0767758 C27.1297902,21.8686728 27.535808,21.7788286 27.6691841,21.462965 C27.8025602,21.1471014 27.6679362,20.4992826 27.2973622,19.7767494 C26.9267882,19.0542161 26.4577159,19.4226134 26.3457092,19.5052814 C26.2337026,19.5879495 25.9888567,19.7857525 25.7220243,19.9055679 C25.5042749,20.0033437 25.2687041,20.0264752 25.1442627,20.0785465 C24.8710941,20.1928513 24.9437689,21.3130307 24.8958095,21.6745319 C24.8478502,22.0360332 24.0800814,22.5353832 23.6588606,22.7515397 C23.2376398,22.9676962 22.6792637,22.9979314 22.4500722,23.0003529 C22.2572582,23.00239 21.7172417,22.9065314 21.237204,22.5939817 C20.5964741,22.1768064 20.10286,21.497178 20.10286,21.34097 C20.10286,20.9164361 20.0764179,19.9508095 20.10286,19.884186 C20.129302,19.8175626 21.326651,20.0668783 22.1766485,19.4496708 C23.026646,18.8324633 23.8037304,17.896153 24.2339386,16.7830825 C24.6641468,15.670012 24.5860685,14.9940982 24.2909655,14.7190337 C23.9958624,14.4439692 23.7051138,14.586992 23.5377907,14.4923792 C23.3704676,14.3977664 23.1294388,13.7714033 22.3652462,13.4101725 C21.6010536,13.0489416 22.6553043,11.4321585 23.0059036,10.7548466 C23.3565029,10.0775347 24.4602779,7.83326912 25.6185345,7.83326912 Z M16.6423879,20.0760326 C16.6326461,20.3115724 16.6703041,20.5617309 16.755362,20.8265083 C16.8829489,21.2236743 17.199605,21.6652493 17.5091,21.785706 C17.8185949,21.9061627 18.4656781,21.8394592 18.6154652,21.539824 C18.6998119,21.3710961 18.639489,21.0742589 18.4633484,20.8265083 C18.3174203,20.6212531 18.0763772,20.4583227 17.8483195,20.3563333 C17.5127651,20.2062702 17.1107879,20.1128367 16.6423879,20.0760326 Z M23.5325831,20.0760326 C23.0641831,20.1128367 22.6622059,20.2062702 22.3266515,20.3563333 C22.0985938,20.4583227 21.8575507,20.6212531 21.7116226,20.8265083 C21.535482,21.0742589 21.4751591,21.3710961 21.5595058,21.539824 C21.7092929,21.8394592 22.3563761,21.9061627 22.665871,21.785706 C22.975366,21.6652493 23.2920221,21.2236743 23.419609,20.8265083 C23.5046669,20.5617309 23.5423249,20.3115724 23.5325831,20.0760326 Z" id="形状结合" fill="#C9D3E6"></path>
        <path d="M19.3086061,17.3272066 C19.1454051,17.2820001 19.0811901,17.2290049 19.1447396,17.2290049 C19.2082891,17.2290049 19.2743216,17.1988316 19.3773746,17.1289158 C19.4289012,17.0939579 19.4594889,17.051531 19.4691378,17.0016352 L19.471807,16.9492497 L19.4645554,16.8802213 C19.4500521,16.8148032 19.4137938,16.7602164 19.3557806,16.7164607 C19.2397542,16.6289494 19.1281023,16.6312702 18.9919968,16.5922017 C18.8558912,16.5531332 18.7335958,16.4836855 18.8074646,16.4836855 C18.8813334,16.4836855 19.0989763,16.5140114 19.2370353,16.443943 C19.3290746,16.3972308 19.4073319,16.3276343 19.471807,16.2351537 L19.471807,16.2351537 L19.4151535,16.1692616 C19.3610798,16.1095935 19.3147457,16.0685971 19.2761513,16.0462725 C19.145529,15.9707152 18.9861875,15.9598808 18.8912067,15.9598808 C18.6795667,15.9598808 18.5328727,15.9142933 18.5087085,15.9035702 C18.4845443,15.8928471 18.9909353,15.8928471 19.1639559,15.8069973 C19.279303,15.7497641 19.3416441,15.6654154 19.3509793,15.5539513 C19.4424411,15.6063726 19.5388683,15.6414141 19.6402607,15.6590757 C19.7416531,15.6767372 19.8794004,15.6877523 20.0535025,15.692121 L20.0535025,15.692121 C20.2367486,15.6959281 20.3726248,15.6959281 20.4611311,15.692121 C20.5496374,15.688314 20.6698413,15.6772989 20.8217428,15.6590757 C20.8170745,15.7004569 20.8724139,15.7497641 20.9877609,15.8069973 C21.1607815,15.8928471 21.6671726,15.8928471 21.6430084,15.9035702 C21.6188442,15.9142933 21.4721502,15.9598808 21.2605101,15.9598808 C21.1655294,15.9598808 21.0061879,15.9707152 20.8755655,16.0462725 C20.8241063,16.0760387 20.7588877,16.138999 20.6799099,16.2351537 C20.744385,16.3276343 20.8226422,16.3972308 20.9146816,16.443943 C21.0527406,16.5140114 21.2703835,16.4836855 21.3442523,16.4836855 C21.418121,16.4836855 21.2958256,16.5531332 21.1597201,16.5922017 C21.0236146,16.6312702 20.9119627,16.6289494 20.7959363,16.7164607 C20.7185853,16.7748016 20.6799099,16.8523979 20.6799099,16.9492497 C20.6741627,17.0224166 20.7056401,17.0823053 20.7743422,17.1289158 C20.8773953,17.1988316 20.9434277,17.2290049 21.0069772,17.2290049 C21.0705267,17.2290049 21.0063117,17.2820001 20.8431108,17.3272066 C20.7343102,17.3573443 20.7113873,17.3844719 20.7743422,17.4085894 C20.7560085,17.4885139 20.7669406,17.5548698 20.8082967,17.607657 C20.8496528,17.6604441 20.7956098,17.7128291 20.6461678,17.764812 L20.6461678,17.764812 L20.6042851,17.7665577 C20.6274975,17.8522265 20.6488086,17.9090639 20.6682181,17.9370697 C20.7215027,18.0139532 20.8041883,18.0322899 20.8041883,18.0482674 C20.8041883,18.0741046 20.7414174,18.1366713 20.6158757,18.2359674 L20.6158757,18.2359674 L20.4702947,18.2351962 L20.4710417,18.4226971 L20.6158757,18.4226971 C20.3461473,18.7359794 20.1700172,18.8926206 20.0874855,18.8926206 C20.0049538,18.8926206 19.8390733,18.7359794 19.5898442,18.4226971 L19.5898442,18.4226971 L19.7250161,18.4226971 L19.7242947,18.2351962 L19.563401,18.2359674 C19.4641869,18.1555061 19.4046585,18.0993712 19.3848157,18.0675626 L19.3773746,18.0482674 C19.3773746,18.0323472 19.4371977,18.0210062 19.4893212,17.9370697 C19.5081725,17.9067127 19.5328658,17.8383059 19.563401,17.7318494 L19.5532947,17.7641962 L19.536701,17.764812 C19.3943286,17.7188444 19.3254949,17.6748046 19.3301998,17.6326927 L19.3418474,17.607657 C19.3827918,17.5580481 19.3946342,17.4916922 19.3773746,17.4085894 L19.3773746,17.4085894 C19.4403296,17.3844719 19.4174067,17.3573443 19.3086061,17.3272066 Z M21.6738873,14.5690017 C21.4863695,15.1271059 21.298528,15.4521052 21.110363,15.5439997 C20.8281155,15.6818414 19.6625018,15.7122746 19.4021573,15.5439997 C19.2285943,15.4318164 19.0303634,15.1068171 18.8074646,14.5690017 C19.1461325,14.9637804 19.6238696,15.1611698 20.2406759,15.1611698 C20.8574823,15.1611698 21.3352194,14.9637804 21.6738873,14.5690017 Z M18.7931452,12.8181002 C19.3434992,13.2042962 19.8600686,13.3973942 20.3428535,13.3973942 C20.8256385,13.3973942 21.3117377,13.2425803 21.8011513,12.9329526 C21.6149674,13.3253923 21.5218754,13.6377354 21.5218754,13.8699818 C21.5218754,14.1022282 21.5919926,14.2889043 21.7322269,14.4300103 C21.3727192,14.9012173 20.883572,15.1368208 20.2647855,15.1368208 C19.645999,15.1368208 19.1356025,14.9069486 18.7335958,14.4472041 C18.9112895,14.2494874 19.0001364,14.0362237 19.0001364,13.8074131 C19.0001364,13.5786025 18.9311393,13.2488315 18.7931452,12.8181002 Z M18.2104921,10.9277134 C18.335989,10.8937666 18.3463693,11.1240592 18.5364485,11.1684761 C18.663168,11.1980874 18.7969699,11.1980874 18.9378543,11.1684761 C18.9521162,11.3726896 18.9592471,11.5224616 18.9592471,11.6177921 L18.9596181,11.9203199 C18.9604338,11.9130119 18.9611729,11.9058563 18.9618354,11.8988531 C18.9763821,11.745086 18.9683884,11.501627 18.9378543,11.1684761 C19.3164204,11.4857121 19.7719049,11.64433 20.3043079,11.64433 C20.8367109,11.64433 21.266631,11.4709064 21.5940681,11.1240592 C21.595019,11.4277892 21.6007951,11.6689343 21.6113964,11.8474945 L21.6120462,11.6177921 L21.6120462,11.6177921 C21.6120462,11.5224616 21.6191772,11.3726896 21.6334391,11.1684761 C21.7743235,11.1980874 21.9081254,11.1980874 22.0348449,11.1684761 C22.2249241,11.1240592 22.2353044,10.8937666 22.3608012,10.9277134 C22.4862981,10.9616601 22.5537276,11.2417989 22.4474115,11.4298053 C22.3410954,11.6178117 22.1002984,11.5358295 21.9060764,11.6177921 C21.7795379,11.671192 21.6830563,11.773485 21.6166317,11.9246712 C21.6169561,11.929725 21.6172173,11.9331008 21.6174808,11.9364479 C21.6319699,12.120537 21.6931934,12.3352229 21.8011513,12.5805054 C21.3658508,12.8972117 20.8886346,13.0555649 20.3695028,13.0555649 C19.850371,13.0555649 19.3296916,12.8972117 18.8074646,12.5805054 C18.8898823,12.3000806 18.9401925,12.0835487 18.9583953,11.9309098 C18.8913703,11.7768285 18.7938154,11.6720613 18.6652169,11.6177921 C18.4709949,11.5358295 18.2301979,11.6178117 18.1238818,11.4298053 C18.0175657,11.2417989 18.0849953,10.9616601 18.2104921,10.9277134 Z M22.5990725,9.34702682 C22.6893206,9.34702682 22.6893206,9.69005871 22.6656842,9.81084538 C22.6408167,9.93792376 22.2018656,9.93722324 21.9540823,10.0835004 C21.6679449,10.2524196 21.4850057,10.5028378 21.439956,10.5025967 C21.449429,10.6328897 21.4664644,10.7872077 21.4901481,10.9648303 C21.1673071,11.2147604 20.7533661,11.3397255 20.2483253,11.3397255 C19.7432846,11.3397255 19.3403171,11.2147604 19.039423,10.9648303 C19.0584434,10.6882313 19.0679536,10.4757781 19.0679536,10.3274708 C19.0679536,10.1791635 19.0584434,9.95118173 19.039423,9.6435256 C19.5212367,9.78490318 19.9242041,9.85559196 20.2483253,9.85559196 C20.5724466,9.85559196 20.9662882,9.78490318 21.4298501,9.6435256 L21.5756355,9.65222959 C21.7615722,9.65900472 21.9137335,9.64645912 22.0321193,9.61459279 C22.2540927,9.55484343 22.5088243,9.34702682 22.5990725,9.34702682 Z M17.8702006,9.34702682 C17.9604487,9.34702682 18.2151804,9.55484343 18.4371538,9.61459279 C18.5851361,9.6544257 18.7858925,9.66406997 19.039423,9.6435256 C19.0555778,10.1247993 19.0555778,10.4074992 19.039423,10.4916255 C19.0257713,10.5627169 18.8348974,10.2722369 18.5151908,10.0835004 C18.2674075,9.93722324 17.8284564,9.93792376 17.8035889,9.81084538 C17.7799525,9.69005871 17.7799525,9.34702682 17.8702006,9.34702682 Z M21.4298501,7.69218206 C21.3896515,8.01428858 21.3695521,8.29380004 21.3695521,8.53071642 C21.3695521,8.7676328 21.3896515,9.01664432 21.4298501,9.27775097 C21.1472077,9.52160072 20.7533661,9.6435256 20.2483253,9.6435256 C19.7432846,9.6435256 19.3403171,9.52160072 19.039423,9.27775097 C19.0590566,9.0481027 19.0688734,8.79909118 19.0688734,8.53071642 C19.0688734,8.33309784 19.0635506,8.12944077 19.0529049,7.9197452 L19.0688734,8.53071642 C18.8371706,8.42410326 18.6319136,8.35498349 18.4531025,8.32335711 C18.1848859,8.27591753 17.9562631,8.34790325 17.8690681,8.27282619 C17.7818732,8.19774914 17.8887753,7.71391249 18.0151908,7.69218206 C18.1416063,7.67045164 18.3819841,7.83326912 18.6009045,7.87761211 C18.7468514,7.90717411 18.8970629,7.90717411 19.0515391,7.87761211 C19.0474477,7.81723854 19.0436644,7.75497016 19.039423,7.69218206 C19.5212367,7.81161229 19.9242041,7.8713274 20.2483253,7.8713274 C20.5724466,7.8713274 20.9662882,7.81161229 21.4298501,7.69218206 Z M22.4232347,7.69218206 C22.5496503,7.71391249 22.6565523,8.19774914 22.5693574,8.27282619 C22.4821625,8.34790325 22.2535396,8.27591753 21.985323,8.32335711 C21.8065119,8.35498349 21.601255,8.42410326 21.3695521,8.53071642 L21.417734,7.87761211 C21.5516451,7.90717411 21.6915742,7.90717411 21.8375211,7.87761211 C22.0564415,7.83326912 22.2968192,7.67045164 22.4232347,7.69218206 Z" id="形状结合" fill-opacity="0.4" fill="#C9D3E6"></path>
    </g>
</svg>