<?xml version="1.0" encoding="UTF-8"?>
<svg width="32px" height="26px" viewBox="0 0 32 26" version="1.1" xmlns="http://www.w3.org/2000/svg" xmlns:xlink="http://www.w3.org/1999/xlink">
    <title>三维视图</title>
    <g id="web-plan假体规划（2021/08更新）" stroke="none" stroke-width="1" fill="none" fill-rule="evenodd">
        <g id="14.假体规划-垂直裁剪" transform="translate(-1708.000000, -532.000000)" fill="#C9D3E6">
            <g id="编组-26" transform="translate(1708.000000, 532.000000)">
                <g id="编组-22" transform="translate(16.000000, 13.000000) scale(-1, 1) translate(-16.000000, -13.000000) ">
                    <path d="M9.88438164,0 C14.0015494,0 16.8888028,2.03350955 18.5461418,6.10052866 L22.251112,6.10052866 C23.5934925,4.07900286 25.3929502,3.46610052 27.6494851,4.26182165 C31.0342875,5.45540334 32,7.78051732 32,10.571267 C32,12.4317669 30.8645197,13.9953802 28.5935592,15.262107 L27.0259794,26 L15.4718902,26 C18.5604883,20.1016954 19.0095513,16.336117 16.8190792,14.7032647 C15.6195349,13.8090837 13.3207179,13.118709 10.8851505,12.3950362 L10.2473159,12.2053408 L9.6070743,12.0131992 L9.33288926,11.9298723 L9.33288926,11.9298723 L8.7864809,11.7610605 C5.24721315,10.6534763 2,9.33244873 2,7.07001419 C2,2.80619525 3.70862997,0 9.88438164,0 Z M13,17 C13.5522847,17 14,17.4477153 14,18 L14,18 L14,25 C14,25.5522847 13.5522847,26 13,26 L13,26 L1,26 C0.44771525,26 0,25.5522847 0,25 L0,25 L0,18 C0,17.4477153 0.44771525,17 1,17 L1,17 Z M10.3547655,19 C9.80005043,19 9.34997479,19.1267166 9.00453858,19.3801498 C8.65910237,19.633583 8.48638427,19.9850187 8.48638427,20.4344569 C8.48638427,21.1935081 8.87468482,21.670412 9.65128593,21.8651685 L9.65128593,21.8651685 L9.65128593,21.8838951 C9.24281392,21.928839 8.91628845,22.076779 8.67170953,22.3277154 C8.42713061,22.5786517 8.30484115,22.8838951 8.30484115,23.2434457 C8.30484115,23.7952559 8.5084468,24.2259675 8.91565809,24.5355805 C9.32286939,24.8451935 9.86560767,25 10.5438729,25 C11.1464952,25 11.6318709,24.9013733 12,24.7041199 L12,24.7041199 L12,23.6367041 C11.609178,23.9263421 11.1527988,24.071161 10.6308623,24.071161 C10.3005547,24.071161 10.0383258,23.9987516 9.84417549,23.8539326 C9.65002521,23.7091136 9.55295008,23.5031211 9.55295008,23.2359551 C9.55295008,22.9612984 9.6683056,22.7515605 9.89901664,22.6067416 C10.1297277,22.4619226 10.4531014,22.3895131 10.8691377,22.3895131 L10.8691377,22.3895131 L11.3910741,22.3895131 L11.3910741,21.4569288 L10.9107413,21.4569288 C10.1240545,21.4569288 9.73071104,21.1947566 9.73071104,20.670412 C9.73071104,20.17603 10.0320222,19.928839 10.6346445,19.928839 C11.0279879,19.928839 11.4099849,20.0561798 11.7806354,20.3108614 L11.7806354,20.3108614 L11.7806354,19.3108614 C11.3772063,19.1036205 10.9019163,19 10.3547655,19 Z M7.14372163,19.0973783 L5.12027231,19.0973783 C3.04009077,19.0973783 2,20.0399501 2,21.9250936 C2,22.8214732 2.29122542,23.5411985 2.87367625,24.0842697 C3.45612708,24.6273408 4.20751387,24.8988764 5.12783661,24.8988764 L5.12783661,24.8988764 L7.14372163,24.8988764 L7.14372163,19.0973783 Z M23.8007709,9.17108619 C22.2221811,9.76598543 22.2253174,11.6758477 21.8924203,14.9691898 C21.6701537,17.1680667 22.0235412,19.8837443 21.8924203,21.1243509 C21.7612993,22.3649575 21,23.0262973 21,23.4128637 C21,23.7994302 22.7542861,24.5141355 23.1649455,23.4128637 C23.5756048,22.3115919 23.750284,16.9908499 24.3692516,15.9800198 C24.9882193,14.9691898 26.573399,14.3235596 26.943127,12.3364187 C27.3128549,10.3492778 25.8355415,8.40427293 23.8007709,9.17108619 Z M5.89561271,20.1086142 L5.89561271,23.8876404 L5.21482602,23.8876404 C4.62228946,23.8876404 4.15708522,23.7128589 3.81921331,23.3632959 C3.4813414,23.0137328 3.31240545,22.5405743 3.31240545,21.9438202 C3.31240545,21.3670412 3.4889057,20.9169788 3.8419062,20.593633 C4.19490671,20.2702871 4.65380736,20.1086142 5.21860817,20.1086142 L5.21860817,20.1086142 L5.89561271,20.1086142 Z M10.7916267,3 C8.85795671,3 7.31835778,4.46832614 8.30964964,6.44691589 C9.3009415,8.42550564 13.2511193,7.45770836 14.9228641,8.35208933 C16.594609,9.24647031 21,12.7010929 21,11.8728271 C21,11.32065 19.3090578,9.5120129 15.9271734,6.44691589 C13.7925889,4.14897196 12.08074,3 10.7916267,3 Z" id="三维视图"></path>
                </g>
            </g>
        </g>
    </g>
</svg>