<?xml version="1.0" encoding="UTF-8"?>
<svg width="22px" height="22px" viewBox="0 0 22 22" version="1.1" xmlns="http://www.w3.org/2000/svg" xmlns:xlink="http://www.w3.org/1999/xlink">
    <title>形状结合</title>
    <g id="控件" stroke="none" stroke-width="1" fill="none" fill-rule="evenodd">
        <g id="编组-8备份-13" transform="translate(-7.000000, -7.000000)" fill="#C9D3E6">
            <g id="shizixianxianshi" transform="translate(7.920000, 7.920000)">
                <path d="M10.8553846,0 L10.855,9.304 L20.16,9.30461538 L20.16,10.8553846 L10.855,10.855 L10.8553846,20.16 L9.30461538,20.16 L9.304,10.855 L0,10.8553846 L0,9.30461538 L9.304,9.304 L9.30461538,0 L10.8553846,0 Z M16.2,13.68 C18.9389113,13.68 20.16,16.0405371 20.16,16.2423529 C20.16,16.4820369 18.956578,18.8047059 16.2,18.8047059 C13.4434317,18.8047059 12.24,16.4820369 12.24,16.2423529 C12.24,16.0405371 13.461108,13.68 16.2,13.68 Z M16.2,14.5281899 C15.2072136,14.5281899 14.4024038,15.2956619 14.4024038,16.2423529 C14.4024038,17.189044 15.2072136,17.9564949 16.2,17.9564949 C17.1927864,17.9564949 17.9976155,17.189044 17.9976155,16.2423529 C17.9976155,15.2956619 17.1927864,14.5281899 16.2,14.5281899 Z M16.2,15.2018166 C16.7997518,15.2018166 17.2859475,15.667681 17.2859475,16.2423528 L17.2859475,16.2423528 L17.2795753,16.3557308 C17.2206167,16.8770702 16.7597684,17.2828889 16.2,17.2828889 C15.6002472,17.2828889 15.1140525,16.8170245 15.1140525,16.2423528 L15.1140525,16.2423528 L15.1204247,16.128975 C15.1793833,15.6076363 15.6402316,15.2018166 16.2,15.2018166 Z" id="形状结合"></path>
            </g>
        </g>
    </g>
</svg>