<?xml version="1.0" encoding="UTF-8"?>
<svg width="40px" height="40px" viewBox="0 0 40 40" version="1.1" xmlns="http://www.w3.org/2000/svg" xmlns:xlink="http://www.w3.org/1999/xlink">
    <title>icon/联影智能/move备份 4</title>
    <g id="icon/联影智能/move备份-4" stroke="none" stroke-width="1" fill="none" fill-rule="evenodd">
        <path d="M16,23.7336721 C17.122371,23.9059237 18.3358871,24 19.6022817,24 C25.344783,24 30,22.0656085 30,19.6794158 C30,18.6672769 29.1624533,17.7364243 27.7596427,17 M20,15 C13.9248678,15 9,17.1085733 9,19.7096304 C9,20.990012 10.193366,22.1510577 12.1298623,23" id="形状" stroke="#FFFFFF" stroke-width="1.1"></path>
        <path d="M16,26.352492 C16.8162558,28.5797232 18.0534057,30 19.438295,30 C20.8949155,30 22.1880958,28.4287846 23,26 M24,20 C24,13.9248678 21.9399774,9 19.3988107,9 C18.0525928,9 16.8414077,10.3821623 16,12.5852865" id="形状" stroke="#FFFFFF" stroke-width="1.1"></path>
        <polygon id="矩形" fill="#FFFFFF" transform="translate(16.000000, 23.500000) scale(-1, 1) translate(-16.000000, -23.500000) " points="14 21 18 23.5 14 26"></polygon>
        <polygon id="矩形" fill="#FFFFFF" transform="translate(23.500000, 20.000000) scale(-1, -1) rotate(-90.000000) translate(-23.500000, -20.000000) " points="21.5 17.5 25.5 20 21.5 22.5"></polygon>
    </g>
</svg>