<?xml version="1.0" encoding="UTF-8"?>
<svg width="40px" height="40px" viewBox="0 0 40 40" version="1.1" xmlns="http://www.w3.org/2000/svg" xmlns:xlink="http://www.w3.org/1999/xlink">
    <title>icon/header_baocunshuqian</title>
    <defs>
        <filter x="0.0%" y="0.0%" width="100.0%" height="100.0%" filterUnits="objectBoundingBox" id="filter-1">
            <feGaussianBlur stdDeviation="0" in="SourceGraphic"></feGaussianBlur>
        </filter>
        <path d="M0.2,0 L19.0864152,0 C19.1379203,4.89120051e-16 19.18744,0.0198701114 19.2246597,0.0554716286 L22.9382445,3.60759622 C22.9776898,3.64532651 23,3.69753973 23,3.75212459 L23,23.8 C23,23.9104569 22.9104569,24 22.8,24 L0.2,24 C0.08954305,24 -7.08117891e-16,23.9104569 0,23.8 L0,0.2 C-1.3527075e-17,0.08954305 0.08954305,1.07500249e-15 0.2,0 Z" id="path-2"></path>
        <filter x="-30.4%" y="-20.8%" width="160.9%" height="158.3%" filterUnits="objectBoundingBox" id="filter-3">
            <feOffset dx="0" dy="2" in="SourceAlpha" result="shadowOffsetOuter1"></feOffset>
            <feGaussianBlur stdDeviation="2" in="shadowOffsetOuter1" result="shadowBlurOuter1"></feGaussianBlur>
            <feComposite in="shadowBlurOuter1" in2="SourceAlpha" operator="out" result="shadowBlurOuter1"></feComposite>
            <feColorMatrix values="0 0 0 0 0.0235619438   0 0 0 0 0.0407606734   0 0 0 0 0.0808910425  0 0 0 0.6 0" type="matrix" in="shadowBlurOuter1"></feColorMatrix>
        </filter>
        <filter x="-30.4%" y="-20.8%" width="160.9%" height="158.3%" filterUnits="objectBoundingBox" id="filter-4">
            <feGaussianBlur stdDeviation="2" in="SourceAlpha" result="shadowBlurInner1"></feGaussianBlur>
            <feOffset dx="0" dy="2" in="shadowBlurInner1" result="shadowOffsetInner1"></feOffset>
            <feComposite in="shadowOffsetInner1" in2="SourceAlpha" operator="arithmetic" k2="-1" k3="1" result="shadowInnerInner1"></feComposite>
            <feColorMatrix values="0 0 0 0 0.988235294   0 0 0 0 0.988235294   0 0 0 0 0.992156863  0 0 0 0.299142264 0" type="matrix" in="shadowInnerInner1"></feColorMatrix>
        </filter>
        <linearGradient x1="50%" y1="0%" x2="50%" y2="100%" id="linearGradient-5">
            <stop stop-color="#C9D3E6" offset="0%"></stop>
            <stop stop-color="#B2BED3" offset="32.2140133%"></stop>
            <stop stop-color="#91A1BF" offset="100%"></stop>
        </linearGradient>
        <path d="M14.2,26 L23.8,26 C23.9104569,26 24,26.0895431 24,26.2 L24,27.8 C24,27.9104569 23.9104569,28 23.8,28 L14.2,28 C14.0895431,28 14,27.9104569 14,27.8 L14,26.2 C14,26.0895431 14.0895431,26 14.2,26 Z" id="path-6"></path>
        <filter x="-15.0%" y="-75.0%" width="130.0%" height="250.0%" filterUnits="objectBoundingBox" id="filter-7">
            <feOffset dx="0" dy="0" in="SourceAlpha" result="shadowOffsetOuter1"></feOffset>
            <feGaussianBlur stdDeviation="0.5" in="shadowOffsetOuter1" result="shadowBlurOuter1"></feGaussianBlur>
            <feColorMatrix values="0 0 0 0 0.0235619438   0 0 0 0 0.0407606734   0 0 0 0 0.0808910425  0 0 0 0.5 0" type="matrix" in="shadowBlurOuter1"></feColorMatrix>
        </filter>
        <linearGradient x1="50%" y1="0%" x2="50%" y2="100%" id="linearGradient-8">
            <stop stop-color="#C9D3E6" offset="0%"></stop>
            <stop stop-color="#B2BED3" offset="32.2140133%"></stop>
            <stop stop-color="#91A1BF" offset="100%"></stop>
        </linearGradient>
        <path d="M20.2,8 L25.8,8 C25.9104569,8 26,8.08954305 26,8.2 L26,15.6262966 C26,15.7367535 25.9104569,15.8262966 25.8,15.8262966 C25.760515,15.8262966 25.7219135,15.814609 25.68906,15.7927066 L23.11094,14.07396 C23.0437602,14.0291734 22.9562398,14.0291734 22.88906,14.07396 L20.31094,15.7927066 C20.2190343,15.8539771 20.0948604,15.8291424 20.0335899,15.7372366 C20.0116876,15.7043831 20,15.6657816 20,15.6262966 L20,8.2 C20,8.08954305 20.0895431,8 20.2,8 Z" id="path-9"></path>
        <filter x="-25.0%" y="-18.8%" width="150.0%" height="135.3%" filterUnits="objectBoundingBox" id="filter-10">
            <feOffset dx="0" dy="0" in="SourceAlpha" result="shadowOffsetOuter1"></feOffset>
            <feGaussianBlur stdDeviation="0.5" in="shadowOffsetOuter1" result="shadowBlurOuter1"></feGaussianBlur>
            <feColorMatrix values="0 0 0 0 0.0235619438   0 0 0 0 0.0407606734   0 0 0 0 0.0808910425  0 0 0 0.5 0" type="matrix" in="shadowBlurOuter1"></feColorMatrix>
        </filter>
    </defs>
    <g id="icon/header_baocunshuqian" stroke="none" stroke-width="1" fill="none" fill-rule="evenodd">
        <g id="编组-16" transform="translate(9.000000, 8.000000)">
            <path d="M20.7418182,6.88710687 C20.7418182,2.40930998 16.6228379,1.04545455 11.5418182,1.04545455 C6.46079848,1.04545455 2.34181818,2.40930998 2.34181818,6.88710687 C2.34181818,11.3649038 20.7418182,11.3649038 20.7418182,6.88710687 Z" id="椭圆形" fill="#A2C2FF" filter="url(#filter-1)"></path>
            <g id="矩形">
                <use fill="black" fill-opacity="1" filter="url(#filter-3)" xlink:href="#path-2"></use>
                <use fill-opacity="0.6" fill="#3E4A62" fill-rule="evenodd" xlink:href="#path-2"></use>
                <use fill="black" fill-opacity="1" filter="url(#filter-4)" xlink:href="#path-2"></use>
            </g>
        </g>
        <g id="矩形">
            <use fill="black" fill-opacity="1" filter="url(#filter-7)" xlink:href="#path-6"></use>
            <use fill="url(#linearGradient-5)" fill-rule="evenodd" xlink:href="#path-6"></use>
        </g>
        <g id="矩形">
            <use fill="black" fill-opacity="1" filter="url(#filter-10)" xlink:href="#path-9"></use>
            <use fill="url(#linearGradient-8)" fill-rule="evenodd" xlink:href="#path-9"></use>
        </g>
    </g>
</svg>