<?xml version="1.0" encoding="UTF-8"?>
<svg width="40px" height="40px" viewBox="0 0 40 40" version="1.1" xmlns="http://www.w3.org/2000/svg" xmlns:xlink="http://www.w3.org/1999/xlink">
    <title>icon/suofang</title>
    <g id="icon/suofang" stroke="none" stroke-width="1" fill="none" fill-rule="evenodd">
        <path d="M30.8,9 C30.9104569,9 31,9.08954305 31,9.2 L31,30.8 C31,30.9104569 30.9104569,31 30.8,31 L9.2,31 C9.08954305,31 9,30.9104569 9,30.8 L9,9.2 C9,9.08954305 9.08954305,9 9.2,9 L30.8,9 Z M26.8041237,13.0029569 L21.8301122,13.0029569 C21.7770689,13.0029569 21.7261981,13.0240282 21.6886908,13.0615355 C21.6105859,13.1396404 21.6105859,13.2662734 21.6886908,13.3443782 L21.6886908,13.3443782 L23.465,15.121 L15.126,23.459 L13.3519285,21.6846191 C13.3269236,21.6596142 13.2959794,21.6419142 13.2624118,21.6328925 L13.2105071,21.6260404 C13.1000502,21.6260404 13.0105071,21.7155835 13.0105071,21.8260404 L13.0105071,21.8260404 L13.0105071,26.800052 C13.0105071,26.9105089 13.1000502,27.000052 13.2105071,27.000052 L13.2105071,27.000052 L18.1845186,27.000052 C18.2375619,27.000052 18.2884327,26.9789806 18.32594,26.9414733 C18.4040449,26.8633685 18.4040449,26.7367355 18.32594,26.6586306 L18.32594,26.6586306 L16.54,24.873 L24.879,16.535 L26.6627023,18.3183898 C26.6877072,18.3433946 26.7186514,18.3610946 26.752219,18.3701163 L26.8041237,18.3769684 C26.9145806,18.3769684 27.0041237,18.2874254 27.0041237,18.1769684 L27.0041237,18.1769684 L27.0041237,13.2029569 C27.0041237,13.0924999 26.9145806,13.0029569 26.8041237,13.0029569 L26.8041237,13.0029569 Z" id="形状结合" fill="#C9D3E6"></path>
    </g>
</svg>