<?xml version="1.0" encoding="UTF-8"?>
<svg width="36px" height="36px" viewBox="0 0 36 36" version="1.1" xmlns="http://www.w3.org/2000/svg" xmlns:xlink="http://www.w3.org/1999/xlink">
    <title>倍率矫正</title>
    <g id="骨科DR阅片" stroke="none" stroke-width="1" fill="none" fill-rule="evenodd">
        <g id="2.DR阅片-layout1*2" transform="translate(-817.000000, -983.000000)">
            <g id="倍率矫正" transform="translate(817.000000, 983.000000)">
                <rect id="矩形" x="0" y="0" width="36" height="36" rx="2"></rect>
                <g id="高度监测及矫正" transform="translate(18.000000, 18.000000) scale(-1, 1) translate(-18.000000, -18.000000) translate(8.000000, 6.000000)" fill="#C9D3E6" fill-rule="nonzero">
                    <path d="M9.15922228,0 L0.840777719,0 C0.375722543,0 0,0.446875 0,1 C0,1.553125 0.375722543,2 0.840777719,2 L9.15922228,2 C9.62427746,2 10,1.553125 10,1 C10,0.446875 9.62427746,0 9.15922228,0 Z" id="路径" fill-opacity="0.31766622"></path>
                    <path d="M1.06295043,7.49620637 L4.30600614,3.1047041 C4.40863449,2.96509863 4.5907998,2.96509863 4.69342814,3.1047041 L7.93648386,7.49620637 C8.08016354,7.69347496 7.96470665,8 7.74405571,8 L1.25794429,8 C1.03729334,7.9969651 0.919270746,7.69044006 1.06295043,7.49620637 Z" id="路径"></path>
                    <path d="M9.15922228,22 L0.840777719,22 C0.375722543,22 0,22.446875 0,23 C0,23.553125 0.375722543,24 0.840777719,24 L9.15922228,24 C9.62427746,24 10,23.553125 10,23 C10,22.45 9.62427746,22 9.15922228,22 Z" id="路径" fill-opacity="0.31766622"></path>
                    <path d="M7.93536559,17.5037936 L4.69309713,21.8952959 C4.5904937,22.0349014 4.40837261,22.0349014 4.30576918,21.8952959 L1.06350073,17.5037936 C0.91985592,17.306525 1.03528478,17 1.25588216,17 L7.74298415,17 C7.96358153,17 8.08157548,17.3095599 7.93536559,17.5037936 L7.93536559,17.5037936 Z" id="路径"></path>
                    <polygon id="路径" points="3 5 5 5 5 21 3 21"></polygon>
                    <path d="M18.2111801,0 L12.7888199,0 C11.8021739,0 11,0.769608939 11,1.71620112 L11,22.2837989 C11,23.2303911 11.8021739,24 12.7888199,24 L18.2111801,24 C19.1978261,24 20,23.2303911 20,22.2837989 L20,1.71620112 C20,0.766927374 19.1978261,0 18.2111801,0 Z M13.7111801,22.2972067 C13.2164596,22.2972067 12.8167702,21.913743 12.8167702,21.4391061 L12.8167702,2.56089385 C12.8167702,2.08625698 13.2164596,1.7027933 13.7111801,1.7027933 L17.2888199,1.7027933 C17.7835404,1.7027933 18.1832298,2.08625698 18.1832298,2.56089385 L18.1832298,21.4391061 C18.1832298,21.913743 17.7835404,22.2972067 17.2888199,22.2972067 L13.7111801,22.2972067 Z" id="形状" fill-opacity="0.31766622"></path>
                </g>
            </g>
        </g>
    </g>
</svg>