<?xml version="1.0" encoding="UTF-8"?>
<svg width="40px" height="40px" viewBox="0 0 40 40" version="1.1" xmlns="http://www.w3.org/2000/svg" xmlns:xlink="http://www.w3.org/1999/xlink">
    <title>icon/xuanze</title>
    <g id="icon/xuanze" stroke="none" stroke-width="1" fill="none" fill-rule="evenodd">
        <path d="M19.776941,31.5528302 C19.776941,31.6632872 19.6873979,31.7528302 19.576941,31.7528302 L15.976941,31.7528302 C15.866484,31.7528302 15.776941,31.6632872 15.776941,31.5528302 L15.776941,23.7528302 L9.27878391,26.5377547 C9.17725795,26.5812658 9.05968217,26.5342355 9.01617104,26.4327095 C8.99299673,26.3786361 8.99480498,26.3171022 9.02111461,26.2644829 L17.5980555,9.11060109 C17.6474534,9.01180539 17.767588,8.97176052 17.8663837,9.02115837 C17.9050892,9.04051111 17.9364737,9.07189561 17.9558264,9.11060109 L26.5327673,26.2644829 C26.5821652,26.3632786 26.5421203,26.4834133 26.4433246,26.5328111 C26.3907054,26.5591207 26.3291714,26.560929 26.275098,26.5377547 L19.776941,23.7528302 L19.776941,31.5528302 Z" id="形状结合" fill="#C9D3E6" transform="translate(17.776963, 20.376415) rotate(-30.000000) translate(-17.776963, -20.376415) "></path>
    </g>
</svg>