<?xml version="1.0" encoding="UTF-8"?>
<svg width="40px" height="40px" viewBox="0 0 40 40" version="1.1" xmlns="http://www.w3.org/2000/svg" xmlns:xlink="http://www.w3.org/1999/xlink">
    <title>icon/toumingdu</title>
    <g id="icon/toumingdu" stroke="none" stroke-width="1" fill="none" fill-rule="evenodd">
        <g id="编组" transform="translate(7.000000, 7.000000)" fill="#C9D3E6">
            <path d="M13.7285714,22.2857143 C13.8390284,22.2857143 13.9285714,22.3752573 13.9285714,22.4857143 L13.9285714,25.8 C13.9285714,25.9104569 13.8390284,26 13.7285714,26 L12.2714286,26 C12.1609716,26 12.0714286,25.9104569 12.0714286,25.8 L12.0714286,22.4857143 C12.0714286,22.3752573 12.1609716,22.2857143 12.2714286,22.2857143 L13.7285714,22.2857143 Z M5.91883066,19.0508137 L6.94918626,20.0811693 C7.02729112,20.1592742 7.02729112,20.2859072 6.94918626,20.364012 L4.60563235,22.707566 C4.5275275,22.7856708 4.4008945,22.7856708 4.32278964,22.707566 L3.29243405,21.6772104 C3.21432919,21.5991055 3.21432919,21.4724725 3.29243405,21.3943676 L5.63598795,19.0508137 C5.71409281,18.9727089 5.8407258,18.9727089 5.91883066,19.0508137 Z M20.364012,19.0508137 L22.707566,21.3943676 C22.7856708,21.4724725 22.7856708,21.5991055 22.707566,21.6772104 L21.6772104,22.707566 C21.5991055,22.7856708 21.4724725,22.7856708 21.3943676,22.707566 L19.0508137,20.364012 C18.9727089,20.2859072 18.9727089,20.1592742 19.0508137,20.0811693 L20.0811693,19.0508137 C20.1592742,18.9727089 20.2859072,18.9727089 20.364012,19.0508137 Z M13,5.57142857 C17.1026867,5.57142857 20.4285714,8.89731329 20.4285714,13 C20.4285714,17.020633 17.2343917,20.2952253 13.2452086,20.4246008 L13,20.4285714 C8.89731329,20.4285714 5.57142857,17.1026867 5.57142857,13 C5.57142857,8.97936702 8.76560825,5.70477468 12.7547914,5.57539924 L13,5.57142857 Z M13,7.57142857 C10.0018828,7.57142857 7.57142857,10.0018828 7.57142857,13 C7.57142857,15.9981172 10.0018828,18.4285714 13,18.4285714 C15.9981172,18.4285714 18.4285714,15.9981172 18.4285714,13 C18.4285714,10.0018828 15.9981172,7.57142857 13,7.57142857 Z M3.51428571,12.0714286 C3.62474266,12.0714286 3.71428571,12.1609716 3.71428571,12.2714286 L3.71428571,13.7285714 C3.71428571,13.8390284 3.62474266,13.9285714 3.51428571,13.9285714 L0.2,13.9285714 C0.08954305,13.9285714 4.2432724e-13,13.8390284 4.2432724e-13,13.7285714 L4.2432724e-13,12.2714286 C4.2432724e-13,12.1609716 0.08954305,12.0714286 0.2,12.0714286 L3.51428571,12.0714286 Z M25.8,12.0714286 C25.9104569,12.0714286 26,12.1609716 26,12.2714286 L26,13.7285714 C26,13.8390284 25.9104569,13.9285714 25.8,13.9285714 L22.4857143,13.9285714 C22.3752573,13.9285714 22.2857143,13.8390284 22.2857143,13.7285714 L22.2857143,12.2714286 C22.2857143,12.1609716 22.3752573,12.0714286 22.4857143,12.0714286 L25.8,12.0714286 Z M21.6772104,3.29243405 L22.707566,4.32278964 C22.7856708,4.4008945 22.7856708,4.5275275 22.707566,4.60563235 L20.364012,6.94918626 C20.2859072,7.02729112 20.1592742,7.02729112 20.0811693,6.94918626 L19.0508137,5.91883066 C18.9727089,5.8407258 18.9727089,5.71409281 19.0508137,5.63598795 L21.3943676,3.29243405 C21.4724725,3.21432919 21.5991055,3.21432919 21.6772104,3.29243405 Z M4.60563235,3.29243405 L6.94918626,5.63598795 C7.02729112,5.71409281 7.02729112,5.8407258 6.94918626,5.91883066 L5.91883066,6.94918626 C5.8407258,7.02729112 5.71409281,7.02729112 5.63598795,6.94918626 L3.29243405,4.60563235 C3.21432919,4.5275275 3.21432919,4.4008945 3.29243405,4.32278964 L4.32278964,3.29243405 C4.4008945,3.21432919 4.5275275,3.21432919 4.60563235,3.29243405 Z M13.7285714,-3.14637205e-13 C13.8390284,-3.14637205e-13 13.9285714,0.08954305 13.9285714,0.2 L13.9285714,3.51428571 C13.9285714,3.62474266 13.8390284,3.71428571 13.7285714,3.71428571 L12.2714286,3.71428571 C12.1609716,3.71428571 12.0714286,3.62474266 12.0714286,3.51428571 L12.0714286,0.2 C12.0714286,0.08954305 12.1609716,-3.14637205e-13 12.2714286,-3.14637205e-13 L13.7285714,-3.14637205e-13 Z" id="形状结合"></path>
            <path d="M13,8.35714286 L13,17.6428571 C10.4358208,17.6428571 8.35714286,15.5641792 8.35714286,13 C8.35714286,10.4358208 10.4358208,8.35714286 13,8.35714286 L13,8.35714286 Z" id="形状结合" fill-opacity="0.8"></path>
        </g>
    </g>
</svg>