<?xml version="1.0" encoding="UTF-8"?>
<svg width="40px" height="40px" viewBox="0 0 40 40" version="1.1" xmlns="http://www.w3.org/2000/svg" xmlns:xlink="http://www.w3.org/1999/xlink">
    <title>icon/dicomviewer</title>
    <g id="icon/dicomviewer" stroke="none" stroke-width="1" fill="none" fill-rule="evenodd">
        <path d="M20.483037,33 C16.4240974,33 14.4079384,30.3772065 12.792321,27.9443573 C12.1267189,26.9420719 11.3395884,25.5751603 10.586798,24.2323585 C9.59885132,22.4700929 8.74629167,20.7317807 9.0696904,19.7374822 C9.13440112,19.5385273 9.26785277,19.3363319 9.41249475,19.2019721 C10.3580346,18.3236475 12.0037101,19.4014543 14.3495213,22.4353925 C13.9906283,19.0005306 13.7555796,16.6545919 13.6443751,15.3975765 C13.4297007,12.9709738 13.4297007,11.6166089 13.8415054,10.9413647 C14.003414,10.67588 14.3257322,10.5165909 14.6314107,10.455894 C15.8531699,10.2132959 16.3931486,11.5502081 17.0069892,14.4467725 C17.1629213,15.1825779 17.517028,16.7961589 18.0693093,19.2875154 C18.0406401,16.2078643 18.0406401,14.190056 18.0693093,13.2340903 C18.1599119,10.212979 18.5603084,8.51962532 19.5355031,8.11925081 C19.6818258,8.05917678 19.9335169,8 20.1839522,8 C21.4972109,8.02284364 21.9091029,9.80448324 22.0390971,13.2340903 C22.0756707,14.1990036 22.0756707,16.216812 22.0390971,19.2875154 C22.5162815,16.4436261 22.8591608,14.6023013 23.0677351,13.763541 C23.6726934,11.3307624 24.2356057,10.0234182 25.3263984,10.3102416 C26.385972,10.5888559 26.4691977,11.753388 26.2698921,14.4467725 C26.1952371,15.4556482 26.0001828,17.4572771 25.6847291,20.4516592 C26.3828484,19.119876 26.8670653,18.1729279 27.1373801,17.6108149 C28.0243312,15.7664215 28.6955298,14.6586162 29.5676939,15.071324 C29.7343097,15.1501665 29.8542942,15.2304941 29.9563794,15.3975765 C30.4065312,16.1343377 30.2640054,17.7120998 29.9563794,19.5344519 C29.5355807,22.0272309 28.7510662,25.0517931 27.9772668,27.2290892 C26.5094929,31.3590719 24.5419765,33 20.483037,33 Z" id="路径-27" fill="#C9D3E6"></path>
    </g>
</svg>