<?xml version="1.0" encoding="UTF-8"?>
<svg width="40px" height="40px" viewBox="0 0 40 40" version="1.1" xmlns="http://www.w3.org/2000/svg" xmlns:xlink="http://www.w3.org/1999/xlink">
    <title>icon/shizixianyincan</title>
    <g id="icon/shizixianyincan" stroke="none" stroke-width="1" fill="none" fill-rule="evenodd">
        <path d="M18.8,8 C18.9104569,8 19,8.08954305 19,8.2 L19,17 L27.8,17 C27.9104569,17 28,17.0895431 28,17.2 L28,18.8 C28,18.9104569 27.9104569,19 27.8,19 L19,19 L19,27.8 C19,27.9104569 18.9104569,28 18.8,28 L17.2,28 C17.0895431,28 17,27.9104569 17,27.8 L17,18.999 L8.2,19 C8.08954305,19 8,18.9104569 8,18.8 L8,17.2 C8,17.0895431 8.08954305,17 8.2,17 L17,16.999 L17,8.2 C17,8.08954305 17.0895431,8 17.2,8 L18.8,8 Z M23.5579673,22.0332635 C23.5926933,22.0727525 23.6219105,22.1053631 23.6456191,22.1310952 C24.794658,23.3782098 26.223104,23.9886603 27.9945235,23.9886603 C29.7748985,23.9886603 31.1855372,23.3727517 32.2960799,22.1143734 L32.3519541,22.048276 C32.4222129,21.9651621 32.5460331,21.9534823 32.6305944,22.0219921 L33.8662182,23.0230691 C33.9519753,23.0926298 33.9651778,23.218532 33.8956666,23.3043292 C33.8948369,23.3053534 33.8939971,23.3063692 33.8931473,23.3073768 C33.859513,23.3472526 33.8311246,23.3803984 33.8079823,23.4068139 C33.4468762,23.8189944 33.0584155,24.1821377 32.6436032,24.4958611 L33.9377725,26.0507639 C33.9942498,26.1187256 33.9980973,26.2130201 33.9538818,26.2841649 L33.9117797,26.3324097 L32.6897957,27.3478991 C32.6218341,27.4043764 32.5275396,27.4082239 32.4563948,27.3640084 L32.4081499,27.3219063 L30.8744161,25.4756226 C30.2830882,25.7002289 29.6541331,25.8497984 28.9893994,25.9236261 L28.9889515,27.7663723 C28.9889515,27.8768292 28.8994085,27.9663723 28.7889515,27.9663723 L27.2000955,27.9663723 C27.0896386,27.9663723 27.0000955,27.8768292 27.0000955,27.7663723 L27.0002697,25.9238656 C26.3312123,25.8499411 25.6964635,25.6997385 25.0977794,25.4739821 L23.5606766,27.3219063 C23.4900799,27.4068583 23.3639828,27.4184957 23.2790307,27.3478991 L22.0570468,26.3324097 C21.9720947,26.2618131 21.9604573,26.135716 22.031054,26.0507639 L23.3187036,24.5030625 C22.8907951,24.1864212 22.4885378,23.8191966 22.1129085,23.4017913 L22.0395342,23.3173181 C21.9671001,23.2339273 21.9759823,23.1076061 22.0593731,23.035172 L22.0620116,23.03292 L23.2791224,22.0122167 C23.3623142,21.9422042 23.4861644,21.9516122 23.5579673,22.0332635 Z" id="形状结合" fill="#C9D3E6"></path>
    </g>
</svg>