<?xml version="1.0" encoding="UTF-8"?>
<svg width="36px" height="36px" viewBox="0 0 36 36" version="1.1" xmlns="http://www.w3.org/2000/svg" xmlns:xlink="http://www.w3.org/1999/xlink">
    <title>双线角度测量</title>
    <g id="骨科DR阅片" stroke="none" stroke-width="1" fill="none" fill-rule="evenodd">
        <g id="2.DR阅片-layout1*2" transform="translate(-817.000000, -1027.000000)">
            <g id="双线角度测量" transform="translate(817.000000, 1027.000000)">
                <rect id="矩形" x="0" y="0" width="36" height="36" rx="2"></rect>
                <path d="M8.772,12.462 L8.772,12.462 C16.9511019,13.1123953 23.564391,19.3881563 24.6420004,27.522 L8.772,27.522 L8.772,12.462 Z M10.368,11.436 L10.3679999,11.436 C9.24814208,11.4161133 8.3564413,10.4921695 8.37632802,9.37231172 C8.39621472,8.2524539 9.32015849,7.36075312 10.4400163,7.38063984 C11.5480499,7.40031656 12.4351054,8.30579765 12.432008,9.414 L12.432008,9.41400231 C12.4221359,10.5406195 11.500835,11.4459281 10.3742178,11.4360632 C10.3721444,11.4360451 10.370071,11.4360238 10.3679976,11.4359993 L10.368,11.436 Z M10.368,10.512 L10.368,10.512 C10.9853953,10.5220456 11.4948726,10.0313391 11.508,9.414 L11.508,9.414 C11.508,8.78439609 10.9976039,8.274 10.368,8.274 C9.73839608,8.274 9.22799997,8.78439609 9.22799997,9.414 L9.22799997,9.41399927 C9.24112593,10.0313383 9.75060231,10.5220446 10.368,10.5119993 L10.368,10.512 Z M6.924,6 L6.924,29.076 L30,29.076 L30,30 L6,30 L6,6 L6.924,6 Z" id="形状" fill="#C9D3E6" fill-rule="nonzero"></path>
            </g>
        </g>
    </g>
</svg>