<?xml version="1.0" encoding="UTF-8"?>
<svg width="12px" height="12px" viewBox="0 0 12 12" version="1.1" xmlns="http://www.w3.org/2000/svg" xmlns:xlink="http://www.w3.org/1999/xlink">
    <title>icon/solid/Delete</title>
    <g id="icon/solid/Delete" stroke="none" stroke-width="1" fill="none" fill-rule="evenodd">
        <path d="M3.34565347,0.165835921 C3.39647107,0.0642007129 3.50035001,2.08737895e-17 3.61398163,0 L8.24316123,0 C8.35679285,-3.53940697e-16 8.46067179,0.0642007129 8.51148939,0.165835921 L9.42857143,2 L11.7,2 C11.8656854,2 12,2.13431458 12,2.3 L12,2.7 C12,2.86568542 11.8656854,3 11.7,3 L10.757,3 L9.88415775,11.7298511 C9.86882169,11.8832117 9.73977202,12 9.58564659,12 L2.12863913,12 C1.97451369,12 1.84546402,11.8832117 1.83012797,11.7298511 L0.957,3 L0.3,3 C0.134314575,3 8.15514688e-16,2.86568542 0,2.7 L0,2.3 C-2.02906125e-17,2.13431458 0.134314575,2 0.3,2 L2.42857143,2 L3.34565347,0.165835921 Z M4.35714286,4.05432129 L3.35714286,4.05432129 L3.35714286,10.0543213 L4.35714286,10.0543213 L4.35714286,4.05432129 Z M6.35714286,4.05432129 L5.35714286,4.05432129 L5.35714286,10.0543213 L6.35714286,10.0543213 L6.35714286,4.05432129 Z M8.35714286,4.05432129 L7.35714286,4.05432129 L7.35714286,10.0543213 L8.35714286,10.0543213 L8.35714286,4.05432129 Z" id="Combined-Shape备份" fill="#C9D3E6"></path>
    </g>
</svg>