<?xml version="1.0" encoding="UTF-8"?>
<svg width="40px" height="40px" viewBox="0 0 40 40" version="1.1" xmlns="http://www.w3.org/2000/svg" xmlns:xlink="http://www.w3.org/1999/xlink">
    <title>icon/chongzhiMPR</title>
    <g id="icon/chongzhiMPR" stroke="none" stroke-width="1" fill="none" fill-rule="evenodd">
        <polygon id="矩形备份-2" fill-opacity="0.2" fill="#C9D3E6" points="8 25 20 19 32 25 20 31"></polygon>
        <polygon id="矩形备份" fill-opacity="0.5" fill="#C9D3E6" points="8 20 20 14 32 20 20 26"></polygon>
        <polygon id="矩形" fill-opacity="0.8" fill="#C9D3E6" points="8 15 20 9 32 15 20 21"></polygon>
        <path d="M26,28.0856947 C26,28.1961516 25.9104569,28.2856947 25.8,28.2856947 C25.7505916,28.2856947 25.702932,28.2674059 25.6662071,28.2343535 L21.1651765,24.183426 C21.0830745,24.1095342 21.0764188,23.9830762 21.1503106,23.9009742 C21.1550018,23.8957617 21.159964,23.8907996 21.1651765,23.8861083 L25.6662071,19.8351808 C25.7483091,19.761289 25.874767,19.7679447 25.9486588,19.8500467 C25.9817113,19.8867716 26,19.9344313 26,19.9838396 L26,23 L30,23 C32.209139,23 34,24.790861 34,27 C34,29.209139 32.209139,31 30,31 L26,31 L26,29 L30,29 C31.1045695,29 32,28.1045695 32,27 C32,25.9456382 31.1841222,25.0818349 30.1492623,25.0054857 L30,25 L26,25 L26,28.0856947 Z" id="形状结合" fill="#C9D3E6"></path>
    </g>
</svg>