<?xml version="1.0" encoding="UTF-8"?>
<svg width="40px" height="40px" viewBox="0 0 40 40" version="1.1" xmlns="http://www.w3.org/2000/svg" xmlns:xlink="http://www.w3.org/1999/xlink">
    <title>icon/fangda</title>
    <g id="icon/fangda" stroke="none" stroke-width="1" fill="none" fill-rule="evenodd">
        <path d="M25.6996841,24.0318241 L29.7911908,27.7213177 C30.3754559,28.2481756 30.4219937,29.1489188 29.8951358,29.7331839 C29.8787204,29.751388 29.8618379,29.7691653 29.844505,29.7864982 C29.2895226,30.3414806 28.3897183,30.3414806 27.8347359,29.7864982 C27.8166494,29.7684116 27.7990544,29.7498401 27.7819703,29.7308038 L24.1016071,25.6299011 L25.6996841,24.0318241 Z M18,9 C22.9705627,9 27,13.0294373 27,18 C27,22.9705627 22.9705627,27 18,27 C13.0294373,27 9,22.9705627 9,18 C9,13.0294373 13.0294373,9 18,9 Z M19,13 L17,13 L17,17 L13,17 L13,19 L16.999,19 L17,23 L19,23 L18.999,19 L23,19 L23,17 L19,17 L19,13 Z" id="形状结合" fill="#C9D3E6"></path>
    </g>
</svg>