<?xml version="1.0" standalone="no"?><!DOCTYPE svg PUBLIC "-//W3C//DTD SVG 1.1//EN" "http://www.w3.org/Graphics/SVG/1.1/DTD/svg11.dtd"><svg t="1635410066053" class="icon" viewBox="0 0 1024 1024" version="1.1" xmlns="http://www.w3.org/2000/svg" p-id="7416" xmlns:xlink="http://www.w3.org/1999/xlink" width="40" height="40"><defs><style type="text/css"></style></defs><path d="M694.272 216.576a96.768 96.768 0 1 0-153.6-19.456l-394.24 394.24a96.256 96.256 0 0 0-117.248 14.336 96.768 96.768 0 0 0 139.264 136.704 96.256 96.256 0 0 0 14.848-117.248l393.728-393.728a96.768 96.768 0 0 0 117.248-14.848z m-102.4-102.4a48.128 48.128 0 1 1 0 68.096 48.128 48.128 0 0 1 0-68.096zM134.656 708.608a51.2 51.2 0 0 1-68.608 0 48.64 48.64 0 0 1 68.608-68.608 51.2 51.2 0 0 1 0 68.608zM992.256 514.56a96.768 96.768 0 1 0-136.704-136.704 95.744 95.744 0 0 0-14.848 116.736L404.48 931.328a24.064 24.064 0 0 0 0 33.792 23.552 23.552 0 0 0 34.304 0l436.224-436.224a96.256 96.256 0 0 0 117.248-14.336z m-102.4-34.304A48.64 48.64 0 1 1 957.952 409.6a48.64 48.64 0 0 1-68.608 68.608z" p-id="7417" fill="#ffffff"></path></svg>