<?xml version="1.0" encoding="UTF-8"?>
<svg width="40px" height="40px" viewBox="0 0 40 40" version="1.1" xmlns="http://www.w3.org/2000/svg" xmlns:xlink="http://www.w3.org/1999/xlink">
    <title>icon/shanchutuyuan</title>
    <g id="icon/shanchutuyuan" stroke="none" stroke-width="1" fill="none" fill-rule="evenodd">
        <path d="M28,10 L28,15 L26,15 L26,12 L12,12 L12,26 L16,26 L16,28 L10,28 L10,10 L28,10 Z" id="形状结合" fill-opacity="0.5" fill="#C9D3E6"></path>
        <path d="M27.5596299,17 C27.6265006,17 27.6889468,17.0334202 27.72604,17.08906 L29,19 L32.8,19 C32.9104569,19 33,19.0895431 33,19.2 L33,20.8 C33,20.9104569 32.9104569,21 32.8,21 L30.923,21 L30.0142047,32.8153393 C30.0061893,32.9195387 29.919301,33 29.8147938,33 L20.1852062,33 C20.080699,33 19.9938107,32.9195387 19.9857953,32.8153393 L19.077,21 L17.2,21 C17.0895431,21 17,20.9104569 17,20.8 L17,19.2 C17,19.0895431 17.0895431,19 17.2,19 L21,19 L22.27396,17.08906 C22.3110532,17.0334202 22.3734994,17 22.4403701,17 L27.5596299,17 Z M23.8,21.8571429 L22.2,21.8571429 C22.1079525,21.8571429 22.0304286,21.9193255 22.0071442,22.0039749 L22,22.0571429 L22,29.6571429 C22,29.7491903 22.0621827,29.8267142 22.1468321,29.8499987 L22.2,29.8571429 L23.8,29.8571429 C23.8920475,29.8571429 23.9695714,29.7949602 23.9928558,29.7103108 L24,29.6571429 L24,22.0571429 C24,21.9466859 23.9104569,21.8571429 23.8,21.8571429 Z M27.8,21.8571429 L26.2,21.8571429 C26.1079525,21.8571429 26.0304286,21.9193255 26.0071442,22.0039749 L26,22.0571429 L26,29.6571429 C26,29.7491903 26.0621827,29.8267142 26.1468321,29.8499987 L26.2,29.8571429 L27.8,29.8571429 C27.8920475,29.8571429 27.9695714,29.7949602 27.9928558,29.7103108 L28,29.6571429 L28,22.0571429 C28,21.9466859 27.9104569,21.8571429 27.8,21.8571429 Z" id="形状结合备份" fill="#C9D3E6"></path>
        <rect id="矩形" fill="#C9D3E6" x="9" y="9" width="4" height="4" rx="0.2"></rect>
        <rect id="矩形备份-2" fill="#C9D3E6" x="9" y="25" width="4" height="4" rx="0.2"></rect>
        <rect id="矩形备份" fill="#C9D3E6" x="25" y="9" width="4" height="4" rx="0.2"></rect>
    </g>
</svg>