<?xml version="1.0" encoding="UTF-8"?>
<svg width="40px" height="40px" viewBox="0 0 40 40" version="1.1" xmlns="http://www.w3.org/2000/svg" xmlns:xlink="http://www.w3.org/1999/xlink">
    <title>icon/setting</title>
    <g id="icon/setting" stroke="none" stroke-width="1" fill="none" fill-rule="evenodd">
        <path d="M22.8,9 C22.9104569,9 23,9.08954305 23,9.2 L23.0006408,11.5341518 C23.6067441,11.7608255 24.1815609,12.0542033 24.7166433,12.4056227 L26.5473849,10.9243772 C26.6332261,10.8548644 26.7591654,10.8681011 26.8286782,10.9539423 L30.3528724,15.3059597 C30.4223852,15.3918009 30.4091484,15.5177402 30.3233072,15.587253 L28.3312748,17.1991234 C28.5045121,17.746681 28.6278381,18.3172971 28.6957491,18.9053281 L31.2030705,19.4844901 C31.3106964,19.5093375 31.3778017,19.6167284 31.3529543,19.7243543 L30.0932284,25.1808267 C30.068381,25.2884526 29.9609901,25.3555579 29.8533642,25.3307105 L27.4064641,24.7655342 C27.0886075,25.2809016 26.7210038,25.7608009 26.3105729,26.1981369 L27.3904039,28.4114357 C27.438825,28.5107137 27.3975973,28.6304476 27.2983193,28.6788687 L22.2650726,31.1337471 C22.1657946,31.1821683 22.0460607,31.1409406 21.9976396,31.0416625 L20.952368,28.8994925 C20.6395564,28.9341835 20.3218053,28.9519829 20,28.9519829 C19.6781012,28.9519829 19.360259,28.9341732 19.0473595,28.8994623 L18.0023604,31.0416625 C17.9539393,31.1409406 17.8342054,31.1821683 17.7349274,31.1337471 L12.7016807,28.6788687 C12.6024027,28.6304476 12.561175,28.5107137 12.6095961,28.4114357 L13.6884812,26.1971288 C13.2784313,25.7600635 12.9111483,25.2805056 12.5935359,24.7655342 L10.1466358,25.3307105 C10.0390099,25.3555579 9.93161902,25.2884526 9.90677161,25.1808267 L8.64704571,19.7243543 C8.6221983,19.6167284 8.68930357,19.5093375 8.79692951,19.4844901 L11.3042509,18.9053281 C11.3721208,18.3176532 11.4953385,17.7473722 11.6684105,17.2001182 L9.67669275,15.587253 C9.59085158,15.5177402 9.57761483,15.3918009 9.64712764,15.3059597 L13.1713218,10.9539423 C13.2408346,10.8681011 13.3667739,10.8548644 13.4526151,10.9243772 L15.2832467,12.4056949 C15.8186559,12.0540493 16.3938495,11.7605168 17.0003638,11.5337762 L17,9.2 C17,9.08954305 17.0895431,9 17.2,9 L22.8,9 Z M20,15.9817078 C17.8505185,15.9817078 16.1080195,17.7684739 16.1080195,19.9725616 C16.1080195,22.1766494 17.8505185,23.9634155 20,23.9634155 C22.1494815,23.9634155 23.8919805,22.1766494 23.8919805,19.9725616 C23.8919805,17.7684739 22.1494815,15.9817078 20,15.9817078 Z" id="形状结合" fill="#C9D3E6"></path>
    </g>
</svg>