<?xml version="1.0" encoding="UTF-8"?>
<svg width="40px" height="40px" viewBox="0 0 40 40" version="1.1" xmlns="http://www.w3.org/2000/svg" xmlns:xlink="http://www.w3.org/1999/xlink">
    <title>icon/jiaodu</title>
    <g id="icon/jiaodu" stroke="none" stroke-width="1" fill="none" fill-rule="evenodd">
        <path d="M19.3006742,10.6114857 L20.6993258,11.3885143 C20.7958849,11.4421528 20.8306736,11.5639135 20.777031,11.6604702 C20.7770302,11.6604716 20.7770295,11.660473 20.7770245,11.6604721 L11.864083,27.7028673 C11.8104381,27.7994227 11.8452239,27.9211842 11.9417794,27.9748291 C11.971492,27.9913371 12.0049217,28 12.0389121,28 L29.8,28 C29.9104569,28 30,28.0895431 30,28.2 L30,29.8 C30,29.9104569 29.9104569,30 29.8,30 L8.64038843,30 C8.52993148,30 8.44038843,29.9104569 8.44038843,29.8 C8.44038843,29.7660112 8.44905053,29.732583 8.46555698,29.7028714 L19.0287141,10.6891885 C19.0823568,10.5926318 19.2041174,10.557843 19.3006742,10.6114857 Z" id="路径-41" fill="#C9D3E6"></path>
        <path d="M20.836142,16.0663869 C24.3586269,18.030763 26.7889206,21.7182984 26.9869255,25.9888953 L14.804615,25.989224 Z" id="形状结合" fill-opacity="0.5" fill="#C9D3E6"></path>
    </g>
</svg>