<?xml version="1.0" encoding="UTF-8"?>
<svg width="40px" height="4px" viewBox="0 0 40 4" version="1.1" xmlns="http://www.w3.org/2000/svg" xmlns:xlink="http://www.w3.org/1999/xlink">
    <title>icon/tuodong</title>
    <g id="icon/tuodong" stroke="none" stroke-width="1" fill="none" fill-rule="evenodd">
        <path d="M19,0 L19,4 L18,4 L18,0 L19,0 Z M13,0 L13,4 L12,4 L12,0 L13,0 Z M7,0 L7,4 L6,4 L6,0 L7,0 Z M1,0 L1,4 L0,4 L0,0 L1,0 Z M25,0 L25,4 L24,4 L24,0 L25,0 Z M31,0 L31,4 L30,4 L30,0 L31,0 Z M37,0 L37,4 L36,4 L36,0 L37,0 Z M22,0 L22,4 L21,4 L21,0 L22,0 Z M16,0 L16,4 L15,4 L15,0 L16,0 Z M10,0 L10,4 L9,4 L9,0 L10,0 Z M4,0 L4,4 L3,4 L3,0 L4,0 Z M28,0 L28,4 L27,4 L27,0 L28,0 Z M34,0 L34,4 L33,4 L33,0 L34,0 Z M40,0 L40,4 L39,4 L39,0 L40,0 Z" id="形状结合" fill="#5A6270"></path>
    </g>
</svg>