<?xml version="1.0" encoding="UTF-8"?>
<svg width="40px" height="40px" viewBox="0 0 40 40" version="1.1" xmlns="http://www.w3.org/2000/svg" xmlns:xlink="http://www.w3.org/1999/xlink">
    <title>icon/chexiao</title>
    <g id="icon/chexiao" stroke="none" stroke-width="1" fill="none" fill-rule="evenodd">
        <path d="M16,20.5729917 C16,20.6834486 15.9104569,20.7729917 15.8,20.7729917 C15.7532127,20.7729917 15.7079061,20.7565884 15.6719631,20.7266359 L10.1843731,16.1536443 C10.0995177,16.0829314 10.0880529,15.9568185 10.1587657,15.8719631 C10.1665096,15.8626705 10.1750805,15.8540996 10.1843731,15.8463557 L15.6719631,11.2733641 C15.7568185,11.2026513 15.8829314,11.2141161 15.9536443,11.2989714 C15.9835968,11.3349144 16,11.380221 16,11.4270083 L15.999405,14.9990033 L28.7519942,15 C28.9859989,15 29.1812506,15.0389793 29.3848842,15.1515647 C29.5901454,15.2650501 29.7551666,15.4356491 29.8623492,15.6428373 C29.9445107,15.8016586 29.9833103,15.9531654 29.9955437,16.1241138 L30,16.2563885 L30,27.7436115 C30,27.9715383 29.9650511,28.158636 29.8623492,28.3571627 C29.7551666,28.5643509 29.5901454,28.7349499 29.3848842,28.8484353 C29.2219773,28.9385036 29.0644349,28.981464 28.8881238,28.9950455 L28.7519942,29 L12.2,29 C12.0895431,29 12,28.9104569 12,28.8 L12,27.2 C12,27.0895431 12.0895431,27 12.2,27 L27.8,27 C27.9104569,27 28,26.9104569 28,26.8 L28,17.2 C28,17.0895431 27.9104569,17 27.8,17 L15.999405,16.9990033 L16,20.5729917 Z" id="形状结合" fill="#C9D3E6"></path>
    </g>
</svg>