<?xml version="1.0" encoding="UTF-8"?>
<svg width="40px" height="40px" viewBox="0 0 40 40" version="1.1" xmlns="http://www.w3.org/2000/svg" xmlns:xlink="http://www.w3.org/1999/xlink">
    <title>icon/体位矫正</title>
    <g id="icon/体位矫正" stroke="none" stroke-width="1" fill="none" fill-rule="evenodd">
        <path d="M31.8866496,21.744086 C31.9971066,21.744086 32.0866496,21.8336291 32.0866496,21.944086 L32.0866496,23.0579791 C32.0866496,23.168436 31.9971066,23.2579791 31.8866496,23.2579791 L13.9145308,23.257086 L13.9148879,26.3732539 C13.9148879,26.4036172 13.9079789,26.4333743 13.8949228,26.4603602 L13.8708233,26.4984902 C13.8154904,26.5673868 13.7238575,26.5899626 13.6453239,26.560824 L13.5896516,26.5291893 L8.07476368,22.1000215 C8.02749719,22.0620604 8,22.0047092 8,21.944086 C8,21.8520386 8.06218267,21.7745146 8.14683208,21.7512302 L8.2,21.744086 L31.8866496,21.744086 Z M10.8909507,15 C12.4872318,15 13.7812733,16.2940415 13.7812733,17.8903226 C13.7812733,19.4866037 12.4872318,20.7806452 10.8909507,20.7806452 C9.29466962,20.7806452 8.00062812,19.4866037 8.00062812,17.8903226 C8.00062812,16.2940415 9.29466962,15 10.8909507,15 Z M30.9176917,16.4414493 C31.0097391,16.4414493 31.0872631,16.5036319 31.1105475,16.5882813 L31.1176917,16.6414493 L31.1177087,19.7855999 C31.12157,19.8224374 31.1234297,19.8598092 31.1231858,19.8975931 L31.1172904,19.9728516 L31.1176917,20.5487346 C31.1176917,20.640782 31.055509,20.7183059 30.9708596,20.7415904 L30.9176917,20.7487346 L16.6095485,20.7487346 C15.3325236,20.7487346 14.2972904,19.7135014 14.2972904,18.4364765 C14.2972904,17.3620623 15.1682752,16.4910775 16.2426894,16.4910775 C16.3542324,16.4910775 16.4655687,16.5006707 16.5754676,16.5197511 L28.8232904,18.6458516 L30.7697195,16.5068973 C30.7949887,16.4791077 30.8272907,16.4592829 30.8627112,16.4491541 L30.9176917,16.4414493 Z" id="形状结合" fill="#C9D3E6"></path>
    </g>
</svg>