<?xml version="1.0" encoding="UTF-8"?>
<svg width="40px" height="40px" viewBox="0 0 40 40" version="1.1" xmlns="http://www.w3.org/2000/svg" xmlns:xlink="http://www.w3.org/1999/xlink">
    <title>icon/删除标记点</title>
    <g id="icon/删除标记点" stroke="none" stroke-width="1" fill="none" fill-rule="evenodd">
        <path d="M23.5596299,9 C23.6265006,9 23.6889468,9.03342023 23.72604,9.08905996 L25.5,11.75 L30.8,11.75 C30.9104569,11.75 31,11.8395431 31,11.95 L31,14.3 C31,14.4104569 30.9104569,14.5 30.8,14.5 L28.144,14.5 L26.8892047,30.8153393 C26.8811893,30.9195387 26.794301,31 26.6897938,31 L13.3102062,31 C13.205699,31 13.1188107,30.9195387 13.1107953,30.8153393 L11.856,14.5 L9.2,14.5 C9.08954305,14.5 9,14.4104569 9,14.3 L9,11.95 C9,11.8395431 9.08954305,11.75 9.2,11.75 L14.5,11.75 L16.27396,9.08905996 C16.3110532,9.03342023 16.3734994,9 16.4403701,9 L23.5596299,9 Z M18.425,15.6785714 L16.075,15.6785714 C15.9829525,15.6785714 15.9054286,15.7407541 15.8821442,15.8254035 L15.875,15.8785714 L15.875,26.4785714 C15.875,26.5706189 15.9371827,26.6481428 16.0218321,26.6714272 L16.075,26.6785714 L18.425,26.6785714 C18.5170475,26.6785714 18.5945714,26.6163888 18.6178558,26.5317394 L18.625,26.4785714 L18.625,15.8785714 C18.625,15.7681145 18.5354569,15.6785714 18.425,15.6785714 Z M23.925,15.6785714 L21.575,15.6785714 C21.4829525,15.6785714 21.4054286,15.7407541 21.3821442,15.8254035 L21.375,15.8785714 L21.375,26.4785714 C21.375,26.5706189 21.4371827,26.6481428 21.5218321,26.6714272 L21.575,26.6785714 L23.925,26.6785714 C24.0170475,26.6785714 24.0945714,26.6163888 24.1178558,26.5317394 L24.125,26.4785714 L24.125,15.8785714 C24.125,15.7681145 24.0354569,15.6785714 23.925,15.6785714 Z" id="形状结合备份-2" fill="#C9D3E6"></path>
    </g>
</svg>