<?xml version="1.0" encoding="UTF-8"?>
<svg width="31px" height="35px" viewBox="0 0 31 35" version="1.1" xmlns="http://www.w3.org/2000/svg" xmlns:xlink="http://www.w3.org/1999/xlink">
    <title>反选</title>
    <g id="web-plan假体规划（2021/08更新）" stroke="none" stroke-width="1" fill="none" fill-rule="evenodd">
        <g id="14.假体规划-垂直裁剪" transform="translate(-1640.000000, -881.000000)" fill="#C9D3E6">
            <g id="反选" transform="translate(1640.000000, 881.500000)">
                <g id="编组-3" transform="translate(15.500000, 17.000000) rotate(-90.000000) translate(-15.500000, -17.000000) translate(-1.000000, 2.000000)">
                    <g id="icon/shijiaoxuanze">
                        <path d="M2,22.953125 L2,27.953125 L7,27.953125 L7,29.953125 L0,29.953125 L0,22.953125 L2,22.953125 Z M33,22.953125 L33,29.953125 L26,29.953125 L26,27.953125 L31,27.953125 L31,22.953125 L33,22.953125 Z M7,0 L7,2 L2,2 L2,7 L0,7 L0,0 L7,0 Z M33,0 L33,7 L31,7 L31,2 L26,2 L26,0 L33,0 Z" id="形状结合"></path>
                    </g>
                    <g id="icon/shijiaoxuanze" transform="translate(-0.000000, 0.000000)">
                        <path d="M2,22.953125 L2,27.953125 L7,27.953125 L7,29.953125 L0,29.953125 L0,22.953125 L2,22.953125 Z M33,22.953125 L33,29.953125 L26,29.953125 L26,27.953125 L31,27.953125 L31,22.953125 L33,22.953125 Z M7,0 L7,2 L2,2 L2,7 L0,7 L0,0 L7,0 Z M33,0 L33,7 L31,7 L31,2 L26,2 L26,0 L33,0 Z" id="形状结合"></path>
                    </g>
                    <path d="M33,-5.68434189e-13 L33,29 L0,29 L10.7,19.596 L10.8504502,19.7625841 C13.7749606,22.9058888 18.6876156,23.1855281 21.9526632,20.3472654 C25.28718,17.4486143 25.6405188,12.3956333 22.7418677,9.06111657 C22.7418677,9.06111657 20.4815416,11.025988 17.9167448,13.2555319 L33,-5.68434189e-13 Z" id="形状结合" opacity="0.187383743"></path>
                </g>
                <path d="M19.7907505,23.4200451 C19.7907505,19.0017671 16.2090285,15.4200451 11.7907505,15.4200451 C7.37247248,15.4200451 3.79075048,19.0017671 3.79075048,23.4200451 C3.79075048,23.4200451 19.7907505,23.4200451 19.7907505,23.4200451 Z" id="椭圆形" transform="translate(11.790750, 19.420045) rotate(-131.000000) translate(-11.790750, -19.420045) "></path>
            </g>
        </g>
    </g>
</svg>