<?xml version="1.0" encoding="UTF-8"?>
<svg width="33px" height="31px" viewBox="0 0 33 31" version="1.1" xmlns="http://www.w3.org/2000/svg" xmlns:xlink="http://www.w3.org/1999/xlink">
    <title>水平剪裁</title>
    <g id="web-plan假体规划（2021/08更新）" stroke="none" stroke-width="1" fill="none" fill-rule="evenodd">
        <g id="14.假体规划-垂直裁剪" transform="translate(-1498.000000, -883.000000)">
            <g id="编组-21" transform="translate(1490.000000, 873.500000)">
                <g id="水平剪裁" transform="translate(8.000000, 10.000000)">
                    <path d="M2,22.953125 L2,27.953125 L7,27.953125 L7,29.953125 L0,29.953125 L0,22.953125 L2,22.953125 Z M33,22.953125 L33,29.953125 L26,29.953125 L26,27.953125 L31,27.953125 L31,22.953125 L33,22.953125 Z M7,0 L7,2 L2,2 L2,7 L0,7 L0,0 L7,0 Z M33,0 L33,7 L31,7 L31,2 L26,2 L26,0 L33,0 Z" id="形状结合" fill="#C9D3E6"></path>
                    <path d="M0.0100097656,13.75 L0.0100097656,15.25 L4.51000977,15.25 L4.51000977,13.75 L0.0100097656,13.75 Z M6.01000977,13.75 L6.01000977,15.25 L10.5100098,15.25 L10.5100098,13.75 L6.01000977,13.75 Z M12.0100098,13.75 L12.0100098,15.25 L16.5100098,15.25 L16.5100098,13.75 L12.0100098,13.75 Z M18.0100098,13.75 L18.0100098,15.25 L22.5100098,15.25 L22.5100098,13.75 L18.0100098,13.75 Z" id="直线-5" fill="#C9D3E5" fill-rule="nonzero"></path>
                    <rect id="矩形" fill="#C9D3E6" opacity="0.187383743" x="0" y="15" width="33" height="14"></rect>
                    <path d="M31,10 C32.1045695,10 33,10.8954305 33,12 C33,13.1045695 32.1045695,14 31,14 C30.5337192,14 30.1047071,13.8404338 29.76459,13.5729279 L24.3837464,17.4776765 L23.7964293,16.6683196 L29.1569593,12.7779921 C29.0558868,12.5388484 29,12.2759507 29,12 C29,10.8954305 29.8954305,10 31,10 Z M31,11 C30.4477153,11 30,11.4477153 30,12 C30,12.5522847 30.4477153,13 31,13 C31.5522847,13 32,12.5522847 32,12 C32,11.4477153 31.5522847,11 31,11 Z" id="形状结合" fill="#C9D3E5" fill-rule="nonzero"></path>
                    <path d="M31,12 C32.1045695,12 33,12.8954305 33,14 C33,15.1045695 32.1045695,16 31,16 C30.5337192,16 30.1047071,15.8404338 29.76459,15.5729279 L24.3837464,19.4776765 L23.7964293,18.6683196 L29.1569593,14.7779921 C29.0558868,14.5388484 29,14.2759507 29,14 C29,12.8954305 29.8954305,12 31,12 Z M31,13 C30.4477153,13 30,13.4477153 30,14 C30,14.5522847 30.4477153,15 31,15 C31.5522847,15 32,14.5522847 32,14 C32,13.4477153 31.5522847,13 31,13 Z" id="形状结合" fill="#C9D3E5" fill-rule="nonzero" transform="translate(28.398215, 15.738838) scale(1, -1) translate(-28.398215, -15.738838) "></path>
                </g>
            </g>
        </g>
    </g>
</svg>