<?xml version="1.0" encoding="UTF-8"?>
<svg width="40px" height="40px" viewBox="0 0 40 40" version="1.1" xmlns="http://www.w3.org/2000/svg" xmlns:xlink="http://www.w3.org/1999/xlink">
    <title>icon/自动提取</title>
    <g id="icon/自动提取" stroke="none" stroke-width="1" fill="none" fill-rule="evenodd">
        <path d="M20.354,9.72195742 L20.354,11.6459574 L10.9245682,11.6465257 L10.9245682,28.9676398 L28.2456824,28.9676398 L28.245,22.2309574 L30.17,22.2309574 L30.1702507,30.6922081 C30.1702507,30.802665 30.0807076,30.8922081 29.9702507,30.8922081 L9.2,30.8922081 C9.08954305,30.8922081 9,30.802665 9,30.6922081 L9,9.92195742 C9,9.81150047 9.08954305,9.72195742 9.2,9.72195742 L20.354,9.72195742 Z M21.1551373,15.4956621 C21.2217887,15.4956621 21.2828548,15.5287167 21.3196228,15.5818682 L21.3423506,15.6252975 L24.6748306,24.4917505 C24.6832858,24.5142466 24.6876172,24.5380825 24.6876172,24.5621151 C24.6876172,24.6541626 24.6254346,24.7316865 24.5407852,24.7549709 L24.4876172,24.7621151 L21.9294969,24.7621151 C21.8587048,24.7621151 21.7946449,24.7248986 21.7589326,24.6665863 L21.7378013,24.6191485 L21.3677669,23.3754217 C21.3475793,23.3075691 21.2936403,23.256782 21.2275653,23.2391813 L21.1760713,23.2324551 L18.2133945,23.2324551 C18.1423774,23.2324551 18.078159,23.2699044 18.0425168,23.3284968 L18.0214836,23.3761506 L17.6570162,24.6184196 C17.6370233,24.6865644 17.5830098,24.7376427 17.5167531,24.7553482 L17.4651053,24.7621151 L14.9771072,24.7621151 C14.9530746,24.7621151 14.9292387,24.7577837 14.9067426,24.7493284 C14.82058,24.716944 14.7698898,24.6314622 14.7778756,24.5440327 L14.7898939,24.4917505 L18.1223738,15.6252975 C18.1458233,15.5629074 18.198249,15.5173748 18.2609382,15.5016574 L18.3095871,15.4956621 L21.1551373,15.4956621 Z M19.5324432,18.473002 L19.5100766,18.5217626 L18.7620438,20.9702924 C18.7562579,20.9892311 18.7533169,21.0089241 18.7533169,21.0287269 C18.7533169,21.1207743 18.8154996,21.1982982 18.900149,21.2215827 L18.9533169,21.2287269 L20.4540287,21.2287269 C20.4739477,21.2287269 20.4937551,21.2257512 20.5127949,21.2198983 C20.6007791,21.1928519 20.6566097,21.1106352 20.6539937,21.0228808 L20.6452001,20.9699607 L19.8925212,18.5214309 C19.8730125,18.4579676 19.8232813,18.4083225 19.7597842,18.388924 C19.6717532,18.3620302 19.5794439,18.3988493 19.5324432,18.473002 Z M23.9466152,10.6842415 C23.8361582,10.6842415 23.7466152,10.5946985 23.7466152,10.4842415 C23.7466152,10.4388272 23.7620713,10.3947651 23.7904414,10.3593025 L27.2234529,6.06803814 C27.2924549,5.98178575 27.4183133,5.96780148 27.5045657,6.03680339 C27.5160987,6.04602974 27.5265741,6.0565052 27.5358005,6.06803814 L30.968812,10.3593025 C31.0378139,10.4455549 31.0238296,10.5714134 30.9375772,10.6404153 C30.9021146,10.6687854 30.8580525,10.6842415 30.8126382,10.6842415 L28.3419108,10.6842415 L28.3419108,18.3825145 L26.4173426,18.3825145 L26.4173426,10.6842415 L23.9466152,10.6842415 Z" id="形状结合" fill="#C9D3E6" fill-rule="nonzero"></path>
    </g>
</svg>